G04*
G04 #@! TF.GenerationSoftware,Altium Limited,Altium Designer,19.1.5 (86)*
G04*
G04 Layer_Physical_Order=1*
G04 Layer_Color=255*
%FSLAX25Y25*%
%MOIN*%
G70*
G01*
G75*
%ADD14C,0.02000*%
%ADD31O,0.08268X0.05512*%
%ADD32R,0.05937X0.05937*%
%ADD33C,0.05937*%
%ADD34C,0.13780*%
%ADD35C,0.06299*%
%ADD36C,0.15748*%
%ADD37R,0.10000X0.10000*%
%ADD38C,0.10000*%
%ADD39C,0.05906*%
%ADD40R,0.05906X0.05906*%
%ADD41O,0.09843X0.06890*%
%ADD42C,0.06000*%
%ADD43C,0.07874*%
%ADD44R,0.07874X0.07874*%
%ADD45C,0.05000*%
G36*
X305000Y-264500D02*
X-0D01*
Y-0D01*
X0Y0D01*
X305000D01*
Y-264500D01*
D02*
G37*
%LPC*%
G36*
X162899Y-22466D02*
X162899Y-22466D01*
X147500D01*
X147500Y-22466D01*
X146456Y-22603D01*
X145483Y-23006D01*
X144647Y-23647D01*
X135147Y-33147D01*
X134506Y-33983D01*
X134103Y-34956D01*
X133966Y-36000D01*
X133966Y-36000D01*
Y-85829D01*
X126300Y-93494D01*
X126049Y-93302D01*
X124711Y-92748D01*
X123276Y-92559D01*
X121840Y-92748D01*
X120502Y-93302D01*
X119353Y-94184D01*
X119229Y-94346D01*
X118729Y-94354D01*
X118241Y-93759D01*
X117710Y-93323D01*
Y-92677D01*
X118241Y-92241D01*
X118987Y-91332D01*
X119541Y-90295D01*
X119882Y-89170D01*
X119997Y-88000D01*
X119882Y-86830D01*
X119541Y-85705D01*
X118987Y-84668D01*
X118241Y-83759D01*
X117710Y-83323D01*
Y-82677D01*
X118241Y-82241D01*
X118987Y-81332D01*
X119541Y-80295D01*
X119882Y-79170D01*
X119997Y-78000D01*
X119882Y-76830D01*
X119541Y-75705D01*
X118987Y-74668D01*
X118241Y-73759D01*
X117710Y-73323D01*
Y-72677D01*
X118241Y-72241D01*
X118987Y-71332D01*
X119541Y-70295D01*
X119882Y-69170D01*
X119997Y-68000D01*
X119882Y-66830D01*
X119541Y-65705D01*
X118987Y-64668D01*
X118241Y-63759D01*
X117710Y-63323D01*
Y-62677D01*
X118241Y-62241D01*
X118987Y-61332D01*
X119541Y-60295D01*
X119882Y-59170D01*
X119997Y-58000D01*
X119882Y-56830D01*
X119541Y-55705D01*
X118987Y-54668D01*
X118241Y-53759D01*
X117332Y-53013D01*
X116295Y-52459D01*
X115496Y-52217D01*
X115470Y-51687D01*
X116001Y-51467D01*
X116830Y-50830D01*
X117466Y-50001D01*
X117866Y-49036D01*
X117937Y-48500D01*
X114000D01*
X110063D01*
X110134Y-49036D01*
X110533Y-50001D01*
X111170Y-50830D01*
X111999Y-51467D01*
X112530Y-51687D01*
X112504Y-52217D01*
X111705Y-52459D01*
X110668Y-53013D01*
X109759Y-53759D01*
X109013Y-54668D01*
X108459Y-55705D01*
X108118Y-56830D01*
X108003Y-58000D01*
X108118Y-59170D01*
X108459Y-60295D01*
X109013Y-61332D01*
X109759Y-62241D01*
X110290Y-62677D01*
Y-63323D01*
X109759Y-63759D01*
X109013Y-64668D01*
X108459Y-65705D01*
X108118Y-66830D01*
X108003Y-68000D01*
X108118Y-69170D01*
X108459Y-70295D01*
X109013Y-71332D01*
X109759Y-72241D01*
X110290Y-72677D01*
Y-73323D01*
X109759Y-73759D01*
X109013Y-74668D01*
X108459Y-75705D01*
X108118Y-76830D01*
X108003Y-78000D01*
X108118Y-79170D01*
X108459Y-80295D01*
X109013Y-81332D01*
X109759Y-82241D01*
X110290Y-82677D01*
Y-83323D01*
X109759Y-83759D01*
X109013Y-84668D01*
X108459Y-85705D01*
X108118Y-86830D01*
X108003Y-88000D01*
X108118Y-89170D01*
X108459Y-90295D01*
X109013Y-91332D01*
X109759Y-92241D01*
X110290Y-92677D01*
Y-93323D01*
X109759Y-93759D01*
X109013Y-94668D01*
X108459Y-95705D01*
X108118Y-96830D01*
X108003Y-98000D01*
X108118Y-99170D01*
X108459Y-100295D01*
X109013Y-101332D01*
X109759Y-102241D01*
X110290Y-102677D01*
Y-103323D01*
X109759Y-103759D01*
X109013Y-104668D01*
X108459Y-105705D01*
X108118Y-106830D01*
X108003Y-108000D01*
X108118Y-109170D01*
X108459Y-110295D01*
X109013Y-111332D01*
X109759Y-112241D01*
X110290Y-112677D01*
Y-113323D01*
X109759Y-113759D01*
X109013Y-114668D01*
X108459Y-115705D01*
X108118Y-116830D01*
X108003Y-118000D01*
X108118Y-119170D01*
X108459Y-120295D01*
X109013Y-121332D01*
X109759Y-122241D01*
X110290Y-122677D01*
Y-123323D01*
X109759Y-123759D01*
X109013Y-124668D01*
X108459Y-125705D01*
X108118Y-126830D01*
X108003Y-128000D01*
X108118Y-129170D01*
X108459Y-130295D01*
X109013Y-131332D01*
X109759Y-132241D01*
X110290Y-132677D01*
Y-133323D01*
X109759Y-133759D01*
X109013Y-134668D01*
X108459Y-135705D01*
X108118Y-136830D01*
X108003Y-138000D01*
X108118Y-139170D01*
X108459Y-140295D01*
X109013Y-141332D01*
X109759Y-142241D01*
X110290Y-142677D01*
Y-143323D01*
X109759Y-143759D01*
X109013Y-144668D01*
X108459Y-145705D01*
X108118Y-146830D01*
X108003Y-148000D01*
X108118Y-149170D01*
X108459Y-150295D01*
X109013Y-151332D01*
X109759Y-152241D01*
X110290Y-152677D01*
Y-153323D01*
X109759Y-153759D01*
X109013Y-154668D01*
X108459Y-155705D01*
X108118Y-156830D01*
X108003Y-158000D01*
X108118Y-159170D01*
X108459Y-160295D01*
X109013Y-161332D01*
X109759Y-162241D01*
X110290Y-162677D01*
Y-163323D01*
X109759Y-163759D01*
X109013Y-164668D01*
X108459Y-165705D01*
X108118Y-166830D01*
X108003Y-168000D01*
X108118Y-169170D01*
X108459Y-170295D01*
X109013Y-171332D01*
X109759Y-172241D01*
X110290Y-172677D01*
Y-173323D01*
X109759Y-173759D01*
X109013Y-174668D01*
X108459Y-175705D01*
X108118Y-176830D01*
X108003Y-178000D01*
X108118Y-179170D01*
X108459Y-180295D01*
X109013Y-181332D01*
X109759Y-182241D01*
X110169Y-182578D01*
X110131Y-183111D01*
X109790Y-183279D01*
X109513Y-183066D01*
X108175Y-182512D01*
X106739Y-182323D01*
X105304Y-182512D01*
X103966Y-183066D01*
X102817Y-183948D01*
X101935Y-185097D01*
X101381Y-186435D01*
X101192Y-187871D01*
X101381Y-189306D01*
X101935Y-190644D01*
X102705Y-191648D01*
Y-193589D01*
X59703Y-236592D01*
X35660D01*
X35490Y-236091D01*
X35614Y-235996D01*
X35834Y-235710D01*
X35971Y-235605D01*
X36612Y-234769D01*
X37015Y-233796D01*
X37153Y-232752D01*
Y-232455D01*
X37939Y-231668D01*
X38581Y-230832D01*
X38984Y-229859D01*
X39121Y-228815D01*
X39121Y-228815D01*
Y-146138D01*
X38984Y-145094D01*
X38581Y-144121D01*
X37939Y-143285D01*
X37104Y-142644D01*
X36131Y-142241D01*
X35087Y-142103D01*
X34042Y-142241D01*
X33069Y-142644D01*
X32234Y-143285D01*
X31593Y-144121D01*
X31190Y-145094D01*
X31052Y-146138D01*
Y-227144D01*
X30265Y-227931D01*
X29624Y-228766D01*
X29221Y-229739D01*
X29084Y-230784D01*
X29084Y-230784D01*
Y-232752D01*
X29221Y-233796D01*
X29624Y-234769D01*
X30265Y-235605D01*
X30402Y-235710D01*
X30622Y-235996D01*
X30746Y-236091D01*
X30576Y-236592D01*
X22953D01*
Y-234000D01*
X19000D01*
X15047D01*
Y-236592D01*
X11562D01*
Y-229108D01*
X11647Y-229024D01*
X12900Y-228858D01*
X14238Y-228304D01*
X14875Y-227816D01*
X15677Y-228473D01*
X16711Y-229026D01*
X16780Y-229047D01*
X16706Y-229547D01*
X15047D01*
Y-233000D01*
X19000D01*
X22953D01*
Y-229547D01*
X21294D01*
X21220Y-229047D01*
X21289Y-229026D01*
X22323Y-228473D01*
X23230Y-227730D01*
X23974Y-226823D01*
X24526Y-225789D01*
X24867Y-224667D01*
X24982Y-223500D01*
X24867Y-222333D01*
X24526Y-221211D01*
X23974Y-220177D01*
X23230Y-219270D01*
X22685Y-218823D01*
Y-218177D01*
X23230Y-217730D01*
X23974Y-216823D01*
X24526Y-215789D01*
X24867Y-214667D01*
X24982Y-213500D01*
X24867Y-212333D01*
X24526Y-211211D01*
X23974Y-210177D01*
X23230Y-209270D01*
X22685Y-208823D01*
Y-208177D01*
X23230Y-207730D01*
X23974Y-206823D01*
X24526Y-205789D01*
X24867Y-204667D01*
X24982Y-203500D01*
X24867Y-202333D01*
X24526Y-201211D01*
X23974Y-200177D01*
X23230Y-199270D01*
X22685Y-198823D01*
Y-198177D01*
X23230Y-197730D01*
X23974Y-196823D01*
X24526Y-195789D01*
X24867Y-194667D01*
X24982Y-193500D01*
X24867Y-192333D01*
X24526Y-191211D01*
X23974Y-190177D01*
X23230Y-189270D01*
X22323Y-188526D01*
X21289Y-187974D01*
X20167Y-187633D01*
X19000Y-187519D01*
X17833Y-187633D01*
X16711Y-187974D01*
X15677Y-188526D01*
X14950Y-189123D01*
X14238Y-188578D01*
X13035Y-188079D01*
Y-178447D01*
X13047Y-177953D01*
X24953D01*
Y-166047D01*
X23964D01*
X23750Y-165595D01*
X23974Y-165323D01*
X24526Y-164289D01*
X24867Y-163167D01*
X24982Y-162000D01*
X24867Y-160833D01*
X24526Y-159711D01*
X23974Y-158677D01*
X23230Y-157770D01*
X22685Y-157323D01*
Y-156677D01*
X23230Y-156230D01*
X23974Y-155323D01*
X24526Y-154289D01*
X24867Y-153167D01*
X24982Y-152000D01*
X24867Y-150833D01*
X24526Y-149711D01*
X23974Y-148677D01*
X23230Y-147770D01*
X22323Y-147027D01*
X21289Y-146474D01*
X20450Y-146219D01*
X20424Y-145689D01*
X20993Y-145453D01*
X21819Y-144819D01*
X22453Y-143993D01*
X22851Y-143032D01*
X22921Y-142500D01*
X19000D01*
X15079D01*
X15149Y-143032D01*
X15547Y-143993D01*
X16181Y-144819D01*
X17007Y-145453D01*
X17576Y-145689D01*
X17550Y-146219D01*
X16711Y-146474D01*
X15677Y-147027D01*
X14770Y-147770D01*
X14027Y-148677D01*
X13966Y-148790D01*
X13468Y-148831D01*
X13035Y-148266D01*
Y-117528D01*
X13534Y-117403D01*
X14027Y-118323D01*
X14770Y-119230D01*
X15677Y-119974D01*
X16711Y-120526D01*
X16780Y-120547D01*
X16706Y-121047D01*
X15047D01*
Y-124500D01*
X19000D01*
X22953D01*
Y-121047D01*
X21294D01*
X21220Y-120547D01*
X21289Y-120526D01*
X22323Y-119974D01*
X23230Y-119230D01*
X23974Y-118323D01*
X24526Y-117289D01*
X24867Y-116167D01*
X24982Y-115000D01*
X24867Y-113833D01*
X24526Y-112711D01*
X23974Y-111677D01*
X23230Y-110770D01*
X22685Y-110323D01*
Y-109677D01*
X23230Y-109230D01*
X23974Y-108323D01*
X24526Y-107289D01*
X24867Y-106167D01*
X24982Y-105000D01*
X24867Y-103833D01*
X24526Y-102711D01*
X23974Y-101677D01*
X23230Y-100770D01*
X22685Y-100323D01*
Y-99677D01*
X23230Y-99230D01*
X23974Y-98323D01*
X24526Y-97289D01*
X24867Y-96167D01*
X24982Y-95000D01*
X24867Y-93833D01*
X24526Y-92711D01*
X23974Y-91677D01*
X23230Y-90770D01*
X22685Y-90323D01*
Y-89677D01*
X23230Y-89230D01*
X23974Y-88323D01*
X24526Y-87289D01*
X24867Y-86167D01*
X24982Y-85000D01*
X24867Y-83833D01*
X24526Y-82711D01*
X23974Y-81677D01*
X23230Y-80770D01*
X22685Y-80323D01*
Y-79677D01*
X23230Y-79230D01*
X23974Y-78323D01*
X24526Y-77289D01*
X24867Y-76167D01*
X24982Y-75000D01*
X24867Y-73833D01*
X24526Y-72711D01*
X23974Y-71677D01*
X23230Y-70770D01*
X22323Y-70026D01*
X21289Y-69474D01*
X20167Y-69133D01*
X19000Y-69018D01*
X17833Y-69133D01*
X16711Y-69474D01*
X15677Y-70026D01*
X14770Y-70770D01*
X14717Y-70835D01*
X14238Y-70467D01*
X12900Y-69913D01*
X11465Y-69724D01*
X10029Y-69913D01*
X8691Y-70467D01*
X7542Y-71349D01*
X6660Y-72498D01*
X6106Y-73836D01*
X5917Y-75272D01*
X5998Y-75889D01*
X5506Y-76531D01*
X5103Y-77504D01*
X4966Y-78548D01*
X4966Y-78548D01*
Y-148266D01*
X4196Y-149270D01*
X3642Y-150608D01*
X3452Y-152043D01*
X3642Y-153479D01*
X4196Y-154817D01*
X4966Y-155820D01*
Y-190105D01*
X4966Y-190105D01*
X5103Y-191150D01*
X5506Y-192123D01*
X5998Y-192764D01*
X5917Y-193382D01*
X6106Y-194818D01*
X6660Y-196156D01*
X7542Y-197304D01*
X8691Y-198186D01*
X10029Y-198740D01*
X11465Y-198929D01*
X12900Y-198740D01*
X14238Y-198186D01*
X14801Y-197755D01*
X15315Y-198177D01*
Y-198823D01*
X14770Y-199270D01*
X14027Y-200177D01*
X13474Y-201211D01*
X13133Y-202333D01*
X13018Y-203500D01*
X13133Y-204667D01*
X13474Y-205789D01*
X14027Y-206823D01*
X14770Y-207730D01*
X15315Y-208177D01*
Y-208823D01*
X14770Y-209270D01*
X14027Y-210177D01*
X13474Y-211211D01*
X13133Y-212333D01*
X13018Y-213500D01*
X13133Y-214667D01*
X13474Y-215789D01*
X14027Y-216823D01*
X14770Y-217730D01*
X15315Y-218177D01*
Y-218823D01*
X14875Y-219184D01*
X14238Y-218696D01*
X12900Y-218142D01*
X11465Y-217952D01*
X10029Y-218142D01*
X8691Y-218696D01*
X7542Y-219577D01*
X6660Y-220726D01*
X6106Y-222064D01*
X5941Y-223318D01*
X4675Y-224584D01*
X4034Y-225420D01*
X3630Y-226393D01*
X3493Y-227437D01*
X3493Y-227437D01*
Y-238279D01*
X3493Y-238280D01*
X3630Y-239324D01*
X4034Y-240297D01*
X4675Y-241132D01*
X6359Y-242816D01*
X6300Y-243313D01*
X5400Y-243864D01*
X4098Y-244976D01*
X2987Y-246278D01*
X2092Y-247737D01*
X1437Y-249318D01*
X1038Y-250983D01*
X903Y-252689D01*
X1038Y-254395D01*
X1437Y-256060D01*
X2092Y-257641D01*
X2987Y-259100D01*
X4098Y-260402D01*
X5400Y-261513D01*
X6859Y-262408D01*
X8440Y-263063D01*
X10105Y-263462D01*
X11811Y-263597D01*
X13517Y-263462D01*
X15182Y-263063D01*
X16763Y-262408D01*
X18222Y-261513D01*
X19524Y-260402D01*
X20636Y-259100D01*
X21530Y-257641D01*
X22185Y-256060D01*
X22584Y-254395D01*
X22719Y-252689D01*
X22584Y-250983D01*
X22185Y-249318D01*
X21530Y-247737D01*
X20636Y-246278D01*
X19681Y-245161D01*
X19912Y-244660D01*
X61374D01*
X61374Y-244660D01*
X62418Y-244523D01*
X63391Y-244120D01*
X64227Y-243479D01*
X107871Y-199834D01*
X108356Y-199956D01*
X108459Y-200295D01*
X109013Y-201332D01*
X109759Y-202241D01*
X110290Y-202677D01*
Y-203323D01*
X109759Y-203759D01*
X109013Y-204668D01*
X108459Y-205705D01*
X108118Y-206830D01*
X108003Y-208000D01*
X108118Y-209170D01*
X108459Y-210295D01*
X109013Y-211332D01*
X109759Y-212241D01*
X110290Y-212677D01*
Y-213323D01*
X109759Y-213759D01*
X109013Y-214668D01*
X108459Y-215705D01*
X108118Y-216830D01*
X108003Y-218000D01*
X108118Y-219170D01*
X108459Y-220295D01*
X109013Y-221332D01*
X109759Y-222241D01*
X110290Y-222677D01*
Y-223323D01*
X109759Y-223759D01*
X109013Y-224668D01*
X108459Y-225705D01*
X108118Y-226830D01*
X108003Y-228000D01*
X108118Y-229170D01*
X108459Y-230295D01*
X109013Y-231332D01*
X109759Y-232241D01*
X110668Y-232987D01*
X111705Y-233541D01*
X112830Y-233882D01*
X114000Y-233997D01*
X115170Y-233882D01*
X116295Y-233541D01*
X117332Y-232987D01*
X118241Y-232241D01*
X118987Y-231332D01*
X119541Y-230295D01*
X119882Y-229170D01*
X119997Y-228000D01*
X119882Y-226830D01*
X119541Y-225705D01*
X118987Y-224668D01*
X118241Y-223759D01*
X117710Y-223323D01*
Y-222677D01*
X118241Y-222241D01*
X118987Y-221332D01*
X119541Y-220295D01*
X119882Y-219170D01*
X119997Y-218000D01*
X119882Y-216830D01*
X119541Y-215705D01*
X118987Y-214668D01*
X118241Y-213759D01*
X117710Y-213323D01*
Y-212677D01*
X118241Y-212241D01*
X118987Y-211332D01*
X119541Y-210295D01*
X119882Y-209170D01*
X119997Y-208000D01*
X119882Y-206830D01*
X119541Y-205705D01*
X118987Y-204668D01*
X118241Y-203759D01*
X117710Y-203323D01*
Y-202677D01*
X118241Y-202241D01*
X118987Y-201332D01*
X119541Y-200295D01*
X119882Y-199170D01*
X119997Y-198000D01*
X119882Y-196830D01*
X119541Y-195705D01*
X118987Y-194668D01*
X118241Y-193759D01*
X117710Y-193323D01*
Y-192677D01*
X118241Y-192241D01*
X118987Y-191332D01*
X119541Y-190295D01*
X119882Y-189170D01*
X119997Y-188000D01*
X119882Y-186830D01*
X119541Y-185705D01*
X118987Y-184668D01*
X118241Y-183759D01*
X117710Y-183323D01*
Y-182677D01*
X118241Y-182241D01*
X118987Y-181332D01*
X119541Y-180295D01*
X119882Y-179170D01*
X119997Y-178000D01*
X119882Y-176830D01*
X119541Y-175705D01*
X118987Y-174668D01*
X118241Y-173759D01*
X117710Y-173323D01*
Y-172677D01*
X118241Y-172241D01*
X118987Y-171332D01*
X119541Y-170295D01*
X119882Y-169170D01*
X119997Y-168000D01*
X119882Y-166830D01*
X119541Y-165705D01*
X118987Y-164668D01*
X118241Y-163759D01*
X117710Y-163323D01*
Y-162677D01*
X118241Y-162241D01*
X118987Y-161332D01*
X119541Y-160295D01*
X119882Y-159170D01*
X119997Y-158000D01*
X119882Y-156830D01*
X119541Y-155705D01*
X118987Y-154668D01*
X118241Y-153759D01*
X117710Y-153323D01*
Y-152677D01*
X118241Y-152241D01*
X118987Y-151332D01*
X119541Y-150295D01*
X119882Y-149170D01*
X119997Y-148000D01*
X119882Y-146830D01*
X119541Y-145705D01*
X118987Y-144668D01*
X118241Y-143759D01*
X117710Y-143323D01*
Y-142677D01*
X118241Y-142241D01*
X118987Y-141332D01*
X119541Y-140295D01*
X119882Y-139170D01*
X119997Y-138000D01*
X119882Y-136830D01*
X119541Y-135705D01*
X118987Y-134668D01*
X118241Y-133759D01*
X117710Y-133323D01*
Y-132677D01*
X118241Y-132241D01*
X118987Y-131332D01*
X119541Y-130295D01*
X119882Y-129170D01*
X119997Y-128000D01*
X119882Y-126830D01*
X119541Y-125705D01*
X118987Y-124668D01*
X118241Y-123759D01*
X117710Y-123323D01*
Y-122677D01*
X118241Y-122241D01*
X118987Y-121332D01*
X119541Y-120295D01*
X119882Y-119170D01*
X119997Y-118000D01*
X119882Y-116830D01*
X119541Y-115705D01*
X118987Y-114668D01*
X118241Y-113759D01*
X117710Y-113323D01*
Y-112677D01*
X118241Y-112241D01*
X118987Y-111332D01*
X119541Y-110295D01*
X119882Y-109170D01*
X119997Y-108000D01*
X119882Y-106830D01*
X119541Y-105705D01*
X118987Y-104668D01*
X118241Y-103759D01*
X117710Y-103323D01*
Y-102677D01*
X118241Y-102241D01*
X118644Y-101749D01*
X119144Y-101757D01*
X119353Y-102029D01*
X120502Y-102910D01*
X121840Y-103465D01*
X123276Y-103654D01*
X124711Y-103465D01*
X126049Y-102910D01*
X127052Y-102141D01*
X127394D01*
X127394Y-102141D01*
X128438Y-102003D01*
X129411Y-101600D01*
X130246Y-100959D01*
X140853Y-90353D01*
X140853Y-90353D01*
X141494Y-89517D01*
X141897Y-88544D01*
X142034Y-87500D01*
Y-37671D01*
X149171Y-30534D01*
X154296D01*
X154552Y-30963D01*
X154430Y-31193D01*
X154087Y-32324D01*
X153971Y-33500D01*
X154087Y-34676D01*
X154430Y-35807D01*
X154987Y-36849D01*
X155737Y-37763D01*
X156650Y-38513D01*
X157693Y-39070D01*
X158410Y-39288D01*
X158436Y-39818D01*
X157983Y-40006D01*
X157147Y-40647D01*
X156506Y-41483D01*
X156103Y-42456D01*
X156031Y-43000D01*
X163969D01*
X163897Y-42456D01*
X163494Y-41483D01*
X162853Y-40647D01*
X162017Y-40006D01*
X161564Y-39818D01*
X161590Y-39288D01*
X162307Y-39070D01*
X163349Y-38513D01*
X164263Y-37763D01*
X165013Y-36849D01*
X165570Y-35807D01*
X165646Y-35558D01*
X166131Y-35437D01*
X180736Y-50042D01*
Y-64170D01*
X180736Y-64170D01*
X180874Y-65214D01*
X181277Y-66188D01*
X181918Y-67023D01*
X191248Y-76353D01*
X191248Y-76353D01*
X192083Y-76994D01*
X193056Y-77397D01*
X194100Y-77535D01*
X194101Y-77535D01*
X195666D01*
X195731Y-77619D01*
X196880Y-78501D01*
X198218Y-79055D01*
X199653Y-79244D01*
X201089Y-79055D01*
X202427Y-78501D01*
X203576Y-77619D01*
X204458Y-76471D01*
X205012Y-75133D01*
X205201Y-73697D01*
X205012Y-72261D01*
X204458Y-70923D01*
X203576Y-69774D01*
X202427Y-68893D01*
X201089Y-68338D01*
X199653Y-68149D01*
X198218Y-68338D01*
X196880Y-68893D01*
X196133Y-69466D01*
X195772D01*
X188805Y-62499D01*
Y-48371D01*
X188668Y-47327D01*
X188265Y-46354D01*
X187624Y-45518D01*
X165752Y-23647D01*
X164917Y-23006D01*
X163944Y-22603D01*
X162899Y-22466D01*
D02*
G37*
G36*
X293189Y-903D02*
X291483Y-1038D01*
X289818Y-1437D01*
X288237Y-2092D01*
X286778Y-2987D01*
X285476Y-4098D01*
X284365Y-5400D01*
X283470Y-6859D01*
X282815Y-8440D01*
X282416Y-10105D01*
X282281Y-11811D01*
X282416Y-13517D01*
X282815Y-15182D01*
X283470Y-16763D01*
X284365Y-18222D01*
X285476Y-19524D01*
X286778Y-20636D01*
X288237Y-21530D01*
X289818Y-22185D01*
X291483Y-22584D01*
X293189Y-22719D01*
X294895Y-22584D01*
X296560Y-22185D01*
X298141Y-21530D01*
X299600Y-20636D01*
X300902Y-19524D01*
X302013Y-18222D01*
X302908Y-16763D01*
X303563Y-15182D01*
X303962Y-13517D01*
X304097Y-11811D01*
X303962Y-10105D01*
X303563Y-8440D01*
X302908Y-6859D01*
X302013Y-5400D01*
X300902Y-4098D01*
X299600Y-2987D01*
X298141Y-2092D01*
X296560Y-1437D01*
X294895Y-1038D01*
X293189Y-903D01*
D02*
G37*
G36*
X269878Y-15852D02*
X267122D01*
X265619Y-16050D01*
X264219Y-16630D01*
X263017Y-17552D01*
X262094Y-18755D01*
X261514Y-20155D01*
X261316Y-21657D01*
X261514Y-23160D01*
X262094Y-24560D01*
X263017Y-25763D01*
X264219Y-26685D01*
X265619Y-27265D01*
X267122Y-27463D01*
X269878D01*
X271380Y-27265D01*
X272781Y-26685D01*
X273983Y-25763D01*
X274906Y-24560D01*
X275486Y-23160D01*
X275683Y-21657D01*
X275486Y-20155D01*
X274906Y-18755D01*
X273983Y-17552D01*
X272781Y-16630D01*
X271380Y-16050D01*
X269878Y-15852D01*
D02*
G37*
G36*
X114000Y-32003D02*
X112830Y-32118D01*
X111705Y-32459D01*
X110668Y-33013D01*
X109759Y-33759D01*
X109709Y-33820D01*
X108727Y-33066D01*
X107388Y-32512D01*
X105953Y-32323D01*
X104517Y-32512D01*
X103179Y-33066D01*
X102030Y-33947D01*
X102016Y-33966D01*
X99500D01*
X98456Y-34103D01*
X97483Y-34506D01*
X96647Y-35147D01*
X81147Y-50647D01*
X80506Y-51483D01*
X80103Y-52456D01*
X79966Y-53500D01*
X79966Y-53500D01*
Y-196829D01*
X72829Y-203965D01*
X67261D01*
X66258Y-203196D01*
X64920Y-202642D01*
X63484Y-202452D01*
X62049Y-202642D01*
X60711Y-203196D01*
X59562Y-204077D01*
X59362Y-204337D01*
X58724Y-204348D01*
X58241Y-203759D01*
X57710Y-203323D01*
Y-202677D01*
X58241Y-202241D01*
X58987Y-201332D01*
X59541Y-200295D01*
X59882Y-199170D01*
X59997Y-198000D01*
X59882Y-196830D01*
X59541Y-195705D01*
X58987Y-194668D01*
X58241Y-193759D01*
X57710Y-193323D01*
Y-192677D01*
X58241Y-192241D01*
X58987Y-191332D01*
X59541Y-190295D01*
X59882Y-189170D01*
X59997Y-188000D01*
X59882Y-186830D01*
X59541Y-185705D01*
X58987Y-184668D01*
X58241Y-183759D01*
X57710Y-183323D01*
Y-182677D01*
X58241Y-182241D01*
X58987Y-181332D01*
X59541Y-180295D01*
X59882Y-179170D01*
X59997Y-178000D01*
X59882Y-176830D01*
X59541Y-175705D01*
X58987Y-174668D01*
X58241Y-173759D01*
X57710Y-173323D01*
Y-172677D01*
X58241Y-172241D01*
X58987Y-171332D01*
X59541Y-170295D01*
X59882Y-169170D01*
X59997Y-168000D01*
X59882Y-166830D01*
X59541Y-165705D01*
X58987Y-164668D01*
X58241Y-163759D01*
X57710Y-163323D01*
Y-162677D01*
X58241Y-162241D01*
X58987Y-161332D01*
X59541Y-160295D01*
X59882Y-159170D01*
X59997Y-158000D01*
X59882Y-156830D01*
X59541Y-155705D01*
X58987Y-154668D01*
X58241Y-153759D01*
X57710Y-153323D01*
Y-152677D01*
X58241Y-152241D01*
X58987Y-151332D01*
X59541Y-150295D01*
X59882Y-149170D01*
X59997Y-148000D01*
X59882Y-146830D01*
X59541Y-145705D01*
X58987Y-144668D01*
X58241Y-143759D01*
X57710Y-143323D01*
Y-142677D01*
X58241Y-142241D01*
X58987Y-141332D01*
X59541Y-140295D01*
X59882Y-139170D01*
X59997Y-138000D01*
X59882Y-136830D01*
X59541Y-135705D01*
X58987Y-134668D01*
X58241Y-133759D01*
X57710Y-133323D01*
Y-132677D01*
X58241Y-132241D01*
X58987Y-131332D01*
X59541Y-130295D01*
X59882Y-129170D01*
X59997Y-128000D01*
X59882Y-126830D01*
X59541Y-125705D01*
X58987Y-124668D01*
X58241Y-123759D01*
X57710Y-123323D01*
Y-122677D01*
X58241Y-122241D01*
X58987Y-121332D01*
X59541Y-120295D01*
X59882Y-119170D01*
X59997Y-118000D01*
X59882Y-116830D01*
X59541Y-115705D01*
X58987Y-114668D01*
X58241Y-113759D01*
X57710Y-113323D01*
Y-112677D01*
X58241Y-112241D01*
X58987Y-111332D01*
X59541Y-110295D01*
X59882Y-109170D01*
X59997Y-108000D01*
X59882Y-106830D01*
X59541Y-105705D01*
X58987Y-104668D01*
X58241Y-103759D01*
X57710Y-103323D01*
Y-102677D01*
X58241Y-102241D01*
X58987Y-101332D01*
X59541Y-100295D01*
X59882Y-99170D01*
X59997Y-98000D01*
X59882Y-96830D01*
X59541Y-95705D01*
X58987Y-94668D01*
X58241Y-93759D01*
X57710Y-93323D01*
Y-92677D01*
X58241Y-92241D01*
X58987Y-91332D01*
X59541Y-90295D01*
X59882Y-89170D01*
X59997Y-88000D01*
X59882Y-86830D01*
X59541Y-85705D01*
X58987Y-84668D01*
X58241Y-83759D01*
X57710Y-83323D01*
Y-82677D01*
X58241Y-82241D01*
X58987Y-81332D01*
X59541Y-80295D01*
X59882Y-79170D01*
X59997Y-78000D01*
X59882Y-76830D01*
X59541Y-75705D01*
X58987Y-74668D01*
X58241Y-73759D01*
X57710Y-73323D01*
Y-72677D01*
X58241Y-72241D01*
X58987Y-71332D01*
X59541Y-70295D01*
X59882Y-69170D01*
X59997Y-68000D01*
X59882Y-66830D01*
X59541Y-65705D01*
X58987Y-64668D01*
X58241Y-63759D01*
X57710Y-63323D01*
Y-62677D01*
X58241Y-62241D01*
X58987Y-61332D01*
X59541Y-60295D01*
X59882Y-59170D01*
X59997Y-58000D01*
X59882Y-56830D01*
X59541Y-55705D01*
X58987Y-54668D01*
X58241Y-53759D01*
X57710Y-53323D01*
Y-52677D01*
X58241Y-52241D01*
X58987Y-51332D01*
X59541Y-50295D01*
X59882Y-49170D01*
X59997Y-48000D01*
X59882Y-46830D01*
X59541Y-45705D01*
X58987Y-44668D01*
X58784Y-44420D01*
X58997Y-43968D01*
X59969D01*
Y-32032D01*
X48031D01*
Y-43968D01*
X49003D01*
X49216Y-44420D01*
X49013Y-44668D01*
X48459Y-45705D01*
X48118Y-46830D01*
X48003Y-48000D01*
X48118Y-49170D01*
X48459Y-50295D01*
X49013Y-51332D01*
X49759Y-52241D01*
X50290Y-52677D01*
Y-53323D01*
X49759Y-53759D01*
X49013Y-54668D01*
X48459Y-55705D01*
X48118Y-56830D01*
X48003Y-58000D01*
X48118Y-59170D01*
X48459Y-60295D01*
X49013Y-61332D01*
X49759Y-62241D01*
X50290Y-62677D01*
Y-63323D01*
X49759Y-63759D01*
X49013Y-64668D01*
X48459Y-65705D01*
X48118Y-66830D01*
X48003Y-68000D01*
X48118Y-69170D01*
X48459Y-70295D01*
X49013Y-71332D01*
X49759Y-72241D01*
X50290Y-72677D01*
Y-73323D01*
X49759Y-73759D01*
X49013Y-74668D01*
X48459Y-75705D01*
X48118Y-76830D01*
X48003Y-78000D01*
X48118Y-79170D01*
X48459Y-80295D01*
X49013Y-81332D01*
X49759Y-82241D01*
X50290Y-82677D01*
Y-83323D01*
X49759Y-83759D01*
X49013Y-84668D01*
X48459Y-85705D01*
X48118Y-86830D01*
X48003Y-88000D01*
X48118Y-89170D01*
X48459Y-90295D01*
X49013Y-91332D01*
X49759Y-92241D01*
X50290Y-92677D01*
Y-93323D01*
X49759Y-93759D01*
X49013Y-94668D01*
X48459Y-95705D01*
X48118Y-96830D01*
X48003Y-98000D01*
X48118Y-99170D01*
X48459Y-100295D01*
X49013Y-101332D01*
X49759Y-102241D01*
X50290Y-102677D01*
Y-103323D01*
X49759Y-103759D01*
X49013Y-104668D01*
X48459Y-105705D01*
X48118Y-106830D01*
X48003Y-108000D01*
X48118Y-109170D01*
X48459Y-110295D01*
X49013Y-111332D01*
X49759Y-112241D01*
X50290Y-112677D01*
Y-113323D01*
X49759Y-113759D01*
X49013Y-114668D01*
X48459Y-115705D01*
X48118Y-116830D01*
X48003Y-118000D01*
X48118Y-119170D01*
X48459Y-120295D01*
X49013Y-121332D01*
X49759Y-122241D01*
X50290Y-122677D01*
Y-123323D01*
X49759Y-123759D01*
X49013Y-124668D01*
X48459Y-125705D01*
X48118Y-126830D01*
X48003Y-128000D01*
X48118Y-129170D01*
X48459Y-130295D01*
X49013Y-131332D01*
X49759Y-132241D01*
X50290Y-132677D01*
Y-133323D01*
X49759Y-133759D01*
X49013Y-134668D01*
X48459Y-135705D01*
X48118Y-136830D01*
X48003Y-138000D01*
X48118Y-139170D01*
X48459Y-140295D01*
X49013Y-141332D01*
X49759Y-142241D01*
X50290Y-142677D01*
Y-143323D01*
X49759Y-143759D01*
X49013Y-144668D01*
X48459Y-145705D01*
X48118Y-146830D01*
X48003Y-148000D01*
X48118Y-149170D01*
X48459Y-150295D01*
X49013Y-151332D01*
X49759Y-152241D01*
X50290Y-152677D01*
Y-153323D01*
X49759Y-153759D01*
X49013Y-154668D01*
X48459Y-155705D01*
X48118Y-156830D01*
X48003Y-158000D01*
X48118Y-159170D01*
X48459Y-160295D01*
X49013Y-161332D01*
X49759Y-162241D01*
X50290Y-162677D01*
Y-163323D01*
X49759Y-163759D01*
X49013Y-164668D01*
X48459Y-165705D01*
X48118Y-166830D01*
X48003Y-168000D01*
X48118Y-169170D01*
X48459Y-170295D01*
X49013Y-171332D01*
X49759Y-172241D01*
X50290Y-172677D01*
Y-173323D01*
X49759Y-173759D01*
X49013Y-174668D01*
X48459Y-175705D01*
X48118Y-176830D01*
X48003Y-178000D01*
X48118Y-179170D01*
X48459Y-180295D01*
X49013Y-181332D01*
X49759Y-182241D01*
X50290Y-182677D01*
Y-183323D01*
X49759Y-183759D01*
X49013Y-184668D01*
X48459Y-185705D01*
X48118Y-186830D01*
X48003Y-188000D01*
X48118Y-189170D01*
X48459Y-190295D01*
X49013Y-191332D01*
X49759Y-192241D01*
X50290Y-192677D01*
Y-193323D01*
X49759Y-193759D01*
X49013Y-194668D01*
X48459Y-195705D01*
X48118Y-196830D01*
X48003Y-198000D01*
X48118Y-199170D01*
X48459Y-200295D01*
X49013Y-201332D01*
X49759Y-202241D01*
X50290Y-202677D01*
Y-203323D01*
X49759Y-203759D01*
X49013Y-204668D01*
X48459Y-205705D01*
X48118Y-206830D01*
X48003Y-208000D01*
X48118Y-209170D01*
X48459Y-210295D01*
X49013Y-211332D01*
X49759Y-212241D01*
X50668Y-212987D01*
X51705Y-213541D01*
X52504Y-213783D01*
X52530Y-214314D01*
X51999Y-214533D01*
X51170Y-215170D01*
X50533Y-215999D01*
X50134Y-216964D01*
X50063Y-217500D01*
X57937D01*
X57866Y-216964D01*
X57467Y-215999D01*
X56830Y-215170D01*
X56001Y-214533D01*
X55470Y-214314D01*
X55496Y-213783D01*
X56295Y-213541D01*
X57332Y-212987D01*
X58241Y-212241D01*
X58724Y-211652D01*
X59362Y-211663D01*
X59562Y-211923D01*
X60711Y-212804D01*
X62049Y-213358D01*
X63484Y-213547D01*
X64920Y-213358D01*
X66258Y-212804D01*
X67261Y-212035D01*
X74500D01*
X74500Y-212035D01*
X75544Y-211897D01*
X76517Y-211494D01*
X77353Y-210853D01*
X86853Y-201353D01*
X87494Y-200517D01*
X87897Y-199544D01*
X88034Y-198500D01*
X88034Y-198500D01*
Y-55171D01*
X101171Y-42035D01*
X102345D01*
X103179Y-42674D01*
X104517Y-43229D01*
X105953Y-43418D01*
X107388Y-43229D01*
X108727Y-42674D01*
X109579Y-42021D01*
X109759Y-42241D01*
X110668Y-42987D01*
X111705Y-43541D01*
X112504Y-43783D01*
X112530Y-44313D01*
X111999Y-44534D01*
X111170Y-45170D01*
X110533Y-45999D01*
X110134Y-46964D01*
X110063Y-47500D01*
X114000D01*
X117937D01*
X117866Y-46964D01*
X117466Y-45999D01*
X116830Y-45170D01*
X116001Y-44534D01*
X115470Y-44313D01*
X115496Y-43783D01*
X116295Y-43541D01*
X117332Y-42987D01*
X118241Y-42241D01*
X118987Y-41332D01*
X119541Y-40295D01*
X119882Y-39170D01*
X119997Y-38000D01*
X119882Y-36830D01*
X119541Y-35705D01*
X118987Y-34668D01*
X118241Y-33759D01*
X117332Y-33013D01*
X116295Y-32459D01*
X115170Y-32118D01*
X114000Y-32003D01*
D02*
G37*
G36*
X19500Y-33079D02*
Y-36500D01*
X22921D01*
X22851Y-35968D01*
X22453Y-35007D01*
X21819Y-34181D01*
X20993Y-33547D01*
X20032Y-33149D01*
X19500Y-33079D01*
D02*
G37*
G36*
X18500D02*
X17968Y-33149D01*
X17007Y-33547D01*
X16181Y-34181D01*
X15547Y-35007D01*
X15149Y-35968D01*
X15079Y-36500D01*
X18500D01*
Y-33079D01*
D02*
G37*
G36*
X269878Y-37554D02*
X269000D01*
Y-40842D01*
X273600D01*
X273537Y-40362D01*
X273159Y-39448D01*
X272557Y-38664D01*
X271772Y-38062D01*
X270858Y-37683D01*
X269878Y-37554D01*
D02*
G37*
G36*
X268000D02*
X267122D01*
X266142Y-37683D01*
X265228Y-38062D01*
X264443Y-38664D01*
X263841Y-39448D01*
X263463Y-40362D01*
X263400Y-40842D01*
X268000D01*
Y-37554D01*
D02*
G37*
G36*
X11811Y-903D02*
X10105Y-1038D01*
X8440Y-1437D01*
X6859Y-2092D01*
X5400Y-2987D01*
X4098Y-4098D01*
X2987Y-5400D01*
X2092Y-6859D01*
X1437Y-8440D01*
X1038Y-10105D01*
X903Y-11811D01*
X1038Y-13517D01*
X1437Y-15182D01*
X2092Y-16763D01*
X2987Y-18222D01*
X4098Y-19524D01*
X5400Y-20636D01*
X6859Y-21530D01*
X8440Y-22185D01*
X10105Y-22584D01*
X11811Y-22719D01*
X13517Y-22584D01*
X15182Y-22185D01*
X16763Y-21530D01*
X18222Y-20636D01*
X19093Y-19892D01*
X19433Y-20259D01*
X16486Y-23206D01*
X15845Y-24042D01*
X15441Y-25015D01*
X15304Y-26059D01*
X15441Y-27103D01*
X15845Y-28076D01*
X16486Y-28912D01*
X17321Y-29553D01*
X18294Y-29956D01*
X19339Y-30094D01*
X20383Y-29956D01*
X21356Y-29553D01*
X22191Y-28912D01*
X28884Y-22220D01*
X114124D01*
X123572Y-31667D01*
Y-37870D01*
X123709Y-38914D01*
X124112Y-39887D01*
X124753Y-40723D01*
X125589Y-41364D01*
X126562Y-41767D01*
X127606Y-41905D01*
X128650Y-41767D01*
X129624Y-41364D01*
X130459Y-40723D01*
X131100Y-39887D01*
X131503Y-38914D01*
X131641Y-37870D01*
Y-29996D01*
X131503Y-28952D01*
X131100Y-27979D01*
X130459Y-27143D01*
X130459Y-27143D01*
X118648Y-15332D01*
X117813Y-14691D01*
X116840Y-14288D01*
X115795Y-14151D01*
X115795Y-14151D01*
X27213D01*
X27213Y-14151D01*
X26168Y-14288D01*
X25195Y-14691D01*
X24360Y-15332D01*
X24360Y-15332D01*
X20259Y-19433D01*
X19892Y-19093D01*
X20636Y-18222D01*
X21530Y-16763D01*
X22185Y-15182D01*
X22584Y-13517D01*
X22719Y-11811D01*
X22584Y-10105D01*
X22185Y-8440D01*
X21530Y-6859D01*
X20636Y-5400D01*
X19524Y-4098D01*
X18222Y-2987D01*
X16763Y-2092D01*
X15182Y-1437D01*
X13517Y-1038D01*
X11811Y-903D01*
D02*
G37*
G36*
X273600Y-41842D02*
X269000D01*
Y-45131D01*
X269878D01*
X270858Y-45002D01*
X271772Y-44623D01*
X272557Y-44021D01*
X273159Y-43237D01*
X273537Y-42323D01*
X273600Y-41842D01*
D02*
G37*
G36*
X268000D02*
X263400D01*
X263463Y-42323D01*
X263841Y-43237D01*
X264443Y-44021D01*
X265228Y-44623D01*
X266142Y-45002D01*
X267122Y-45131D01*
X268000D01*
Y-41842D01*
D02*
G37*
G36*
X163969Y-44000D02*
X156031D01*
X156103Y-44544D01*
X156506Y-45517D01*
X157147Y-46353D01*
X157983Y-46994D01*
X158436Y-47182D01*
X158410Y-47712D01*
X157693Y-47930D01*
X156650Y-48487D01*
X155737Y-49237D01*
X154987Y-50151D01*
X154430Y-51193D01*
X154087Y-52324D01*
X153971Y-53500D01*
X154087Y-54676D01*
X154430Y-55807D01*
X154987Y-56849D01*
X155737Y-57763D01*
X156650Y-58513D01*
X157693Y-59070D01*
X158824Y-59413D01*
X160000Y-59529D01*
X161176Y-59413D01*
X162307Y-59070D01*
X163349Y-58513D01*
X164263Y-57763D01*
X165013Y-56849D01*
X165570Y-55807D01*
X165913Y-54676D01*
X166029Y-53500D01*
X165913Y-52324D01*
X165570Y-51193D01*
X165013Y-50151D01*
X164263Y-49237D01*
X163349Y-48487D01*
X162307Y-47930D01*
X161590Y-47712D01*
X161564Y-47182D01*
X162017Y-46994D01*
X162853Y-46353D01*
X163494Y-45517D01*
X163897Y-44544D01*
X163969Y-44000D01*
D02*
G37*
G36*
X22921Y-37500D02*
X19000D01*
X15079D01*
X15149Y-38032D01*
X15547Y-38993D01*
X16181Y-39819D01*
X17007Y-40453D01*
X17576Y-40689D01*
X17550Y-41219D01*
X16711Y-41474D01*
X15677Y-42026D01*
X14770Y-42770D01*
X14027Y-43677D01*
X13474Y-44711D01*
X13133Y-45833D01*
X13018Y-47000D01*
X13133Y-48167D01*
X13474Y-49289D01*
X14027Y-50323D01*
X14250Y-50595D01*
X14036Y-51047D01*
X13047D01*
Y-62953D01*
X24953D01*
Y-51047D01*
X23964D01*
X23750Y-50595D01*
X23974Y-50323D01*
X24526Y-49289D01*
X24867Y-48167D01*
X24982Y-47000D01*
X24867Y-45833D01*
X24526Y-44711D01*
X23974Y-43677D01*
X23230Y-42770D01*
X22323Y-42026D01*
X21289Y-41474D01*
X20450Y-41219D01*
X20424Y-40689D01*
X20993Y-40453D01*
X21819Y-39819D01*
X22453Y-38993D01*
X22851Y-38032D01*
X22921Y-37500D01*
D02*
G37*
G36*
X229953Y-27547D02*
X218047D01*
Y-39453D01*
X219036D01*
X219250Y-39905D01*
X219026Y-40177D01*
X218474Y-41211D01*
X218133Y-42333D01*
X218018Y-43500D01*
X218133Y-44667D01*
X218474Y-45789D01*
X219026Y-46823D01*
X219770Y-47730D01*
X220315Y-48177D01*
Y-48823D01*
X219770Y-49270D01*
X219026Y-50177D01*
X218474Y-51211D01*
X218133Y-52333D01*
X218018Y-53500D01*
X218133Y-54667D01*
X218474Y-55789D01*
X219026Y-56823D01*
X219770Y-57730D01*
X220677Y-58473D01*
X221711Y-59026D01*
X222550Y-59281D01*
X222576Y-59811D01*
X222007Y-60047D01*
X221181Y-60681D01*
X220547Y-61507D01*
X220149Y-62468D01*
X220079Y-63000D01*
X224000D01*
X227921D01*
X227851Y-62468D01*
X227453Y-61507D01*
X226819Y-60681D01*
X225993Y-60047D01*
X225424Y-59811D01*
X225450Y-59281D01*
X226289Y-59026D01*
X227323Y-58473D01*
X228230Y-57730D01*
X228974Y-56823D01*
X229526Y-55789D01*
X229867Y-54667D01*
X229981Y-53500D01*
X229867Y-52333D01*
X229526Y-51211D01*
X228974Y-50177D01*
X228230Y-49270D01*
X227685Y-48823D01*
Y-48177D01*
X228230Y-47730D01*
X228974Y-46823D01*
X229526Y-45789D01*
X229867Y-44667D01*
X229981Y-43500D01*
X229867Y-42333D01*
X229526Y-41211D01*
X228974Y-40177D01*
X228750Y-39905D01*
X228964Y-39453D01*
X229953D01*
Y-27547D01*
D02*
G37*
G36*
X269878Y-62869D02*
X269000D01*
Y-66157D01*
X273600D01*
X273537Y-65677D01*
X273159Y-64763D01*
X272557Y-63979D01*
X271772Y-63377D01*
X270858Y-62998D01*
X269878Y-62869D01*
D02*
G37*
G36*
X268000D02*
X267122D01*
X266142Y-62998D01*
X265228Y-63377D01*
X264443Y-63979D01*
X263841Y-64763D01*
X263463Y-65677D01*
X263400Y-66157D01*
X268000D01*
Y-62869D01*
D02*
G37*
G36*
X273600Y-67157D02*
X269000D01*
Y-70446D01*
X269878D01*
X270858Y-70317D01*
X271772Y-69938D01*
X272557Y-69336D01*
X273159Y-68552D01*
X273537Y-67638D01*
X273600Y-67157D01*
D02*
G37*
G36*
X268000D02*
X263400D01*
X263463Y-67638D01*
X263841Y-68552D01*
X264443Y-69336D01*
X265228Y-69938D01*
X266142Y-70317D01*
X267122Y-70446D01*
X268000D01*
Y-67157D01*
D02*
G37*
G36*
X176500Y-76780D02*
Y-82260D01*
X181980D01*
X181913Y-81584D01*
X181570Y-80453D01*
X181013Y-79410D01*
X180263Y-78497D01*
X179350Y-77747D01*
X178307Y-77190D01*
X177176Y-76847D01*
X176500Y-76780D01*
D02*
G37*
G36*
X175500D02*
X174824Y-76847D01*
X173693Y-77190D01*
X172650Y-77747D01*
X171737Y-78497D01*
X170987Y-79410D01*
X170430Y-80453D01*
X170087Y-81584D01*
X170020Y-82260D01*
X175500D01*
Y-76780D01*
D02*
G37*
G36*
X181980Y-83260D02*
X176500D01*
Y-88740D01*
X177176Y-88673D01*
X178307Y-88330D01*
X179350Y-87773D01*
X180263Y-87023D01*
X181013Y-86109D01*
X181570Y-85067D01*
X181913Y-83936D01*
X181980Y-83260D01*
D02*
G37*
G36*
X175500D02*
X170020D01*
X170087Y-83936D01*
X170430Y-85067D01*
X170987Y-86109D01*
X171737Y-87023D01*
X172650Y-87773D01*
X173693Y-88330D01*
X174824Y-88673D01*
X175500Y-88740D01*
Y-83260D01*
D02*
G37*
G36*
X227921Y-64000D02*
X224000D01*
X220079D01*
X220149Y-64532D01*
X220547Y-65493D01*
X221181Y-66319D01*
X222007Y-66953D01*
X222576Y-67189D01*
X222550Y-67719D01*
X221711Y-67974D01*
X220677Y-68527D01*
X219770Y-69270D01*
X219026Y-70177D01*
X218474Y-71211D01*
X218133Y-72333D01*
X218018Y-73500D01*
X218133Y-74667D01*
X218474Y-75789D01*
X219026Y-76823D01*
X219770Y-77730D01*
X220315Y-78177D01*
Y-78823D01*
X219770Y-79270D01*
X219026Y-80177D01*
X218474Y-81211D01*
X218133Y-82333D01*
X218018Y-83500D01*
X218133Y-84667D01*
X218474Y-85789D01*
X219026Y-86823D01*
X219770Y-87730D01*
X220677Y-88473D01*
X221711Y-89026D01*
X222833Y-89367D01*
X224000Y-89482D01*
X225167Y-89367D01*
X226289Y-89026D01*
X227323Y-88473D01*
X228230Y-87730D01*
X228974Y-86823D01*
X229526Y-85789D01*
X229867Y-84667D01*
X229981Y-83500D01*
X229867Y-82333D01*
X229526Y-81211D01*
X228974Y-80177D01*
X228230Y-79270D01*
X227685Y-78823D01*
Y-78177D01*
X228230Y-77730D01*
X228974Y-76823D01*
X229526Y-75789D01*
X229867Y-74667D01*
X229981Y-73500D01*
X229867Y-72333D01*
X229526Y-71211D01*
X228974Y-70177D01*
X228230Y-69270D01*
X227323Y-68527D01*
X226289Y-67974D01*
X225450Y-67719D01*
X225424Y-67189D01*
X225993Y-66953D01*
X226819Y-66319D01*
X227453Y-65493D01*
X227851Y-64532D01*
X227921Y-64000D01*
D02*
G37*
G36*
X244142Y-15787D02*
X242706Y-15976D01*
X241368Y-16530D01*
X240219Y-17412D01*
X239337Y-18561D01*
X238783Y-19899D01*
X238594Y-21335D01*
X238783Y-22770D01*
X239337Y-24108D01*
X239966Y-24927D01*
Y-77229D01*
X226929Y-90266D01*
X218000D01*
X218000Y-90266D01*
X216956Y-90403D01*
X215983Y-90806D01*
X215147Y-91447D01*
X215147Y-91447D01*
X204447Y-102147D01*
X203806Y-102983D01*
X203403Y-103956D01*
X203266Y-105000D01*
X203266Y-105000D01*
Y-182096D01*
X190502Y-194859D01*
X189034D01*
Y-119400D01*
X189034Y-119400D01*
X188897Y-118356D01*
X188494Y-117383D01*
X187853Y-116547D01*
X164034Y-92729D01*
Y-74968D01*
X164694Y-74108D01*
X165248Y-72770D01*
X165437Y-71335D01*
X165248Y-69899D01*
X164694Y-68561D01*
X163812Y-67412D01*
X162663Y-66530D01*
X161326Y-65976D01*
X159890Y-65787D01*
X158454Y-65976D01*
X157116Y-66530D01*
X155967Y-67412D01*
X155086Y-68561D01*
X154531Y-69899D01*
X154342Y-71335D01*
X154531Y-72770D01*
X155086Y-74108D01*
X155965Y-75255D01*
Y-94400D01*
X155965Y-94400D01*
X156103Y-95444D01*
X156506Y-96417D01*
X157147Y-97253D01*
X180965Y-121071D01*
Y-153500D01*
X168000D01*
Y-169500D01*
X180965D01*
Y-194859D01*
X171541D01*
X170537Y-194089D01*
X169200Y-193535D01*
X167764Y-193346D01*
X166328Y-193535D01*
X164990Y-194089D01*
X163841Y-194971D01*
X162960Y-196120D01*
X162405Y-197458D01*
X162216Y-198894D01*
X162405Y-200329D01*
X162960Y-201667D01*
X163841Y-202816D01*
X164990Y-203698D01*
X166328Y-204252D01*
X167764Y-204441D01*
X169200Y-204252D01*
X170537Y-203698D01*
X171541Y-202928D01*
X184693D01*
X184693Y-202928D01*
X184693Y-202928D01*
X192173D01*
X192173Y-202928D01*
X193217Y-202791D01*
X194191Y-202388D01*
X195026Y-201747D01*
X210153Y-186620D01*
X210153Y-186620D01*
X210794Y-185784D01*
X211197Y-184811D01*
X211334Y-183767D01*
Y-106671D01*
X219671Y-98334D01*
X228600D01*
X228600Y-98334D01*
X229644Y-98197D01*
X230617Y-97794D01*
X231453Y-97153D01*
X246853Y-81753D01*
X247494Y-80917D01*
X247897Y-79944D01*
X248035Y-78900D01*
X248035Y-78900D01*
Y-25280D01*
X248064Y-25257D01*
X248946Y-24108D01*
X249500Y-22770D01*
X249689Y-21335D01*
X249500Y-19899D01*
X248946Y-18561D01*
X248064Y-17412D01*
X246916Y-16530D01*
X245578Y-15976D01*
X244142Y-15787D01*
D02*
G37*
G36*
X269878Y-80537D02*
X267122D01*
X265619Y-80735D01*
X264219Y-81315D01*
X263017Y-82237D01*
X262094Y-83440D01*
X261514Y-84840D01*
X261316Y-86342D01*
X261514Y-87845D01*
X262094Y-89245D01*
X263017Y-90448D01*
X264219Y-91370D01*
X265619Y-91950D01*
X267122Y-92148D01*
X269878D01*
X271380Y-91950D01*
X272781Y-91370D01*
X273983Y-90448D01*
X274906Y-89245D01*
X275486Y-87845D01*
X275683Y-86342D01*
X275486Y-84840D01*
X274906Y-83440D01*
X273983Y-82237D01*
X272781Y-81315D01*
X271380Y-80735D01*
X269878Y-80537D01*
D02*
G37*
G36*
X250437Y-98972D02*
X236563D01*
Y-112846D01*
X250437D01*
Y-98972D01*
D02*
G37*
G36*
X227500Y-98939D02*
X226140Y-99073D01*
X224833Y-99469D01*
X223627Y-100114D01*
X222571Y-100980D01*
X221704Y-102037D01*
X221060Y-103242D01*
X220663Y-104550D01*
X220529Y-105909D01*
X220663Y-107269D01*
X221060Y-108577D01*
X221704Y-109782D01*
X222571Y-110838D01*
X223627Y-111705D01*
X224833Y-112349D01*
X226140Y-112746D01*
X227500Y-112880D01*
X228860Y-112746D01*
X230168Y-112349D01*
X231373Y-111705D01*
X232429Y-110838D01*
X233296Y-109782D01*
X233940Y-108577D01*
X234337Y-107269D01*
X234471Y-105909D01*
X234337Y-104550D01*
X233940Y-103242D01*
X233296Y-102037D01*
X232429Y-100980D01*
X231373Y-100114D01*
X230168Y-99469D01*
X228860Y-99073D01*
X227500Y-98939D01*
D02*
G37*
G36*
X278689Y-102103D02*
X275736D01*
X274473Y-102227D01*
X273258Y-102596D01*
X272138Y-103194D01*
X271157Y-103999D01*
X270352Y-104981D01*
X269753Y-106100D01*
X269385Y-107315D01*
X269260Y-108579D01*
X269385Y-109842D01*
X269753Y-111057D01*
X270352Y-112177D01*
X271157Y-113158D01*
X271365Y-113329D01*
Y-113829D01*
X271157Y-113999D01*
X270352Y-114981D01*
X269753Y-116101D01*
X269385Y-117315D01*
X269260Y-118579D01*
X269385Y-119842D01*
X269753Y-121057D01*
X270352Y-122177D01*
X271157Y-123158D01*
X272138Y-123963D01*
X273258Y-124562D01*
X274473Y-124930D01*
X275736Y-125055D01*
X278689D01*
X279952Y-124930D01*
X281167Y-124562D01*
X282287Y-123963D01*
X283268Y-123158D01*
X284074Y-122177D01*
X284672Y-121057D01*
X285041Y-119842D01*
X285165Y-118579D01*
X285041Y-117315D01*
X284672Y-116101D01*
X284074Y-114981D01*
X283268Y-113999D01*
X283060Y-113829D01*
Y-113329D01*
X283268Y-113158D01*
X284074Y-112177D01*
X284672Y-111057D01*
X285041Y-109842D01*
X285165Y-108579D01*
X285041Y-107315D01*
X284672Y-106100D01*
X284074Y-104981D01*
X283268Y-103999D01*
X282287Y-103194D01*
X281167Y-102596D01*
X279952Y-102227D01*
X278689Y-102103D01*
D02*
G37*
G36*
X22953Y-125500D02*
X19500D01*
Y-128953D01*
X22953D01*
Y-125500D01*
D02*
G37*
G36*
X18500D02*
X15047D01*
Y-128953D01*
X18500D01*
Y-125500D01*
D02*
G37*
G36*
X19500Y-138079D02*
Y-141500D01*
X22921D01*
X22851Y-140968D01*
X22453Y-140007D01*
X21819Y-139181D01*
X20993Y-138547D01*
X20032Y-138149D01*
X19500Y-138079D01*
D02*
G37*
G36*
X18500D02*
X17968Y-138149D01*
X17007Y-138547D01*
X16181Y-139181D01*
X15547Y-140007D01*
X15149Y-140968D01*
X15079Y-141500D01*
X18500D01*
Y-138079D01*
D02*
G37*
G36*
X234437Y-140154D02*
X220563D01*
Y-154028D01*
X234437D01*
Y-140154D01*
D02*
G37*
G36*
X243500Y-140120D02*
X242140Y-140254D01*
X240832Y-140651D01*
X239627Y-141295D01*
X238571Y-142162D01*
X237704Y-143218D01*
X237060Y-144423D01*
X236663Y-145731D01*
X236529Y-147091D01*
X236663Y-148451D01*
X237060Y-149758D01*
X237704Y-150963D01*
X238571Y-152020D01*
X239627Y-152886D01*
X240832Y-153531D01*
X242140Y-153927D01*
X243500Y-154061D01*
X244860Y-153927D01*
X246167Y-153531D01*
X247373Y-152886D01*
X248429Y-152020D01*
X249296Y-150963D01*
X249940Y-149758D01*
X250337Y-148451D01*
X250471Y-147091D01*
X250337Y-145731D01*
X249940Y-144423D01*
X249296Y-143218D01*
X248429Y-142162D01*
X247373Y-141295D01*
X246167Y-140651D01*
X244860Y-140254D01*
X243500Y-140120D01*
D02*
G37*
G36*
X57937Y-218500D02*
X54500D01*
Y-221937D01*
X55036Y-221866D01*
X56001Y-221466D01*
X56830Y-220830D01*
X57467Y-220001D01*
X57866Y-219036D01*
X57937Y-218500D01*
D02*
G37*
G36*
X53500D02*
X50063D01*
X50134Y-219036D01*
X50533Y-220001D01*
X51170Y-220830D01*
X51999Y-221466D01*
X52964Y-221866D01*
X53500Y-221937D01*
Y-218500D01*
D02*
G37*
G36*
X54500Y-224063D02*
Y-227500D01*
X57937D01*
X57866Y-226964D01*
X57467Y-225999D01*
X56830Y-225170D01*
X56001Y-224534D01*
X55036Y-224134D01*
X54500Y-224063D01*
D02*
G37*
G36*
X53500D02*
X52964Y-224134D01*
X51999Y-224534D01*
X51170Y-225170D01*
X50533Y-225999D01*
X50134Y-226964D01*
X50063Y-227500D01*
X53500D01*
Y-224063D01*
D02*
G37*
G36*
X155378Y-174624D02*
X153672Y-174758D01*
X152007Y-175158D01*
X150426Y-175813D01*
X148967Y-176707D01*
X147665Y-177819D01*
X146554Y-179120D01*
X145659Y-180579D01*
X145004Y-182161D01*
X144605Y-183825D01*
X144470Y-185531D01*
X144605Y-187238D01*
X145004Y-188902D01*
X145659Y-190483D01*
X146554Y-191943D01*
X147665Y-193244D01*
X148967Y-194356D01*
X150189Y-195105D01*
X150240Y-195405D01*
X149669Y-196474D01*
X149317Y-197633D01*
X149199Y-198839D01*
X149317Y-200044D01*
X149669Y-201203D01*
X150240Y-202272D01*
X151008Y-203208D01*
X151472Y-203589D01*
Y-204089D01*
X151008Y-204469D01*
X150240Y-205405D01*
X149669Y-206474D01*
X149317Y-207633D01*
X149199Y-208839D01*
X149317Y-210044D01*
X149669Y-211203D01*
X150240Y-212272D01*
X151008Y-213208D01*
X151472Y-213589D01*
Y-214089D01*
X151008Y-214469D01*
X150240Y-215406D01*
X149669Y-216474D01*
X149317Y-217633D01*
X149199Y-218839D01*
X149317Y-220044D01*
X149669Y-221203D01*
X150240Y-222272D01*
X151008Y-223208D01*
X151945Y-223976D01*
X153013Y-224548D01*
X153389Y-224661D01*
X153413Y-225161D01*
X153285Y-225214D01*
X152418Y-225879D01*
X151753Y-226746D01*
X151335Y-227755D01*
X151258Y-228339D01*
X159497D01*
X159421Y-227755D01*
X159003Y-226746D01*
X158337Y-225879D01*
X157471Y-225214D01*
X157343Y-225161D01*
X157367Y-224661D01*
X157743Y-224548D01*
X158811Y-223976D01*
X159747Y-223208D01*
X160516Y-222272D01*
X161087Y-221203D01*
X161439Y-220044D01*
X161557Y-218839D01*
X161439Y-217633D01*
X161087Y-216474D01*
X160516Y-215406D01*
X159747Y-214469D01*
X159284Y-214089D01*
Y-213589D01*
X159747Y-213208D01*
X160516Y-212272D01*
X161087Y-211203D01*
X161439Y-210044D01*
X161557Y-208839D01*
X161439Y-207633D01*
X161087Y-206474D01*
X160516Y-205405D01*
X159747Y-204469D01*
X159284Y-204089D01*
Y-203589D01*
X159747Y-203208D01*
X160516Y-202272D01*
X161087Y-201203D01*
X161439Y-200044D01*
X161557Y-198839D01*
X161439Y-197633D01*
X161087Y-196474D01*
X160516Y-195405D01*
X160566Y-195105D01*
X161789Y-194356D01*
X163091Y-193244D01*
X164202Y-191943D01*
X165097Y-190483D01*
X165752Y-188902D01*
X166151Y-187238D01*
X166286Y-185531D01*
X166151Y-183825D01*
X165752Y-182161D01*
X165097Y-180579D01*
X164202Y-179120D01*
X163091Y-177819D01*
X161789Y-176707D01*
X160330Y-175813D01*
X158749Y-175158D01*
X157084Y-174758D01*
X155378Y-174624D01*
D02*
G37*
G36*
X57937Y-228500D02*
X54500D01*
Y-231937D01*
X55036Y-231866D01*
X56001Y-231467D01*
X56830Y-230830D01*
X57467Y-230001D01*
X57866Y-229036D01*
X57937Y-228500D01*
D02*
G37*
G36*
X53500D02*
X50063D01*
X50134Y-229036D01*
X50533Y-230001D01*
X51170Y-230830D01*
X51999Y-231467D01*
X52964Y-231866D01*
X53500Y-231937D01*
Y-228500D01*
D02*
G37*
G36*
X254000Y-181321D02*
X252795Y-181439D01*
X251635Y-181791D01*
X250567Y-182362D01*
X249630Y-183131D01*
X248862Y-184067D01*
X248291Y-185135D01*
X247939Y-186294D01*
X247821Y-187500D01*
X247939Y-188706D01*
X248291Y-189865D01*
X248862Y-190933D01*
X249630Y-191869D01*
X250094Y-192250D01*
Y-192750D01*
X249630Y-193131D01*
X248862Y-194067D01*
X248291Y-195135D01*
X247939Y-196294D01*
X247821Y-197500D01*
X247939Y-198705D01*
X248291Y-199865D01*
X248862Y-200933D01*
X249630Y-201870D01*
X250094Y-202250D01*
Y-202750D01*
X249630Y-203131D01*
X248862Y-204067D01*
X248291Y-205135D01*
X247939Y-206294D01*
X247821Y-207500D01*
X247939Y-208705D01*
X248291Y-209865D01*
X248862Y-210933D01*
X249630Y-211870D01*
X250094Y-212250D01*
Y-212750D01*
X249630Y-213130D01*
X248862Y-214067D01*
X248291Y-215135D01*
X247939Y-216295D01*
X247821Y-217500D01*
X247939Y-218706D01*
X248291Y-219865D01*
X248862Y-220933D01*
X249630Y-221869D01*
X250094Y-222250D01*
Y-222750D01*
X249630Y-223130D01*
X248862Y-224067D01*
X248291Y-225135D01*
X247939Y-226294D01*
X247821Y-227500D01*
X247939Y-228706D01*
X248291Y-229865D01*
X248862Y-230933D01*
X249630Y-231870D01*
X250094Y-232250D01*
Y-232750D01*
X249630Y-233131D01*
X248862Y-234067D01*
X248291Y-235135D01*
X247939Y-236295D01*
X247821Y-237500D01*
X247939Y-238705D01*
X248291Y-239865D01*
X248862Y-240933D01*
X249630Y-241869D01*
X250567Y-242638D01*
X251635Y-243209D01*
X252795Y-243561D01*
X254000Y-243679D01*
X255205Y-243561D01*
X256365Y-243209D01*
X257433Y-242638D01*
X258369Y-241869D01*
X259138Y-240933D01*
X259709Y-239865D01*
X260061Y-238705D01*
X260179Y-237500D01*
X260061Y-236295D01*
X259709Y-235135D01*
X259138Y-234067D01*
X258369Y-233131D01*
X257906Y-232750D01*
Y-232250D01*
X258369Y-231870D01*
X259138Y-230933D01*
X259709Y-229865D01*
X260061Y-228706D01*
X260179Y-227500D01*
X260061Y-226294D01*
X259709Y-225135D01*
X259138Y-224067D01*
X258369Y-223130D01*
X257906Y-222750D01*
Y-222250D01*
X258369Y-221869D01*
X259138Y-220933D01*
X259709Y-219865D01*
X260061Y-218706D01*
X260179Y-217500D01*
X260061Y-216295D01*
X259709Y-215135D01*
X259138Y-214067D01*
X258369Y-213130D01*
X257906Y-212750D01*
Y-212250D01*
X258369Y-211870D01*
X259138Y-210933D01*
X259709Y-209865D01*
X260061Y-208705D01*
X260179Y-207500D01*
X260061Y-206294D01*
X259709Y-205135D01*
X259138Y-204067D01*
X258369Y-203131D01*
X257906Y-202750D01*
Y-202250D01*
X258369Y-201870D01*
X259138Y-200933D01*
X259709Y-199865D01*
X260061Y-198705D01*
X260179Y-197500D01*
X260061Y-196294D01*
X259709Y-195135D01*
X259138Y-194067D01*
X258369Y-193131D01*
X257906Y-192750D01*
Y-192250D01*
X258369Y-191869D01*
X259138Y-190933D01*
X259709Y-189865D01*
X260061Y-188706D01*
X260179Y-187500D01*
X260061Y-186294D01*
X259709Y-185135D01*
X259138Y-184067D01*
X258369Y-183131D01*
X257433Y-182362D01*
X256365Y-181791D01*
X255205Y-181439D01*
X254000Y-181321D01*
D02*
G37*
G36*
X159497Y-229339D02*
X151258D01*
X151335Y-229922D01*
X151753Y-230931D01*
X152310Y-231657D01*
X152191Y-232200D01*
X152007Y-232244D01*
X150426Y-232899D01*
X148967Y-233794D01*
X147665Y-234905D01*
X146554Y-236207D01*
X145659Y-237666D01*
X145004Y-239247D01*
X144605Y-240912D01*
X144470Y-242618D01*
X144605Y-244324D01*
X145004Y-245989D01*
X145659Y-247570D01*
X146554Y-249029D01*
X147665Y-250331D01*
X148967Y-251443D01*
X150426Y-252337D01*
X152007Y-252992D01*
X153672Y-253391D01*
X155378Y-253526D01*
X157084Y-253391D01*
X158749Y-252992D01*
X160330Y-252337D01*
X161789Y-251443D01*
X163091Y-250331D01*
X164202Y-249029D01*
X165097Y-247570D01*
X165752Y-245989D01*
X166151Y-244324D01*
X166286Y-242618D01*
X166151Y-240912D01*
X165752Y-239247D01*
X165097Y-237666D01*
X164202Y-236207D01*
X163091Y-234905D01*
X161789Y-233794D01*
X160330Y-232899D01*
X158749Y-232244D01*
X158565Y-232200D01*
X158446Y-231657D01*
X159003Y-230931D01*
X159421Y-229922D01*
X159497Y-229339D01*
D02*
G37*
G36*
X294235Y-201547D02*
X282330D01*
Y-213453D01*
X283319D01*
X283533Y-213905D01*
X283309Y-214177D01*
X282756Y-215211D01*
X282416Y-216333D01*
X282301Y-217500D01*
X282416Y-218667D01*
X282756Y-219789D01*
X283309Y-220823D01*
X284053Y-221730D01*
X284598Y-222177D01*
Y-222823D01*
X284053Y-223270D01*
X283309Y-224177D01*
X282756Y-225211D01*
X282416Y-226333D01*
X282301Y-227500D01*
X282416Y-228667D01*
X282756Y-229789D01*
X283309Y-230823D01*
X284053Y-231730D01*
X284598Y-232177D01*
Y-232823D01*
X284053Y-233270D01*
X283309Y-234177D01*
X282756Y-235211D01*
X282416Y-236333D01*
X282301Y-237500D01*
X282416Y-238667D01*
X282756Y-239789D01*
X283309Y-240823D01*
X284053Y-241730D01*
X284960Y-242474D01*
X285994Y-243026D01*
X286793Y-243269D01*
X286863Y-243812D01*
X286778Y-243864D01*
X285476Y-244976D01*
X284365Y-246278D01*
X283470Y-247737D01*
X282815Y-249318D01*
X282416Y-250983D01*
X282281Y-252689D01*
X282416Y-254395D01*
X282815Y-256060D01*
X283470Y-257641D01*
X284365Y-259100D01*
X285476Y-260402D01*
X286778Y-261513D01*
X288237Y-262408D01*
X289818Y-263063D01*
X291483Y-263462D01*
X293189Y-263597D01*
X294895Y-263462D01*
X296560Y-263063D01*
X298141Y-262408D01*
X299600Y-261513D01*
X300902Y-260402D01*
X302013Y-259100D01*
X302908Y-257641D01*
X303563Y-256060D01*
X303962Y-254395D01*
X304097Y-252689D01*
X303962Y-250983D01*
X303563Y-249318D01*
X302908Y-247737D01*
X302013Y-246278D01*
X300902Y-244976D01*
X299600Y-243864D01*
X298141Y-242970D01*
X296560Y-242315D01*
X294895Y-241916D01*
X293189Y-241781D01*
X293112Y-241787D01*
X292860Y-241306D01*
X293256Y-240823D01*
X293809Y-239789D01*
X294149Y-238667D01*
X294264Y-237500D01*
X294149Y-236333D01*
X293809Y-235211D01*
X293256Y-234177D01*
X292512Y-233270D01*
X291968Y-232823D01*
Y-232177D01*
X292512Y-231730D01*
X293256Y-230823D01*
X293809Y-229789D01*
X294149Y-228667D01*
X294264Y-227500D01*
X294149Y-226333D01*
X293809Y-225211D01*
X293256Y-224177D01*
X292512Y-223270D01*
X291968Y-222823D01*
Y-222177D01*
X292512Y-221730D01*
X293256Y-220823D01*
X293809Y-219789D01*
X294149Y-218667D01*
X294264Y-217500D01*
X294149Y-216333D01*
X293809Y-215211D01*
X293256Y-214177D01*
X293033Y-213905D01*
X293247Y-213453D01*
X294235D01*
Y-201547D01*
D02*
G37*
%LPD*%
D14*
X106739Y-195261D02*
Y-187871D01*
X61374Y-240626D02*
X106739Y-195261D01*
Y-187871D02*
X107527D01*
X107527Y-187870D01*
X107921Y-187476D01*
X9874Y-240626D02*
X61374D01*
X7527Y-238280D02*
X9874Y-240626D01*
X7527Y-238280D02*
Y-227437D01*
X244000Y-21476D02*
X244142Y-21335D01*
X199457Y-73500D02*
X199653Y-73697D01*
X194100Y-73500D02*
X199457D01*
X184771Y-64170D02*
X194100Y-73500D01*
X184771Y-64170D02*
Y-48371D01*
X162899Y-26500D02*
X184771Y-48371D01*
X147500Y-26500D02*
X162899D01*
X138000Y-36000D02*
X147500Y-26500D01*
X160000Y-94400D02*
Y-71445D01*
X159890Y-71335D02*
X160000Y-71445D01*
X207300Y-183767D02*
Y-105000D01*
X192173Y-198894D02*
X207300Y-183767D01*
X184693Y-198894D02*
X192173D01*
X167764D02*
X184693D01*
X185000Y-198587D01*
Y-119400D01*
X123276Y-98106D02*
X127394D01*
X138000Y-87500D01*
X35087Y-228815D02*
Y-146138D01*
X7527Y-227437D02*
X11465Y-223500D01*
Y-222909D01*
X33118Y-232752D02*
Y-230784D01*
X35087Y-228815D01*
X9000Y-190105D02*
Y-152043D01*
Y-190105D02*
X11465Y-192570D01*
Y-193382D02*
Y-192570D01*
X9000Y-78548D02*
X11465Y-76083D01*
Y-75272D01*
X99500Y-38000D02*
X105823D01*
X105953Y-37870D01*
X63484Y-208000D02*
X74500D01*
X127606Y-37870D02*
Y-29996D01*
X115795Y-18185D02*
X127606Y-29996D01*
X27213Y-18185D02*
X115795D01*
X19339Y-26059D02*
X27213Y-18185D01*
X138000Y-87500D02*
Y-36000D01*
X84000Y-53500D02*
X99500Y-38000D01*
X84000Y-198500D02*
Y-53500D01*
X74500Y-208000D02*
X84000Y-198500D01*
X9000Y-151500D02*
Y-78548D01*
X228600Y-94300D02*
X244000Y-78900D01*
Y-21476D01*
X218000Y-94300D02*
X228600D01*
X207300Y-105000D02*
X218000Y-94300D01*
X160000Y-94400D02*
X185000Y-119400D01*
D31*
X268500Y-21657D02*
D03*
Y-41342D02*
D03*
Y-86342D02*
D03*
Y-66657D02*
D03*
D32*
X54000Y-38000D02*
D03*
D33*
Y-48000D02*
D03*
Y-58000D02*
D03*
Y-68000D02*
D03*
Y-78000D02*
D03*
Y-88000D02*
D03*
Y-98000D02*
D03*
Y-108000D02*
D03*
Y-118000D02*
D03*
Y-128000D02*
D03*
Y-138000D02*
D03*
Y-148000D02*
D03*
Y-158000D02*
D03*
Y-168000D02*
D03*
Y-178000D02*
D03*
Y-188000D02*
D03*
Y-198000D02*
D03*
Y-208000D02*
D03*
Y-218000D02*
D03*
Y-228000D02*
D03*
X114000D02*
D03*
Y-218000D02*
D03*
Y-208000D02*
D03*
Y-198000D02*
D03*
Y-188000D02*
D03*
Y-178000D02*
D03*
Y-168000D02*
D03*
Y-158000D02*
D03*
Y-148000D02*
D03*
Y-138000D02*
D03*
Y-128000D02*
D03*
Y-118000D02*
D03*
Y-108000D02*
D03*
Y-98000D02*
D03*
Y-88000D02*
D03*
Y-78000D02*
D03*
Y-68000D02*
D03*
Y-58000D02*
D03*
Y-48000D02*
D03*
Y-38000D02*
D03*
D34*
X293189Y-11811D02*
D03*
Y-252689D02*
D03*
X11811Y-11811D02*
D03*
X11811Y-252689D02*
D03*
D35*
X155378Y-228839D02*
D03*
Y-218839D02*
D03*
Y-208839D02*
D03*
Y-198839D02*
D03*
X254000Y-237500D02*
D03*
Y-227500D02*
D03*
Y-217500D02*
D03*
Y-207500D02*
D03*
Y-197500D02*
D03*
Y-187500D02*
D03*
D36*
X155378Y-185531D02*
D03*
Y-242618D02*
D03*
D37*
X176000Y-161500D02*
D03*
D38*
Y-82760D02*
D03*
D39*
X19000Y-37000D02*
D03*
Y-47000D02*
D03*
Y-162000D02*
D03*
Y-152000D02*
D03*
Y-142000D02*
D03*
X288283Y-237500D02*
D03*
Y-227500D02*
D03*
Y-217500D02*
D03*
X19000Y-115000D02*
D03*
Y-105000D02*
D03*
Y-95000D02*
D03*
Y-85000D02*
D03*
Y-75000D02*
D03*
Y-193500D02*
D03*
Y-203500D02*
D03*
Y-213500D02*
D03*
Y-223500D02*
D03*
X224000Y-43500D02*
D03*
Y-53500D02*
D03*
Y-63500D02*
D03*
Y-73500D02*
D03*
Y-83500D02*
D03*
D40*
X19000Y-57000D02*
D03*
Y-172000D02*
D03*
X288283Y-207500D02*
D03*
X19000Y-125000D02*
D03*
Y-233500D02*
D03*
X224000Y-33500D02*
D03*
D41*
X277213Y-108579D02*
D03*
Y-118579D02*
D03*
D42*
X160000Y-53500D02*
D03*
Y-43500D02*
D03*
Y-33500D02*
D03*
D43*
X227500Y-105909D02*
D03*
X243500Y-147091D02*
D03*
D44*
X227500D02*
D03*
X243500Y-105909D02*
D03*
D45*
X106739Y-187871D02*
D03*
X244142Y-21335D02*
D03*
X199653Y-73697D02*
D03*
X159890Y-71335D02*
D03*
X167764Y-198894D02*
D03*
X123276Y-98106D02*
D03*
X35087Y-146138D02*
D03*
X11465Y-223500D02*
D03*
X33118Y-233500D02*
D03*
X11465Y-193382D02*
D03*
X9000Y-152043D02*
D03*
X11465Y-75272D02*
D03*
X105953Y-37870D02*
D03*
X63484Y-208000D02*
D03*
X127606Y-37870D02*
D03*
X19339Y-26059D02*
D03*
M02*
