M48
;Layer_Color=9474304
;FILE_FORMAT=2:4
INCH,TZ
;TYPE=PLATED
T1F00S00C0.0280
T2F00S00C0.0300
T3F00S00C0.0315
T4F00S00C0.0354
T5F00S00C0.0394
T6F00S00C0.0433
T7F00S00C0.0472
T8F00S00C0.0600
T9F00S00C0.1181
%
T01
X6348Y-20800
X10674Y-18787
X16776Y-19889
X1146Y-19338
Y-22350
X3312Y-23350
X3509Y-14614
X900Y-15204
X1146Y-7527
X10595Y-3787
X12761
X12328Y-9811
X15989Y-7133
X19965Y-7370
X24414Y-2133
X1934Y-2606
T02
X16000Y-5350
Y-4350
Y-3350
T03
X26850Y-8634
Y-6666
Y-4134
Y-2166
T04
X28828Y-23750
Y-22750
Y-21750
Y-20750
X1900Y-20350
Y-19350
Y-21350
Y-22350
Y-23350
Y-17200
Y-16200
Y-15200
Y-14200
Y-12500
Y-11500
Y-10500
Y-9500
Y-8500
Y-7500
Y-5700
Y-4700
Y-3700
X22400Y-3350
Y-4350
Y-5350
Y-6350
Y-7350
Y-8350
T05
X5400Y-22800
Y-21800
Y-20800
Y-19800
Y-18800
X11400
Y-19800
Y-20800
Y-21800
Y-22800
Y-17800
Y-16800
Y-15800
Y-14800
Y-13800
Y-12800
Y-11800
Y-10800
Y-9800
Y-8800
Y-7800
Y-6800
Y-5800
Y-4800
Y-3800
X5400
Y-4800
Y-5800
Y-6800
Y-7800
Y-8800
Y-9800
Y-10800
Y-11800
Y-12800
Y-13800
Y-14800
Y-15800
Y-16800
Y-17800
T06
X25400Y-23750
Y-22750
Y-21750
Y-20750
Y-19750
Y-18750
X15538Y-19884
Y-20884
Y-21884
Y-22884
X27721Y-11858
Y-10858
T07
X22750Y-14709
X24350
Y-10591
X22750
T08
X17600Y-16150
Y-8276
T09
X29319Y-25269
X15538Y-24262
X1181Y-25269
X15538Y-18553
X29319Y-1181
X1181
M30
