G04*
G04 #@! TF.GenerationSoftware,Altium Limited,Altium Designer,19.1.5 (86)*
G04*
G04 Layer_Color=8388736*
%FSLAX44Y44*%
%MOMM*%
G71*
G01*
G75*
%ADD16C,1.7112*%
%ADD17R,1.7112X1.7112*%
%ADD18C,2.7432*%
%ADD19R,2.7432X2.7432*%
%ADD20C,1.7272*%
%ADD21C,1.8032*%
%ADD22C,4.2032*%
%ADD23R,2.2032X2.2032*%
%ADD24C,2.2032*%
%ADD25O,2.3032X1.6032*%
%ADD26C,3.7032*%
%ADD27C,1.7032*%
%ADD28R,1.7032X1.7032*%
%ADD29O,2.7032X1.9532*%
%ADD30C,1.4732*%
D16*
X289560Y-96520D02*
D03*
Y-121920D02*
D03*
Y-147320D02*
D03*
Y-172720D02*
D03*
Y-198120D02*
D03*
Y-223520D02*
D03*
Y-248920D02*
D03*
Y-274320D02*
D03*
Y-299720D02*
D03*
Y-325120D02*
D03*
Y-350520D02*
D03*
Y-375920D02*
D03*
Y-401320D02*
D03*
Y-426720D02*
D03*
Y-452120D02*
D03*
Y-477520D02*
D03*
Y-502920D02*
D03*
Y-528320D02*
D03*
Y-553720D02*
D03*
Y-579120D02*
D03*
X137160D02*
D03*
Y-553720D02*
D03*
Y-528320D02*
D03*
Y-502920D02*
D03*
Y-477520D02*
D03*
Y-452120D02*
D03*
Y-426720D02*
D03*
Y-401320D02*
D03*
Y-375920D02*
D03*
Y-350520D02*
D03*
Y-325120D02*
D03*
Y-299720D02*
D03*
Y-274320D02*
D03*
Y-248920D02*
D03*
Y-223520D02*
D03*
Y-198120D02*
D03*
Y-172720D02*
D03*
Y-147320D02*
D03*
Y-121920D02*
D03*
D17*
Y-96520D02*
D03*
D18*
X447040Y-210210D02*
D03*
D19*
Y-410210D02*
D03*
D20*
X406400Y-135890D02*
D03*
Y-110490D02*
D03*
Y-85090D02*
D03*
D21*
X394660Y-581250D02*
D03*
Y-555850D02*
D03*
Y-530450D02*
D03*
Y-505050D02*
D03*
X645160Y-603250D02*
D03*
Y-577850D02*
D03*
Y-552450D02*
D03*
Y-527050D02*
D03*
Y-501650D02*
D03*
Y-476250D02*
D03*
D22*
X394660Y-471250D02*
D03*
Y-616250D02*
D03*
D23*
X618490Y-269010D02*
D03*
X577850Y-373610D02*
D03*
D24*
X618490D02*
D03*
X577850Y-269010D02*
D03*
D25*
X681990Y-55010D02*
D03*
Y-105010D02*
D03*
Y-219310D02*
D03*
Y-169310D02*
D03*
D26*
X744700Y-30000D02*
D03*
Y-641830D02*
D03*
X30000Y-30000D02*
D03*
X30000Y-641830D02*
D03*
D27*
X48260Y-93980D02*
D03*
Y-119380D02*
D03*
Y-411480D02*
D03*
Y-386080D02*
D03*
Y-360680D02*
D03*
X732238Y-603250D02*
D03*
Y-577850D02*
D03*
Y-552450D02*
D03*
X48260Y-292100D02*
D03*
Y-266700D02*
D03*
Y-241300D02*
D03*
Y-215900D02*
D03*
Y-190500D02*
D03*
Y-491490D02*
D03*
Y-516890D02*
D03*
Y-542290D02*
D03*
Y-567690D02*
D03*
X568960Y-110490D02*
D03*
Y-135890D02*
D03*
Y-161290D02*
D03*
Y-186690D02*
D03*
Y-212090D02*
D03*
D28*
X48260Y-144780D02*
D03*
Y-436880D02*
D03*
X732238Y-527050D02*
D03*
X48260Y-317500D02*
D03*
Y-593090D02*
D03*
X568960Y-85090D02*
D03*
D29*
X704120Y-275790D02*
D03*
Y-301190D02*
D03*
D30*
X271118Y-477192D02*
D03*
X620120Y-54190D02*
D03*
X507120Y-187190D02*
D03*
X406120Y-181190D02*
D03*
X426120Y-505190D02*
D03*
X313120Y-249190D02*
D03*
X89120Y-371190D02*
D03*
X29120Y-567690D02*
D03*
X84120Y-593090D02*
D03*
X29120Y-491190D02*
D03*
X22860Y-386190D02*
D03*
X29120Y-191190D02*
D03*
X269120Y-96190D02*
D03*
X161250Y-528320D02*
D03*
X324120Y-96190D02*
D03*
X49120Y-66190D02*
D03*
M02*
