G04*
G04 #@! TF.GenerationSoftware,Altium Limited,Altium Designer,19.1.5 (86)*
G04*
G04 Layer_Physical_Order=2*
G04 Layer_Color=16711680*
%FSLAX44Y44*%
%MOMM*%
G71*
G01*
G75*
%ADD31C,0.5080*%
%ADD32C,1.5080*%
%ADD33R,1.5080X1.5080*%
%ADD34C,2.5400*%
%ADD35R,2.5400X2.5400*%
%ADD36C,1.5240*%
%ADD37C,1.6000*%
%ADD38C,4.0000*%
%ADD39R,2.0000X2.0000*%
%ADD40C,2.0000*%
%ADD41O,2.1000X1.4000*%
%ADD42C,3.5000*%
%ADD43C,1.5000*%
%ADD44R,1.5000X1.5000*%
%ADD45O,2.5000X1.7500*%
%ADD46C,1.2700*%
%ADD47C,0.7620*%
G36*
X392563Y-78647D02*
X392252Y-79230D01*
X391381Y-82102D01*
X391086Y-85090D01*
X391381Y-88078D01*
X392252Y-90950D01*
X393667Y-93598D01*
X395572Y-95919D01*
X397892Y-97823D01*
X400042Y-98972D01*
X399724Y-100242D01*
X375085D01*
X368388Y-93545D01*
Y-81715D01*
X372545Y-77558D01*
X391910D01*
X392563Y-78647D01*
D02*
G37*
G36*
X400042Y-122008D02*
X397892Y-123157D01*
X395572Y-125062D01*
X393667Y-127382D01*
X392252Y-130030D01*
X391381Y-132902D01*
X391086Y-135890D01*
X391110Y-136131D01*
X390257Y-137072D01*
X300762D01*
X300332Y-136548D01*
X298023Y-134654D01*
X295748Y-133438D01*
X296066Y-132168D01*
X359410D01*
X359410Y-132168D01*
X362062Y-131819D01*
X364534Y-130795D01*
X366656Y-129166D01*
X375085Y-120738D01*
X399724D01*
X400042Y-122008D01*
D02*
G37*
G36*
X283372Y-133438D02*
X281097Y-134654D01*
X278788Y-136548D01*
X276894Y-138857D01*
X275486Y-141490D01*
X274619Y-144348D01*
X274327Y-147320D01*
X274619Y-150292D01*
X275486Y-153150D01*
X276894Y-155783D01*
X278788Y-158092D01*
X280137Y-159199D01*
Y-160842D01*
X278788Y-161948D01*
X278358Y-162472D01*
X270510D01*
X270510Y-162472D01*
X267858Y-162822D01*
X265386Y-163845D01*
X263264Y-165474D01*
X263264Y-165474D01*
X237481Y-191257D01*
X236308Y-190770D01*
Y-165535D01*
X269675Y-132168D01*
X283054D01*
X283372Y-133438D01*
D02*
G37*
G36*
X671742Y-161443D02*
X670934Y-162064D01*
X669305Y-164186D01*
X668281Y-166658D01*
X668111Y-167952D01*
X666770Y-168408D01*
X642708Y-144345D01*
Y-131111D01*
X642708Y-131110D01*
X642358Y-128458D01*
X641335Y-125986D01*
X639706Y-123864D01*
X632273Y-116431D01*
X632759Y-115257D01*
X671742D01*
Y-161443D01*
D02*
G37*
G36*
X42157Y-105498D02*
X39819Y-106747D01*
X37517Y-108637D01*
X35627Y-110939D01*
X34223Y-113566D01*
X33359Y-116416D01*
X33067Y-119380D01*
X33359Y-122344D01*
X34223Y-125194D01*
X35627Y-127821D01*
X36195Y-128512D01*
X35652Y-129660D01*
X33140D01*
Y-159900D01*
X36731D01*
Y-177894D01*
X35461Y-178696D01*
X32767Y-177580D01*
X29120Y-177099D01*
X25473Y-177580D01*
X22075Y-178987D01*
X20507Y-180190D01*
X19368Y-179629D01*
Y-115775D01*
X30915Y-104228D01*
X41839D01*
X42157Y-105498D01*
D02*
G37*
G36*
X553840Y-100210D02*
X556352D01*
X556894Y-101358D01*
X556327Y-102049D01*
X554923Y-104676D01*
X554059Y-107526D01*
X553767Y-110490D01*
X554059Y-113454D01*
X554923Y-116304D01*
X556327Y-118931D01*
X558217Y-121233D01*
X559600Y-122368D01*
Y-124011D01*
X558217Y-125147D01*
X556327Y-127449D01*
X554923Y-130076D01*
X554059Y-132926D01*
X553767Y-135890D01*
X554059Y-138854D01*
X554923Y-141704D01*
X556327Y-144331D01*
X558217Y-146633D01*
X560519Y-148523D01*
X562857Y-149772D01*
X562539Y-151042D01*
X495960D01*
X493308Y-151391D01*
X490836Y-152415D01*
X488714Y-154044D01*
X458461Y-184296D01*
X457288Y-183810D01*
Y-124460D01*
X456939Y-121808D01*
X455915Y-119336D01*
X454286Y-117214D01*
X454286Y-117214D01*
X440316Y-103244D01*
X438194Y-101615D01*
X435722Y-100591D01*
X433070Y-100242D01*
X433070Y-100242D01*
X413076D01*
X412757Y-98972D01*
X414908Y-97823D01*
X417228Y-95919D01*
X417705Y-95338D01*
X553840D01*
Y-100210D01*
D02*
G37*
G36*
X273761Y-31995D02*
X186843Y-118913D01*
X185214Y-121035D01*
X184191Y-123507D01*
X183841Y-126159D01*
X183872Y-126393D01*
Y-171945D01*
X167945Y-187872D01*
X148362D01*
X147932Y-187348D01*
X146583Y-186241D01*
Y-184599D01*
X147932Y-183492D01*
X149826Y-181183D01*
X151234Y-178550D01*
X152101Y-175692D01*
X152393Y-172720D01*
X152101Y-169748D01*
X151234Y-166890D01*
X149826Y-164257D01*
X147932Y-161948D01*
X146583Y-160842D01*
Y-159199D01*
X147932Y-158092D01*
X149826Y-155783D01*
X151234Y-153150D01*
X152101Y-150292D01*
X152393Y-147320D01*
X152101Y-144348D01*
X151234Y-141490D01*
X149826Y-138857D01*
X147932Y-136548D01*
X146583Y-135442D01*
Y-133799D01*
X147932Y-132692D01*
X149826Y-130383D01*
X151234Y-127750D01*
X152101Y-124892D01*
X152393Y-121920D01*
X152101Y-118948D01*
X151234Y-116090D01*
X149826Y-113457D01*
X149310Y-112828D01*
X149853Y-111680D01*
X152320D01*
Y-81360D01*
X147408D01*
Y-61395D01*
X177981Y-30822D01*
X273275D01*
X273761Y-31995D01*
D02*
G37*
G36*
X436792Y-128705D02*
Y-198905D01*
X436212Y-199381D01*
X434307Y-201702D01*
X432892Y-204350D01*
X432020Y-207222D01*
X431851Y-208940D01*
X447040D01*
X462802D01*
X500205Y-171538D01*
X562539D01*
X562857Y-172808D01*
X560519Y-174057D01*
X558217Y-175947D01*
X557605Y-176692D01*
X516387D01*
X514165Y-174987D01*
X510767Y-173580D01*
X507120Y-173099D01*
X503473Y-173580D01*
X500075Y-174987D01*
X497156Y-177227D01*
X494917Y-180145D01*
X493510Y-183543D01*
X493029Y-187190D01*
X493510Y-190837D01*
X494917Y-194235D01*
X497156Y-197153D01*
X500075Y-199393D01*
X503473Y-200800D01*
X507120Y-201280D01*
X510767Y-200800D01*
X514165Y-199393D01*
X517039Y-197188D01*
X558015D01*
X558217Y-197433D01*
X559600Y-198568D01*
Y-200212D01*
X558217Y-201347D01*
X556327Y-203649D01*
X554923Y-206276D01*
X554059Y-209126D01*
X553767Y-212090D01*
X553830Y-212728D01*
X498984Y-267574D01*
X404996D01*
X353696Y-216274D01*
X351574Y-214645D01*
X349102Y-213622D01*
X346450Y-213272D01*
X346450Y-213272D01*
X300762D01*
X300332Y-212748D01*
X298983Y-211642D01*
Y-209998D01*
X300332Y-208892D01*
X302226Y-206583D01*
X303634Y-203950D01*
X304501Y-201092D01*
X304793Y-198120D01*
X304501Y-195148D01*
X303634Y-192290D01*
X302226Y-189657D01*
X300332Y-187348D01*
X298983Y-186241D01*
Y-184599D01*
X300332Y-183492D01*
X302226Y-181183D01*
X303634Y-178550D01*
X304501Y-175692D01*
X304793Y-172720D01*
X304501Y-169748D01*
X303634Y-166890D01*
X302226Y-164257D01*
X300332Y-161948D01*
X298983Y-160842D01*
Y-159199D01*
X300332Y-158092D01*
X300762Y-157568D01*
X396012D01*
Y-171414D01*
X393917Y-174145D01*
X392510Y-177543D01*
X392029Y-181190D01*
X392510Y-184837D01*
X393917Y-188235D01*
X396156Y-191154D01*
X399075Y-193393D01*
X402473Y-194800D01*
X406120Y-195281D01*
X409767Y-194800D01*
X413165Y-193393D01*
X416083Y-191154D01*
X418323Y-188235D01*
X419730Y-184837D01*
X420210Y-181190D01*
X419730Y-177543D01*
X418323Y-174145D01*
X416508Y-171779D01*
Y-147310D01*
X417228Y-146719D01*
X419133Y-144398D01*
X420548Y-141750D01*
X421419Y-138878D01*
X421714Y-135890D01*
X421419Y-132902D01*
X420548Y-130030D01*
X419133Y-127382D01*
X417228Y-125062D01*
X414908Y-123157D01*
X412757Y-122008D01*
X413076Y-120738D01*
X428825D01*
X436792Y-128705D01*
D02*
G37*
G36*
X671742Y-202365D02*
Y-206280D01*
X671117Y-206539D01*
X668063Y-208883D01*
X665719Y-211937D01*
X664875Y-213976D01*
X663629Y-214224D01*
X630008Y-180603D01*
Y-162290D01*
X631181Y-161803D01*
X671742Y-202365D01*
D02*
G37*
G36*
X104052Y-152835D02*
Y-200660D01*
X104052Y-200660D01*
X104402Y-203312D01*
X105425Y-205784D01*
X107054Y-207906D01*
X121993Y-222845D01*
X121927Y-223520D01*
X122219Y-226492D01*
X123086Y-229350D01*
X124494Y-231983D01*
X126388Y-234292D01*
X127737Y-235399D01*
Y-237041D01*
X126388Y-238148D01*
X125958Y-238672D01*
X109655D01*
X79636Y-208654D01*
X77514Y-207025D01*
X75042Y-206001D01*
X72390Y-205652D01*
X72390Y-205652D01*
X59410D01*
X59003Y-205157D01*
X57620Y-204021D01*
Y-202379D01*
X59003Y-201243D01*
X60893Y-198941D01*
X62297Y-196314D01*
X63161Y-193464D01*
X63453Y-190500D01*
X63161Y-187536D01*
X62297Y-184686D01*
X60893Y-182059D01*
X59789Y-180714D01*
Y-159900D01*
X63380D01*
Y-129660D01*
X64637Y-129628D01*
X80845D01*
X104052Y-152835D01*
D02*
G37*
G36*
X774700Y-671830D02*
X-0D01*
Y-458112D01*
X1173Y-457626D01*
X18408Y-474860D01*
X18408Y-474860D01*
X20530Y-476489D01*
X22659Y-477371D01*
X22802Y-478686D01*
X22075Y-478987D01*
X19157Y-481227D01*
X16917Y-484145D01*
X15510Y-487543D01*
X15029Y-491190D01*
X15510Y-494837D01*
X16917Y-498235D01*
X19157Y-501153D01*
X22075Y-503393D01*
X25473Y-504800D01*
X29120Y-505280D01*
X32767Y-504800D01*
X36165Y-503393D01*
X37594Y-502296D01*
X38900Y-503368D01*
Y-505011D01*
X37517Y-506147D01*
X37110Y-506642D01*
X33020D01*
X30368Y-506992D01*
X27896Y-508015D01*
X25774Y-509644D01*
X25774Y-509644D01*
X5364Y-530054D01*
X3735Y-532176D01*
X2711Y-534648D01*
X2362Y-537300D01*
X2362Y-537300D01*
Y-586808D01*
X2362Y-586808D01*
X2711Y-589461D01*
X3735Y-591932D01*
X5364Y-594055D01*
X27036Y-615727D01*
X26608Y-616923D01*
X25076Y-617074D01*
X20340Y-618510D01*
X15977Y-620842D01*
X12151Y-623982D01*
X9012Y-627807D01*
X6680Y-632170D01*
X5243Y-636906D01*
X4758Y-641830D01*
X5243Y-646754D01*
X6680Y-651489D01*
X9012Y-655854D01*
X12151Y-659678D01*
X15977Y-662818D01*
X20340Y-665150D01*
X25076Y-666587D01*
X30000Y-667072D01*
X34924Y-666587D01*
X39660Y-665150D01*
X44023Y-662818D01*
X47848Y-659678D01*
X50988Y-655854D01*
X53320Y-651489D01*
X54756Y-646754D01*
X55241Y-641830D01*
X54756Y-636906D01*
X53320Y-632170D01*
X51265Y-628325D01*
X51921Y-627055D01*
X151797D01*
X151797Y-627055D01*
X154449Y-626706D01*
X156921Y-625682D01*
X159043Y-624053D01*
X206366Y-576730D01*
X206366Y-576730D01*
X207995Y-574608D01*
X209018Y-572136D01*
X209368Y-569484D01*
Y-383270D01*
X209368Y-383270D01*
X209018Y-380618D01*
X207995Y-378146D01*
X206366Y-376024D01*
X206366Y-376024D01*
X173616Y-343274D01*
X171494Y-341645D01*
X169022Y-340621D01*
X166370Y-340272D01*
X166370Y-340272D01*
X148362D01*
X147932Y-339748D01*
X146583Y-338642D01*
Y-336998D01*
X147932Y-335892D01*
X149826Y-333583D01*
X151234Y-330950D01*
X152101Y-328092D01*
X152393Y-325120D01*
X152101Y-322148D01*
X151234Y-319290D01*
X149826Y-316657D01*
X147932Y-314348D01*
X146583Y-313242D01*
Y-311598D01*
X147932Y-310492D01*
X149826Y-308183D01*
X151234Y-305550D01*
X152101Y-302692D01*
X152393Y-299720D01*
X152101Y-296748D01*
X151234Y-293890D01*
X149826Y-291257D01*
X147932Y-288948D01*
X146583Y-287841D01*
Y-286199D01*
X147932Y-285092D01*
X149826Y-282783D01*
X151234Y-280150D01*
X152101Y-277292D01*
X152393Y-274320D01*
X152101Y-271348D01*
X151234Y-268490D01*
X149826Y-265857D01*
X147932Y-263548D01*
X146583Y-262442D01*
Y-260798D01*
X147932Y-259692D01*
X149826Y-257383D01*
X151234Y-254750D01*
X152101Y-251892D01*
X152393Y-248920D01*
X152101Y-245948D01*
X151234Y-243090D01*
X149826Y-240457D01*
X147932Y-238148D01*
X146583Y-237041D01*
Y-235399D01*
X147932Y-234292D01*
X149826Y-231983D01*
X151234Y-229350D01*
X152101Y-226492D01*
X152393Y-223520D01*
X152101Y-220548D01*
X151234Y-217690D01*
X149826Y-215057D01*
X147932Y-212748D01*
X146583Y-211642D01*
Y-209998D01*
X147932Y-208892D01*
X148362Y-208368D01*
X172190D01*
X172190Y-208368D01*
X174842Y-208018D01*
X177314Y-206995D01*
X179436Y-205366D01*
X201366Y-183436D01*
X202995Y-181314D01*
X204018Y-178842D01*
X204368Y-176190D01*
Y-130373D01*
X291219Y-43522D01*
X609096D01*
X609723Y-44792D01*
X607917Y-47145D01*
X606510Y-50543D01*
X606029Y-54190D01*
X606510Y-57837D01*
X607917Y-61235D01*
X610156Y-64153D01*
X613075Y-66393D01*
X616473Y-67800D01*
X620120Y-68281D01*
X623767Y-67800D01*
X627165Y-66393D01*
X629179Y-64848D01*
X667611D01*
X668063Y-65437D01*
X671117Y-67780D01*
X674673Y-69254D01*
X678490Y-69756D01*
X685490D01*
X689306Y-69254D01*
X692863Y-67780D01*
X695917Y-65437D01*
X698260Y-62383D01*
X699105Y-60343D01*
X700351Y-60095D01*
X729872Y-89617D01*
Y-254898D01*
X728699Y-255384D01*
X711179Y-237864D01*
X709057Y-236235D01*
X706585Y-235212D01*
X703933Y-234862D01*
X703933Y-234862D01*
X689094D01*
X689011Y-233592D01*
X689306Y-233553D01*
X692863Y-232080D01*
X695917Y-229737D01*
X698260Y-226683D01*
X699734Y-223126D01*
X700236Y-219310D01*
X699734Y-215493D01*
X698260Y-211937D01*
X695917Y-208883D01*
X692863Y-206539D01*
X692238Y-206280D01*
Y-198120D01*
X691889Y-195468D01*
X690865Y-192996D01*
X689236Y-190874D01*
X689236Y-190874D01*
X679190Y-180828D01*
X679716Y-179557D01*
X681990D01*
X684642Y-179208D01*
X685309Y-178932D01*
X685490D01*
X687980Y-178604D01*
X690301Y-177643D01*
X692294Y-176114D01*
X693823Y-174121D01*
X694784Y-171800D01*
X694945Y-170580D01*
X681990D01*
Y-168040D01*
X694945D01*
X694784Y-166819D01*
X693823Y-164499D01*
X692294Y-162506D01*
X692238Y-162463D01*
Y-111857D01*
X692294Y-111814D01*
X693823Y-109821D01*
X694784Y-107500D01*
X694945Y-106280D01*
X681990D01*
Y-103740D01*
X694945D01*
X694784Y-102519D01*
X693823Y-100198D01*
X692294Y-98206D01*
X690301Y-96677D01*
X687980Y-95715D01*
X685490Y-95387D01*
X685309D01*
X684642Y-95111D01*
X681990Y-94762D01*
X628564D01*
X593866Y-60064D01*
X591744Y-58435D01*
X589272Y-57411D01*
X586620Y-57062D01*
X586620Y-57062D01*
X368300D01*
X365648Y-57411D01*
X363176Y-58435D01*
X361054Y-60064D01*
X361054Y-60064D01*
X350894Y-70224D01*
X349265Y-72346D01*
X348242Y-74818D01*
X347892Y-77470D01*
X347892Y-77470D01*
Y-97790D01*
X347892Y-97790D01*
X348242Y-100442D01*
X349265Y-102914D01*
X350894Y-105036D01*
X356348Y-110490D01*
X355165Y-111672D01*
X334368D01*
Y-96190D01*
X334019Y-93538D01*
X332995Y-91066D01*
X331366Y-88944D01*
X329244Y-87315D01*
X326772Y-86292D01*
X324120Y-85942D01*
X321468Y-86292D01*
X318996Y-87315D01*
X316874Y-88944D01*
X315245Y-91066D01*
X314221Y-93538D01*
X313872Y-96190D01*
Y-111672D01*
X296066D01*
X295748Y-110402D01*
X298023Y-109186D01*
X300332Y-107292D01*
X302226Y-104983D01*
X303634Y-102350D01*
X304501Y-99492D01*
X304793Y-96520D01*
X304501Y-93548D01*
X303634Y-90690D01*
X302226Y-88057D01*
X300332Y-85748D01*
X298023Y-83854D01*
X295389Y-82446D01*
X292532Y-81579D01*
X289560Y-81287D01*
X286588Y-81579D01*
X283730Y-82446D01*
X281097Y-83854D01*
X278788Y-85748D01*
X278662Y-85903D01*
X276165Y-83987D01*
X272767Y-82580D01*
X269120Y-82100D01*
X265473Y-82580D01*
X262075Y-83987D01*
X259156Y-86227D01*
X256917Y-89145D01*
X255510Y-92543D01*
X255029Y-96190D01*
X255510Y-99837D01*
X256917Y-103235D01*
X259156Y-106153D01*
X262075Y-108393D01*
X265473Y-109800D01*
X269120Y-110281D01*
X272767Y-109800D01*
X276165Y-108393D01*
X278329Y-106732D01*
X278788Y-107292D01*
X281097Y-109186D01*
X283372Y-110402D01*
X283054Y-111672D01*
X265430D01*
X262778Y-112022D01*
X260306Y-113045D01*
X258184Y-114674D01*
X218814Y-154044D01*
X217185Y-156166D01*
X216161Y-158638D01*
X215812Y-161290D01*
X215812Y-161290D01*
X215812Y-593090D01*
X215812Y-593090D01*
X216161Y-595742D01*
X217185Y-598214D01*
X218814Y-600336D01*
X248024Y-629546D01*
X250146Y-631175D01*
X252618Y-632198D01*
X255270Y-632548D01*
X334010D01*
X334010Y-632548D01*
X336662Y-632198D01*
X339134Y-631175D01*
X341256Y-629546D01*
X370628Y-600174D01*
X371633Y-600966D01*
X369974Y-603672D01*
X368311Y-607689D01*
X367296Y-611916D01*
X366955Y-616250D01*
X367296Y-620584D01*
X368311Y-624811D01*
X369974Y-628828D01*
X372246Y-632535D01*
X375069Y-635841D01*
X378375Y-638664D01*
X382082Y-640936D01*
X386099Y-642599D01*
X390326Y-643614D01*
X394660Y-643955D01*
X398994Y-643614D01*
X403221Y-642599D01*
X407238Y-640936D01*
X410945Y-638664D01*
X414251Y-635841D01*
X417074Y-632535D01*
X419346Y-628828D01*
X421009Y-624811D01*
X422024Y-620584D01*
X422365Y-616250D01*
X422024Y-611916D01*
X421009Y-607689D01*
X419346Y-603672D01*
X417074Y-599965D01*
X414251Y-596659D01*
X410945Y-593836D01*
X407238Y-591564D01*
X403221Y-589901D01*
X402755Y-589789D01*
X402452Y-588410D01*
X403867Y-586566D01*
X404929Y-584002D01*
X405124Y-582520D01*
X394660D01*
Y-579980D01*
X405124D01*
X404929Y-578498D01*
X403867Y-575934D01*
X402177Y-573733D01*
X399976Y-572043D01*
X399650Y-571909D01*
X399713Y-570640D01*
X400666Y-570351D01*
X403380Y-568900D01*
X405758Y-566948D01*
X407710Y-564570D01*
X409161Y-561856D01*
X410054Y-558912D01*
X410355Y-555850D01*
X410054Y-552788D01*
X409161Y-549844D01*
X407710Y-547130D01*
X405758Y-544752D01*
X404581Y-543785D01*
Y-542515D01*
X405758Y-541548D01*
X407710Y-539170D01*
X409161Y-536456D01*
X410054Y-533512D01*
X410355Y-530450D01*
X410054Y-527388D01*
X409161Y-524444D01*
X407710Y-521730D01*
X405758Y-519352D01*
X404581Y-518385D01*
Y-517115D01*
X405758Y-516148D01*
X406399Y-515368D01*
X416436D01*
X419075Y-517393D01*
X422473Y-518800D01*
X426120Y-519281D01*
X429767Y-518800D01*
X433165Y-517393D01*
X436083Y-515154D01*
X438323Y-512235D01*
X439730Y-508837D01*
X440210Y-505190D01*
X439730Y-501543D01*
X438323Y-498145D01*
X436083Y-495227D01*
X433165Y-492987D01*
X429767Y-491580D01*
X426120Y-491099D01*
X422473Y-491580D01*
X419075Y-492987D01*
X416618Y-494872D01*
X411286D01*
X411019Y-493926D01*
X411017Y-493602D01*
X414251Y-490841D01*
X417074Y-487535D01*
X419346Y-483828D01*
X421009Y-479811D01*
X422024Y-475584D01*
X422365Y-471250D01*
X422024Y-466916D01*
X421009Y-462689D01*
X419346Y-458672D01*
X417074Y-454965D01*
X414251Y-451659D01*
X410945Y-448836D01*
X407238Y-446564D01*
X403221Y-444901D01*
X398994Y-443886D01*
X394660Y-443545D01*
X390326Y-443886D01*
X386099Y-444901D01*
X382082Y-446564D01*
X378375Y-448836D01*
X375069Y-451659D01*
X372246Y-454965D01*
X369974Y-458672D01*
X368311Y-462689D01*
X367296Y-466916D01*
X366955Y-471250D01*
X367296Y-475584D01*
X368311Y-479811D01*
X369974Y-483828D01*
X372246Y-487535D01*
X375069Y-490841D01*
X378375Y-493664D01*
X381481Y-495568D01*
X381610Y-496330D01*
X380159Y-499044D01*
X379266Y-501988D01*
X378964Y-505050D01*
X379266Y-508112D01*
X380159Y-511056D01*
X381610Y-513770D01*
X383562Y-516148D01*
X384739Y-517115D01*
Y-518385D01*
X383562Y-519352D01*
X382863Y-520202D01*
X378380D01*
X375728Y-520551D01*
X373256Y-521575D01*
X371134Y-523204D01*
X371134Y-523204D01*
X307685Y-586652D01*
X303959D01*
X303306Y-585563D01*
X303634Y-584950D01*
X304501Y-582092D01*
X304793Y-579120D01*
X304501Y-576148D01*
X303634Y-573290D01*
X302226Y-570657D01*
X300332Y-568348D01*
X298983Y-567242D01*
Y-565598D01*
X300332Y-564492D01*
X302226Y-562183D01*
X303634Y-559550D01*
X304501Y-556692D01*
X304793Y-553720D01*
X304501Y-550748D01*
X303634Y-547890D01*
X302226Y-545257D01*
X300332Y-542948D01*
X298983Y-541842D01*
Y-540199D01*
X300332Y-539092D01*
X302226Y-536783D01*
X303634Y-534150D01*
X304501Y-531292D01*
X304793Y-528320D01*
X304501Y-525348D01*
X303634Y-522490D01*
X302226Y-519857D01*
X300332Y-517548D01*
X298983Y-516441D01*
Y-514799D01*
X300332Y-513692D01*
X302226Y-511383D01*
X303634Y-508750D01*
X304501Y-505892D01*
X304793Y-502920D01*
X304501Y-499948D01*
X303634Y-497090D01*
X302226Y-494457D01*
X300332Y-492148D01*
X298983Y-491041D01*
Y-489398D01*
X300332Y-488292D01*
X302226Y-485983D01*
X303634Y-483350D01*
X304501Y-480492D01*
X304793Y-477520D01*
X304501Y-474548D01*
X303634Y-471690D01*
X302226Y-469057D01*
X300332Y-466748D01*
X298983Y-465642D01*
Y-463998D01*
X300332Y-462892D01*
X302226Y-460583D01*
X303634Y-457950D01*
X304501Y-455092D01*
X304793Y-452120D01*
X304501Y-449148D01*
X303634Y-446290D01*
X302226Y-443657D01*
X300332Y-441348D01*
X298983Y-440242D01*
Y-438599D01*
X300332Y-437492D01*
X302226Y-435183D01*
X303634Y-432550D01*
X304501Y-429692D01*
X304793Y-426720D01*
X304501Y-423748D01*
X303634Y-420890D01*
X302226Y-418257D01*
X300332Y-415948D01*
X298983Y-414841D01*
Y-413199D01*
X300332Y-412092D01*
X302226Y-409783D01*
X303634Y-407150D01*
X304501Y-404292D01*
X304793Y-401320D01*
X304501Y-398348D01*
X303634Y-395490D01*
X302226Y-392857D01*
X300332Y-390548D01*
X298983Y-389441D01*
Y-387799D01*
X300332Y-386692D01*
X302226Y-384383D01*
X303634Y-381750D01*
X304501Y-378892D01*
X304793Y-375920D01*
X304501Y-372948D01*
X303634Y-370090D01*
X302226Y-367457D01*
X300332Y-365148D01*
X298983Y-364041D01*
Y-362398D01*
X300332Y-361292D01*
X302226Y-358983D01*
X303634Y-356350D01*
X304501Y-353492D01*
X304793Y-350520D01*
X304501Y-347548D01*
X303634Y-344690D01*
X302226Y-342057D01*
X300332Y-339748D01*
X298983Y-338642D01*
Y-336998D01*
X300332Y-335892D01*
X302226Y-333583D01*
X303634Y-330950D01*
X304501Y-328092D01*
X304793Y-325120D01*
X304501Y-322148D01*
X303634Y-319290D01*
X302226Y-316657D01*
X300332Y-314348D01*
X298983Y-313242D01*
Y-311598D01*
X300332Y-310492D01*
X302226Y-308183D01*
X303634Y-305550D01*
X304501Y-302692D01*
X304793Y-299720D01*
X304501Y-296748D01*
X303634Y-293890D01*
X302226Y-291257D01*
X300332Y-288948D01*
X298983Y-287841D01*
Y-286199D01*
X300332Y-285092D01*
X302226Y-282783D01*
X303634Y-280150D01*
X304501Y-277292D01*
X304793Y-274320D01*
X304501Y-271348D01*
X303634Y-268490D01*
X302226Y-265857D01*
X300332Y-263548D01*
X298983Y-262442D01*
Y-260798D01*
X300332Y-259692D01*
X300651Y-259303D01*
X303351D01*
X306075Y-261393D01*
X309473Y-262800D01*
X313120Y-263281D01*
X316767Y-262800D01*
X320165Y-261393D01*
X323083Y-259153D01*
X325323Y-256235D01*
X326730Y-252837D01*
X327211Y-249190D01*
X326730Y-245543D01*
X325323Y-242145D01*
X323083Y-239226D01*
X320165Y-236987D01*
X316767Y-235580D01*
X313120Y-235100D01*
X309473Y-235580D01*
X306075Y-236987D01*
X303703Y-238807D01*
X300872D01*
X300332Y-238148D01*
X298983Y-237041D01*
Y-235399D01*
X300332Y-234292D01*
X300762Y-233768D01*
X342205D01*
X393505Y-285067D01*
X393505Y-285067D01*
X395627Y-286696D01*
X398099Y-287720D01*
X400751Y-288069D01*
X503229D01*
X503229Y-288069D01*
X505881Y-287720D01*
X508353Y-286696D01*
X510475Y-285067D01*
X568322Y-227220D01*
X568960Y-227283D01*
X571924Y-226991D01*
X574774Y-226127D01*
X577401Y-224723D01*
X579703Y-222833D01*
X581593Y-220531D01*
X582997Y-217904D01*
X583861Y-215054D01*
X584153Y-212090D01*
X583861Y-209126D01*
X582997Y-206276D01*
X581593Y-203649D01*
X579703Y-201347D01*
X578320Y-200212D01*
Y-198568D01*
X579703Y-197433D01*
X581593Y-195131D01*
X582997Y-192504D01*
X583861Y-189654D01*
X584153Y-186690D01*
X583861Y-183726D01*
X582997Y-180876D01*
X581593Y-178249D01*
X579703Y-175947D01*
X577401Y-174057D01*
X574774Y-172653D01*
X572823Y-172062D01*
X572757Y-170714D01*
X574084Y-170165D01*
X576206Y-168536D01*
X577835Y-166414D01*
X578858Y-163942D01*
X579208Y-161290D01*
X578858Y-158638D01*
X577835Y-156166D01*
X576206Y-154044D01*
X574084Y-152415D01*
X572757Y-151866D01*
X572823Y-150518D01*
X574774Y-149927D01*
X577401Y-148523D01*
X579703Y-146633D01*
X580110Y-146138D01*
X582495D01*
X594272Y-157915D01*
Y-204470D01*
X594272Y-204470D01*
X594622Y-207122D01*
X595645Y-209594D01*
X597274Y-211716D01*
X635677Y-250120D01*
X635151Y-251390D01*
X627345D01*
X625736Y-249294D01*
X617862Y-241420D01*
X615740Y-239791D01*
X613268Y-238768D01*
X610616Y-238418D01*
X610616Y-238418D01*
X565404D01*
X562752Y-238768D01*
X560280Y-239791D01*
X558158Y-241420D01*
X550284Y-249294D01*
X548655Y-251416D01*
X547631Y-253888D01*
X547282Y-256540D01*
X547282Y-256540D01*
Y-290068D01*
X547282Y-290068D01*
X547631Y-292720D01*
X548655Y-295192D01*
X550284Y-297314D01*
X592956Y-339986D01*
X592956Y-339986D01*
X595078Y-341615D01*
X597550Y-342639D01*
X600202Y-342988D01*
X600202Y-342988D01*
X711200D01*
X711200Y-342988D01*
X713852Y-342639D01*
X716324Y-341615D01*
X718446Y-339986D01*
X741699Y-316733D01*
X742872Y-317219D01*
Y-350075D01*
X692985Y-399962D01*
X467360D01*
Y-389890D01*
X426720D01*
Y-430530D01*
X467360D01*
Y-420458D01*
X697230D01*
X697230Y-420458D01*
X699882Y-420108D01*
X702354Y-419085D01*
X704476Y-417456D01*
X760366Y-361566D01*
X761995Y-359444D01*
X763018Y-356972D01*
X763368Y-354320D01*
X763368Y-85372D01*
Y-83046D01*
X763368Y-83046D01*
X763068Y-80767D01*
Y-78613D01*
X763068Y-78613D01*
X762719Y-75960D01*
X761695Y-73489D01*
X760066Y-71366D01*
X745171Y-56471D01*
X745644Y-55149D01*
X749624Y-54756D01*
X754360Y-53320D01*
X758723Y-50988D01*
X762548Y-47848D01*
X765687Y-44023D01*
X768020Y-39660D01*
X769456Y-34924D01*
X769941Y-30000D01*
X769456Y-25076D01*
X768020Y-20340D01*
X765687Y-15977D01*
X762548Y-12151D01*
X758723Y-9012D01*
X754360Y-6680D01*
X749624Y-5243D01*
X744700Y-4758D01*
X739776Y-5243D01*
X735041Y-6680D01*
X730676Y-9012D01*
X726852Y-12151D01*
X723712Y-15977D01*
X721380Y-20340D01*
X719943Y-25076D01*
X719551Y-29056D01*
X718229Y-29529D01*
X702028Y-13328D01*
X699905Y-11699D01*
X697434Y-10675D01*
X694781Y-10326D01*
X694781Y-10326D01*
X173736D01*
X173736Y-10326D01*
X171084Y-10675D01*
X168612Y-11699D01*
X166490Y-13328D01*
X166490Y-13328D01*
X129914Y-49904D01*
X128285Y-52026D01*
X127261Y-54498D01*
X126912Y-57150D01*
X126912Y-57150D01*
Y-81360D01*
X122000D01*
Y-111680D01*
X124467D01*
X125010Y-112828D01*
X124494Y-113457D01*
X123086Y-116090D01*
X122219Y-118948D01*
X121927Y-121920D01*
X122219Y-124892D01*
X123086Y-127750D01*
X124494Y-130383D01*
X126388Y-132692D01*
X127737Y-133799D01*
Y-135442D01*
X126388Y-136548D01*
X124494Y-138857D01*
X123157Y-141357D01*
X122317Y-141634D01*
X121836Y-141721D01*
X121546Y-141344D01*
X121546Y-141344D01*
X92336Y-112134D01*
X90214Y-110505D01*
X87742Y-109481D01*
X85090Y-109132D01*
X85090Y-109132D01*
X59410D01*
X59003Y-108637D01*
X56701Y-106747D01*
X54074Y-105343D01*
X52123Y-104752D01*
X52057Y-103404D01*
X53384Y-102855D01*
X55506Y-101226D01*
X55936Y-100796D01*
X55936Y-100796D01*
X57565Y-98674D01*
X58589Y-96202D01*
X58938Y-93550D01*
Y-69037D01*
X59019Y-68842D01*
X59368Y-66190D01*
X59019Y-63538D01*
X57995Y-61066D01*
X56366Y-58944D01*
X54244Y-57315D01*
X51772Y-56291D01*
X49120Y-55942D01*
X46468Y-56291D01*
X43996Y-57315D01*
X41874Y-58944D01*
X41444Y-59374D01*
X39815Y-61496D01*
X38791Y-63968D01*
X38442Y-66620D01*
X38442Y-66620D01*
Y-83732D01*
X26670D01*
X26670Y-83732D01*
X24018Y-84081D01*
X21546Y-85105D01*
X19424Y-86734D01*
X19424Y-86734D01*
X1874Y-104284D01*
X1270Y-105071D01*
X-0Y-104640D01*
Y-0D01*
X0Y0D01*
X774700D01*
Y-671830D01*
D02*
G37*
G36*
X672776Y-252356D02*
X674899Y-253985D01*
X677370Y-255009D01*
X680022Y-255358D01*
X680023Y-255358D01*
X699688D01*
X702498Y-258167D01*
X702012Y-259341D01*
X700370D01*
X697161Y-259657D01*
X694075Y-260593D01*
X691231Y-262113D01*
X688739Y-264159D01*
X687767Y-265342D01*
X665080D01*
X657948Y-258209D01*
Y-247650D01*
X657598Y-244998D01*
X656575Y-242526D01*
X654946Y-240404D01*
X614768Y-200225D01*
Y-196007D01*
X615941Y-195521D01*
X672776Y-252356D01*
D02*
G37*
G36*
X637452Y-253167D02*
Y-262454D01*
X637452Y-262454D01*
X637802Y-265107D01*
X638825Y-267578D01*
X640454Y-269700D01*
X653590Y-282836D01*
X655712Y-284465D01*
X658184Y-285488D01*
X660836Y-285838D01*
X660836Y-285838D01*
X687439D01*
X688739Y-287421D01*
X689267Y-287855D01*
Y-289125D01*
X688739Y-289559D01*
X687603Y-290942D01*
X683509D01*
X681990Y-290742D01*
X681990Y-290742D01*
X596065D01*
X589106Y-283784D01*
X589168Y-282515D01*
X590369Y-281529D01*
X592571Y-278846D01*
X594207Y-275785D01*
X595215Y-272464D01*
X595555Y-269010D01*
X595215Y-265556D01*
X594207Y-262234D01*
X593111Y-260184D01*
X593873Y-258914D01*
X600870D01*
Y-286630D01*
X636110D01*
Y-253798D01*
X637380Y-253119D01*
X637452Y-253167D01*
D02*
G37*
G36*
X22075Y-203393D02*
X25473Y-204800D01*
X29120Y-205280D01*
X32767Y-204800D01*
X36165Y-203393D01*
X37697Y-202218D01*
X38785Y-202830D01*
X38842Y-204070D01*
X37517Y-205157D01*
X35627Y-207459D01*
X34223Y-210086D01*
X33359Y-212936D01*
X33067Y-215900D01*
X33359Y-218864D01*
X34223Y-221714D01*
X35627Y-224341D01*
X37517Y-226643D01*
X38900Y-227778D01*
Y-229422D01*
X37517Y-230557D01*
X35627Y-232859D01*
X34223Y-235486D01*
X33359Y-238336D01*
X33067Y-241300D01*
X33359Y-244264D01*
X34223Y-247114D01*
X35627Y-249741D01*
X37517Y-252043D01*
X38900Y-253179D01*
Y-254821D01*
X37517Y-255957D01*
X35627Y-258259D01*
X34223Y-260886D01*
X33359Y-263736D01*
X33067Y-266700D01*
X33359Y-269664D01*
X34223Y-272514D01*
X35627Y-275141D01*
X37517Y-277443D01*
X38900Y-278578D01*
Y-280222D01*
X37517Y-281357D01*
X35627Y-283659D01*
X34223Y-286286D01*
X33359Y-289136D01*
X33067Y-292100D01*
X33359Y-295064D01*
X34223Y-297914D01*
X35627Y-300541D01*
X37517Y-302843D01*
X39819Y-304733D01*
X42157Y-305982D01*
X41839Y-307252D01*
X35995D01*
X19368Y-290625D01*
Y-202751D01*
X20507Y-202190D01*
X22075Y-203393D01*
D02*
G37*
G36*
X682190Y-311438D02*
X682190Y-311438D01*
X687603D01*
X688739Y-312821D01*
X691231Y-314867D01*
X694075Y-316387D01*
X697161Y-317323D01*
X700370Y-317639D01*
X707870D01*
X710246Y-317405D01*
X710823Y-318624D01*
X706955Y-322492D01*
X604447D01*
X594365Y-312411D01*
X594851Y-311238D01*
X680671D01*
X682190Y-311438D01*
D02*
G37*
G36*
X1874Y-302116D02*
X24504Y-324746D01*
X24504Y-324746D01*
X26626Y-326375D01*
X29098Y-327398D01*
X31750Y-327748D01*
X31750Y-327748D01*
X38012D01*
Y-350432D01*
X14630D01*
X11978Y-350782D01*
X9506Y-351805D01*
X7384Y-353434D01*
X7384Y-353434D01*
X1173Y-359644D01*
X-0Y-359158D01*
Y-301761D01*
X1270Y-301329D01*
X1874Y-302116D01*
D02*
G37*
G36*
X103244Y-332366D02*
X103244Y-332366D01*
X105366Y-333995D01*
X107838Y-335019D01*
X110490Y-335368D01*
X110490Y-335368D01*
X125958D01*
X126388Y-335892D01*
X127737Y-336998D01*
Y-338642D01*
X126388Y-339748D01*
X124494Y-342057D01*
X123086Y-344690D01*
X122219Y-347548D01*
X121927Y-350520D01*
X122219Y-353492D01*
X123086Y-356350D01*
X124494Y-358983D01*
X126388Y-361292D01*
X127737Y-362398D01*
Y-364041D01*
X126388Y-365148D01*
X124494Y-367457D01*
X123086Y-370090D01*
X122219Y-372948D01*
X121927Y-375920D01*
X122219Y-378892D01*
X123086Y-381750D01*
X124494Y-384383D01*
X126388Y-386692D01*
X127737Y-387799D01*
Y-389441D01*
X126388Y-390548D01*
X124494Y-392857D01*
X123086Y-395490D01*
X122219Y-398348D01*
X121927Y-401320D01*
X122219Y-404292D01*
X123086Y-407150D01*
X124494Y-409783D01*
X126388Y-412092D01*
X127737Y-413199D01*
Y-414841D01*
X126388Y-415948D01*
X124494Y-418257D01*
X123086Y-420890D01*
X122219Y-423748D01*
X121927Y-426720D01*
X122219Y-429692D01*
X123086Y-432550D01*
X124494Y-435183D01*
X126388Y-437492D01*
X127737Y-438599D01*
Y-440242D01*
X126388Y-441348D01*
X125958Y-441872D01*
X119815D01*
X82176Y-404234D01*
X80054Y-402605D01*
X77582Y-401581D01*
X74930Y-401232D01*
X74930Y-401232D01*
X59410D01*
X59003Y-400737D01*
X57620Y-399602D01*
Y-397958D01*
X59003Y-396823D01*
X60893Y-394521D01*
X62297Y-391894D01*
X63161Y-389044D01*
X63453Y-386080D01*
X63161Y-383116D01*
X62297Y-380266D01*
X60893Y-377639D01*
X59003Y-375337D01*
X56701Y-373447D01*
X54363Y-372198D01*
X54681Y-370928D01*
X74365D01*
X81874Y-378436D01*
X83996Y-380065D01*
X86468Y-381088D01*
X89120Y-381438D01*
X91772Y-381088D01*
X94244Y-380065D01*
X96366Y-378436D01*
X97995Y-376314D01*
X99018Y-373842D01*
X99368Y-371190D01*
X99018Y-368538D01*
X97995Y-366066D01*
X96366Y-363944D01*
X85856Y-353434D01*
X83734Y-351805D01*
X81262Y-350782D01*
X78610Y-350432D01*
X78610Y-350432D01*
X58508D01*
Y-317500D01*
X58300Y-315922D01*
Y-307460D01*
X54086D01*
X53898Y-306190D01*
X54074Y-306137D01*
X56701Y-304733D01*
X59003Y-302843D01*
X59410Y-302348D01*
X73225D01*
X103244Y-332366D01*
D02*
G37*
G36*
X188872Y-387515D02*
Y-395304D01*
X187602Y-395735D01*
X186366Y-394124D01*
X160916Y-368674D01*
X158794Y-367045D01*
X156322Y-366021D01*
X153670Y-365672D01*
X153670Y-365672D01*
X148362D01*
X147932Y-365148D01*
X146583Y-364041D01*
Y-362398D01*
X147932Y-361292D01*
X148362Y-360768D01*
X162125D01*
X188872Y-387515D01*
D02*
G37*
G36*
X19213Y-399800D02*
X20232Y-399935D01*
Y-446041D01*
X19059Y-446527D01*
X16598Y-444065D01*
Y-399860D01*
X17654Y-399155D01*
X19213Y-399800D01*
D02*
G37*
G36*
X280137Y-209998D02*
Y-211642D01*
X278788Y-212748D01*
X276894Y-215057D01*
X275486Y-217690D01*
X274619Y-220548D01*
X274327Y-223520D01*
X274619Y-226492D01*
X275486Y-229350D01*
X276894Y-231983D01*
X278788Y-234292D01*
X280137Y-235399D01*
Y-237041D01*
X278788Y-238148D01*
X276894Y-240457D01*
X275486Y-243090D01*
X274619Y-245948D01*
X274327Y-248920D01*
X274619Y-251892D01*
X275486Y-254750D01*
X276894Y-257383D01*
X278788Y-259692D01*
X280137Y-260798D01*
Y-262442D01*
X278788Y-263548D01*
X276894Y-265857D01*
X275486Y-268490D01*
X274619Y-271348D01*
X274327Y-274320D01*
X274619Y-277292D01*
X275486Y-280150D01*
X276894Y-282783D01*
X278788Y-285092D01*
X280137Y-286199D01*
Y-287841D01*
X278788Y-288948D01*
X276894Y-291257D01*
X275486Y-293890D01*
X274619Y-296748D01*
X274327Y-299720D01*
X274619Y-302692D01*
X275486Y-305550D01*
X276894Y-308183D01*
X278788Y-310492D01*
X280137Y-311598D01*
Y-313242D01*
X278788Y-314348D01*
X276894Y-316657D01*
X275486Y-319290D01*
X274619Y-322148D01*
X274327Y-325120D01*
X274619Y-328092D01*
X275486Y-330950D01*
X276894Y-333583D01*
X278788Y-335892D01*
X280137Y-336998D01*
Y-338642D01*
X278788Y-339748D01*
X276894Y-342057D01*
X275486Y-344690D01*
X274619Y-347548D01*
X274327Y-350520D01*
X274619Y-353492D01*
X275486Y-356350D01*
X276894Y-358983D01*
X278788Y-361292D01*
X280137Y-362398D01*
Y-364041D01*
X278788Y-365148D01*
X276894Y-367457D01*
X275486Y-370090D01*
X274619Y-372948D01*
X274327Y-375920D01*
X274619Y-378892D01*
X275486Y-381750D01*
X276894Y-384383D01*
X278788Y-386692D01*
X280137Y-387799D01*
Y-389441D01*
X278788Y-390548D01*
X276894Y-392857D01*
X275486Y-395490D01*
X274619Y-398348D01*
X274327Y-401320D01*
X274619Y-404292D01*
X275486Y-407150D01*
X276894Y-409783D01*
X278788Y-412092D01*
X280137Y-413199D01*
Y-414841D01*
X278788Y-415948D01*
X276894Y-418257D01*
X275486Y-420890D01*
X274619Y-423748D01*
X274327Y-426720D01*
X274619Y-429692D01*
X275486Y-432550D01*
X276894Y-435183D01*
X278788Y-437492D01*
X280137Y-438599D01*
Y-440242D01*
X278788Y-441348D01*
X276894Y-443657D01*
X275486Y-446290D01*
X274619Y-449148D01*
X274327Y-452120D01*
X274619Y-455092D01*
X275486Y-457950D01*
X276894Y-460583D01*
X278788Y-462892D01*
X279830Y-463747D01*
X279733Y-465102D01*
X278867Y-465529D01*
X278163Y-464989D01*
X274765Y-463581D01*
X271118Y-463101D01*
X267471Y-463581D01*
X265424Y-464429D01*
X264368Y-463724D01*
X264368Y-223835D01*
X279075Y-209127D01*
X280137Y-209998D01*
D02*
G37*
G36*
Y-489398D02*
Y-491041D01*
X278788Y-492148D01*
X276894Y-494457D01*
X275486Y-497090D01*
X274619Y-499948D01*
X274327Y-502920D01*
X274619Y-505892D01*
X275486Y-508750D01*
X276894Y-511383D01*
X278788Y-513692D01*
X280137Y-514799D01*
Y-516441D01*
X278788Y-517548D01*
X276894Y-519857D01*
X275486Y-522490D01*
X274619Y-525348D01*
X274327Y-528320D01*
X274619Y-531292D01*
X275486Y-534150D01*
X276894Y-536783D01*
X278788Y-539092D01*
X280137Y-540199D01*
Y-541842D01*
X278788Y-542948D01*
X276894Y-545257D01*
X275486Y-547890D01*
X274619Y-550748D01*
X274327Y-553720D01*
X274619Y-556692D01*
X275486Y-559550D01*
X276894Y-562183D01*
X278788Y-564492D01*
X280137Y-565598D01*
Y-567242D01*
X278788Y-568348D01*
X276894Y-570657D01*
X275486Y-573290D01*
X274619Y-576148D01*
X274587Y-576479D01*
X273391Y-576907D01*
X264368Y-567883D01*
Y-490659D01*
X265424Y-489954D01*
X267471Y-490802D01*
X271118Y-491282D01*
X274765Y-490802D01*
X278163Y-489394D01*
X279181Y-488614D01*
X280137Y-489398D01*
D02*
G37*
G36*
X168872Y-405615D02*
Y-515035D01*
X167602Y-515830D01*
X164897Y-514710D01*
X161250Y-514230D01*
X157603Y-514710D01*
X154205Y-516117D01*
X151657Y-518072D01*
X148362D01*
X147932Y-517548D01*
X146583Y-516441D01*
Y-514799D01*
X147932Y-513692D01*
X149826Y-511383D01*
X151234Y-508750D01*
X152101Y-505892D01*
X152393Y-502920D01*
X152101Y-499948D01*
X151234Y-497090D01*
X149826Y-494457D01*
X147932Y-492148D01*
X146583Y-491041D01*
Y-489398D01*
X147932Y-488292D01*
X149826Y-485983D01*
X151234Y-483350D01*
X152101Y-480492D01*
X152393Y-477520D01*
X152101Y-474548D01*
X151234Y-471690D01*
X149826Y-469057D01*
X147932Y-466748D01*
X146583Y-465642D01*
Y-463998D01*
X147932Y-462892D01*
X149826Y-460583D01*
X151234Y-457950D01*
X152101Y-455092D01*
X152393Y-452120D01*
X152101Y-449148D01*
X151234Y-446290D01*
X149826Y-443657D01*
X147932Y-441348D01*
X146583Y-440242D01*
Y-438599D01*
X147932Y-437492D01*
X149826Y-435183D01*
X151234Y-432550D01*
X152101Y-429692D01*
X152393Y-426720D01*
X152101Y-423748D01*
X151234Y-420890D01*
X149826Y-418257D01*
X147932Y-415948D01*
X146583Y-414841D01*
Y-413199D01*
X147932Y-412092D01*
X149826Y-409783D01*
X151234Y-407150D01*
X152101Y-404292D01*
X152393Y-401320D01*
X152101Y-398348D01*
X151234Y-395490D01*
X149826Y-392857D01*
X147932Y-390548D01*
X146583Y-389441D01*
Y-387799D01*
X147932Y-386692D01*
X148224Y-386335D01*
X149550Y-386292D01*
X168872Y-405615D01*
D02*
G37*
G36*
X108324Y-484766D02*
X108324Y-484766D01*
X110446Y-486395D01*
X112918Y-487419D01*
X115570Y-487768D01*
X115570Y-487768D01*
X125958D01*
X126388Y-488292D01*
X127737Y-489398D01*
Y-491041D01*
X126388Y-492148D01*
X124494Y-494457D01*
X123086Y-497090D01*
X122219Y-499948D01*
X121927Y-502920D01*
X122219Y-505892D01*
X123086Y-508750D01*
X124494Y-511383D01*
X126388Y-513692D01*
X127737Y-514799D01*
Y-516441D01*
X126388Y-517548D01*
X125958Y-518072D01*
X117275D01*
X116928Y-517725D01*
Y-505280D01*
X116928Y-505280D01*
X116579Y-502627D01*
X115555Y-500156D01*
X113926Y-498033D01*
X113926Y-498033D01*
X64291Y-448398D01*
X64817Y-447128D01*
X70685D01*
X108324Y-484766D01*
D02*
G37*
G36*
X76112Y-507165D02*
Y-533662D01*
X74842Y-534289D01*
X73704Y-533415D01*
X71232Y-532392D01*
X68580Y-532042D01*
X68580Y-532042D01*
X59410D01*
X59003Y-531547D01*
X57620Y-530411D01*
Y-528769D01*
X59003Y-527633D01*
X60893Y-525331D01*
X62297Y-522704D01*
X63161Y-519854D01*
X63453Y-516890D01*
X63161Y-513926D01*
X62297Y-511076D01*
X60893Y-508449D01*
X59003Y-506147D01*
X57620Y-505011D01*
Y-503368D01*
X59003Y-502233D01*
X60893Y-499931D01*
X62297Y-497304D01*
X62799Y-495648D01*
X64235Y-495288D01*
X76112Y-507165D01*
D02*
G37*
G36*
X97878Y-527188D02*
X99434Y-529216D01*
X105784Y-535566D01*
X105784Y-535566D01*
X107906Y-537195D01*
X110378Y-538218D01*
X113030Y-538568D01*
X125958D01*
X126388Y-539092D01*
X128631Y-540932D01*
X128634Y-541032D01*
X127929Y-542202D01*
X103305D01*
X96608Y-535505D01*
Y-527966D01*
X97738Y-527185D01*
X97878Y-527188D01*
D02*
G37*
G36*
X37517Y-527633D02*
X38900Y-528769D01*
Y-530411D01*
X37517Y-531547D01*
X35627Y-533849D01*
X34223Y-536476D01*
X33359Y-539326D01*
X33067Y-542290D01*
X33359Y-545254D01*
X34223Y-548104D01*
X35627Y-550731D01*
X37517Y-553033D01*
X38900Y-554169D01*
Y-555812D01*
X37783Y-556729D01*
X36165Y-555487D01*
X32767Y-554080D01*
X29120Y-553600D01*
X25473Y-554080D01*
X23914Y-554725D01*
X22858Y-554020D01*
Y-541545D01*
X36804Y-527598D01*
X37517Y-527633D01*
D02*
G37*
G36*
X125631Y-579120D02*
X126024Y-582104D01*
X126973Y-584395D01*
X125896Y-585114D01*
X104653Y-563871D01*
X105139Y-562698D01*
X125631D01*
Y-579120D01*
D02*
G37*
G36*
X154205Y-540523D02*
X157603Y-541930D01*
X161250Y-542411D01*
X164897Y-541930D01*
X167602Y-540810D01*
X168872Y-541605D01*
Y-564703D01*
X148397Y-585178D01*
X147320Y-584459D01*
X148296Y-582104D01*
X148689Y-579120D01*
Y-553720D01*
X148296Y-550736D01*
X147144Y-547956D01*
X145312Y-545568D01*
X142924Y-543736D01*
X142823Y-543694D01*
X142885Y-542425D01*
X142990Y-542394D01*
X145623Y-540986D01*
X147932Y-539092D01*
X148362Y-538568D01*
X151657D01*
X154205Y-540523D01*
D02*
G37*
G36*
X117184Y-605386D02*
X116698Y-606559D01*
X51874D01*
X49923Y-604608D01*
X50183Y-603338D01*
X82220D01*
X82220Y-603338D01*
X82220Y-603338D01*
X84120D01*
X86772Y-602989D01*
X89244Y-601965D01*
X91366Y-600336D01*
X92995Y-598214D01*
X94018Y-595742D01*
X94368Y-593090D01*
X94243Y-592140D01*
X94368Y-591190D01*
X94018Y-588538D01*
X92995Y-586066D01*
X91366Y-583944D01*
X89244Y-582315D01*
X86772Y-581292D01*
X84120Y-580942D01*
X81468Y-581292D01*
X78996Y-582315D01*
X78309Y-582842D01*
X54681D01*
X54363Y-581572D01*
X56701Y-580323D01*
X59003Y-578433D01*
X60893Y-576131D01*
X62297Y-573504D01*
X63161Y-570654D01*
X63453Y-567690D01*
X63161Y-564726D01*
X62297Y-561876D01*
X60893Y-559249D01*
X59003Y-556947D01*
X57620Y-555812D01*
Y-554169D01*
X59003Y-553033D01*
X59410Y-552538D01*
X64335D01*
X117184Y-605386D01*
D02*
G37*
%LPC*%
G36*
X462229Y-211480D02*
X448310D01*
Y-225399D01*
X450028Y-225229D01*
X452900Y-224358D01*
X455548Y-222943D01*
X457868Y-221038D01*
X459773Y-218718D01*
X461188Y-216070D01*
X462060Y-213197D01*
X462229Y-211480D01*
D02*
G37*
G36*
X445770D02*
X431851D01*
X432020Y-213197D01*
X432892Y-216070D01*
X434307Y-218718D01*
X436212Y-221038D01*
X438532Y-222943D01*
X441180Y-224358D01*
X444052Y-225229D01*
X445770Y-225399D01*
Y-211480D01*
D02*
G37*
G36*
X30000Y-4758D02*
X25076Y-5243D01*
X20340Y-6680D01*
X15977Y-9012D01*
X12151Y-12151D01*
X9012Y-15977D01*
X6680Y-20340D01*
X5243Y-25076D01*
X4758Y-30000D01*
X5243Y-34924D01*
X6680Y-39660D01*
X9012Y-44023D01*
X12151Y-47848D01*
X15977Y-50988D01*
X20340Y-53320D01*
X25076Y-54756D01*
X30000Y-55241D01*
X34924Y-54756D01*
X39660Y-53320D01*
X44023Y-50988D01*
X47848Y-47848D01*
X50988Y-44023D01*
X53320Y-39660D01*
X54756Y-34924D01*
X55241Y-30000D01*
X54756Y-25076D01*
X53320Y-20340D01*
X50988Y-15977D01*
X47848Y-12151D01*
X44023Y-9012D01*
X39660Y-6680D01*
X34924Y-5243D01*
X30000Y-4758D01*
D02*
G37*
G36*
X618490Y-355905D02*
X615036Y-356245D01*
X611714Y-357253D01*
X608653Y-358889D01*
X605970Y-361091D01*
X604106Y-363362D01*
X595470D01*
Y-355990D01*
X560230D01*
Y-391230D01*
X595470D01*
Y-383858D01*
X604106D01*
X605970Y-386130D01*
X608653Y-388331D01*
X611714Y-389968D01*
X615036Y-390975D01*
X618490Y-391315D01*
X621944Y-390975D01*
X625266Y-389968D01*
X628326Y-388331D01*
X631009Y-386130D01*
X633211Y-383447D01*
X634847Y-380386D01*
X635855Y-377064D01*
X636195Y-373610D01*
X635855Y-370156D01*
X634847Y-366835D01*
X633211Y-363774D01*
X631009Y-361091D01*
X628326Y-358889D01*
X625266Y-357253D01*
X621944Y-356245D01*
X618490Y-355905D01*
D02*
G37*
G36*
X645160Y-460554D02*
X642098Y-460856D01*
X639154Y-461749D01*
X636440Y-463200D01*
X634062Y-465151D01*
X632110Y-467530D01*
X630659Y-470244D01*
X629766Y-473188D01*
X629464Y-476250D01*
X629766Y-479312D01*
X630659Y-482256D01*
X632110Y-484970D01*
X634062Y-487349D01*
X635239Y-488315D01*
Y-489585D01*
X634062Y-490551D01*
X632110Y-492930D01*
X630659Y-495644D01*
X629766Y-498588D01*
X629464Y-501650D01*
X629766Y-504712D01*
X630659Y-507656D01*
X632110Y-510370D01*
X634062Y-512748D01*
X635239Y-513715D01*
Y-514985D01*
X634062Y-515951D01*
X632110Y-518330D01*
X630659Y-521044D01*
X629766Y-523988D01*
X629464Y-527050D01*
X629766Y-530112D01*
X630659Y-533056D01*
X632110Y-535770D01*
X634062Y-538148D01*
X635239Y-539115D01*
Y-540385D01*
X634062Y-541352D01*
X632110Y-543730D01*
X630659Y-546444D01*
X629766Y-549388D01*
X629464Y-552450D01*
X629766Y-555512D01*
X630659Y-558456D01*
X632110Y-561170D01*
X634062Y-563549D01*
X635239Y-564515D01*
Y-565785D01*
X634062Y-566752D01*
X632110Y-569130D01*
X630659Y-571844D01*
X629766Y-574788D01*
X629464Y-577850D01*
X629766Y-580912D01*
X630659Y-583856D01*
X632110Y-586570D01*
X634062Y-588949D01*
X635239Y-589915D01*
Y-591185D01*
X634062Y-592151D01*
X632110Y-594530D01*
X630659Y-597244D01*
X629766Y-600188D01*
X629464Y-603250D01*
X629766Y-606312D01*
X630659Y-609256D01*
X632110Y-611970D01*
X634062Y-614348D01*
X636440Y-616300D01*
X639154Y-617751D01*
X642098Y-618644D01*
X645160Y-618946D01*
X648222Y-618644D01*
X651166Y-617751D01*
X653880Y-616300D01*
X656258Y-614348D01*
X656957Y-613498D01*
X721088D01*
X721495Y-613993D01*
X723797Y-615883D01*
X726424Y-617287D01*
X729274Y-618151D01*
X732238Y-618443D01*
X732524Y-618415D01*
X732900Y-619654D01*
X730676Y-620842D01*
X726852Y-623982D01*
X723712Y-627807D01*
X721380Y-632170D01*
X719943Y-636906D01*
X719458Y-641830D01*
X719943Y-646754D01*
X721380Y-651489D01*
X723712Y-655854D01*
X726852Y-659678D01*
X730676Y-662818D01*
X735041Y-665150D01*
X739776Y-666587D01*
X744700Y-667072D01*
X749624Y-666587D01*
X754360Y-665150D01*
X758723Y-662818D01*
X762548Y-659678D01*
X765687Y-655854D01*
X768020Y-651489D01*
X769456Y-646754D01*
X769941Y-641830D01*
X769456Y-636906D01*
X768020Y-632170D01*
X765687Y-627807D01*
X762548Y-623982D01*
X758723Y-620842D01*
X754360Y-618510D01*
X749624Y-617074D01*
X744700Y-616589D01*
X741346Y-616919D01*
X741231Y-616739D01*
X740920Y-615685D01*
X742981Y-613993D01*
X744871Y-611691D01*
X746275Y-609064D01*
X747139Y-606214D01*
X747431Y-603250D01*
X747139Y-600286D01*
X746275Y-597436D01*
X744871Y-594809D01*
X742981Y-592507D01*
X741598Y-591371D01*
Y-589729D01*
X742981Y-588593D01*
X744871Y-586291D01*
X746275Y-583664D01*
X747139Y-580814D01*
X747431Y-577850D01*
X747139Y-574886D01*
X746275Y-572036D01*
X744871Y-569409D01*
X742981Y-567107D01*
X741598Y-565971D01*
Y-564328D01*
X742981Y-563193D01*
X744871Y-560891D01*
X746275Y-558264D01*
X747139Y-555414D01*
X747431Y-552450D01*
X747139Y-549486D01*
X746275Y-546636D01*
X744871Y-544009D01*
X744304Y-543318D01*
X744846Y-542170D01*
X747358D01*
Y-511930D01*
X717118D01*
Y-516802D01*
X656957D01*
X656258Y-515951D01*
X655081Y-514985D01*
Y-513715D01*
X656258Y-512748D01*
X658210Y-510370D01*
X659661Y-507656D01*
X660554Y-504712D01*
X660855Y-501650D01*
X660554Y-498588D01*
X659661Y-495644D01*
X658210Y-492930D01*
X656258Y-490551D01*
X655081Y-489585D01*
Y-488315D01*
X656258Y-487349D01*
X658210Y-484970D01*
X659661Y-482256D01*
X660554Y-479312D01*
X660855Y-476250D01*
X660554Y-473188D01*
X659661Y-470244D01*
X658210Y-467530D01*
X656258Y-465151D01*
X653880Y-463200D01*
X651166Y-461749D01*
X648222Y-460856D01*
X645160Y-460554D01*
D02*
G37*
%LPD*%
G36*
X717118Y-542170D02*
X715861Y-542202D01*
X656957D01*
X656258Y-541352D01*
X655081Y-540385D01*
Y-539115D01*
X656258Y-538148D01*
X656957Y-537298D01*
X717118D01*
Y-542170D01*
D02*
G37*
G36*
X721495Y-563193D02*
X722878Y-564328D01*
Y-565971D01*
X721495Y-567107D01*
X721088Y-567602D01*
X656957D01*
X656258Y-566752D01*
X655081Y-565785D01*
Y-564515D01*
X656258Y-563549D01*
X656957Y-562698D01*
X721088D01*
X721495Y-563193D01*
D02*
G37*
G36*
Y-588593D02*
X722878Y-589729D01*
Y-591371D01*
X721495Y-592507D01*
X721088Y-593002D01*
X656957D01*
X656258Y-592151D01*
X655081Y-591185D01*
Y-589915D01*
X656258Y-588949D01*
X656957Y-588098D01*
X721088D01*
X721495Y-588593D01*
D02*
G37*
D31*
X48260Y-190500D02*
Y-144780D01*
X173736Y-20574D02*
X694781D01*
X753120Y-85372D02*
Y-83046D01*
X694781Y-20574D02*
X752820Y-78613D01*
Y-83346D02*
Y-78613D01*
X688022Y-33274D02*
X740120Y-85372D01*
X286974Y-33274D02*
X688022D01*
X740120Y-303820D02*
Y-85372D01*
X753120D02*
X753120Y-354320D01*
X752820Y-83346D02*
X753120Y-83046D01*
X703933Y-245110D02*
X726780Y-267957D01*
Y-293530D02*
Y-267957D01*
X721496Y-298814D02*
X726780Y-293530D01*
X706496Y-298814D02*
X721496D01*
X711200Y-332740D02*
X740120Y-303820D01*
X37472Y-611670D02*
X42493D01*
X12610Y-586808D02*
X37472Y-611670D01*
X12610Y-586808D02*
Y-537300D01*
X47630Y-616807D02*
X151797D01*
X42493Y-611670D02*
X47630Y-616807D01*
X151797D02*
X199120Y-569484D01*
X704120Y-301190D02*
X706496Y-298814D01*
X697230Y-410210D02*
X753120Y-354320D01*
X660836Y-275590D02*
X703920D01*
X704120Y-275790D01*
X681990Y-300990D02*
X682190Y-301190D01*
X704120D01*
X271118Y-477192D02*
X289228D01*
X289230Y-477190D01*
X289560Y-477520D01*
X620120Y-54190D02*
X620530Y-54600D01*
X681580D01*
X681990Y-55010D01*
X507120Y-187190D02*
X507370Y-186940D01*
X568710D01*
X568960Y-186690D01*
X398780Y-147320D02*
X406260Y-139840D01*
Y-136030D01*
Y-181050D02*
Y-139840D01*
X406120Y-181190D02*
X406260Y-181050D01*
Y-136030D02*
X406400Y-135890D01*
X426050Y-505120D02*
X426120Y-505190D01*
X394730Y-505120D02*
X426050D01*
X394660Y-505050D02*
X394730Y-505120D01*
X312985Y-249055D02*
X313120Y-249190D01*
X289695Y-249055D02*
X312985D01*
X289560Y-248920D02*
X289695Y-249055D01*
X400751Y-277821D02*
X503229D01*
X346450Y-223520D02*
X400751Y-277821D01*
X289560Y-223520D02*
X346450D01*
X274120Y-476190D02*
X274785Y-476855D01*
X288895D01*
X289560Y-477520D01*
X29120Y-566190D02*
X29870Y-566940D01*
X254120Y-572128D02*
X278892Y-596900D01*
X254120Y-219590D02*
X254120Y-572128D01*
X254120Y-219590D02*
X275590Y-198120D01*
X239120Y-580750D02*
X267970Y-609600D01*
X239120Y-204110D02*
X239120Y-580750D01*
X239120Y-204110D02*
X270510Y-172720D01*
X48260Y-360680D02*
X78610D01*
X89120Y-371190D01*
X29120Y-567690D02*
X48260D01*
X47510Y-566940D02*
X48260Y-567690D01*
X12610Y-537300D02*
X33020Y-516890D01*
X82220Y-593090D02*
X84120Y-591190D01*
X82220Y-593090D02*
X84120D01*
X48260D02*
X82220D01*
X29120Y-491190D02*
X29420Y-491490D01*
X48260D01*
X35560Y-386135D02*
X48205D01*
X22915D02*
X35560D01*
X30480Y-391215D02*
X35560Y-386135D01*
X30480Y-451750D02*
Y-391215D01*
X22860Y-386190D02*
X22915Y-386135D01*
X48205D02*
X48260Y-386080D01*
X14630Y-360680D02*
X48260D01*
X6350Y-368960D02*
X14630Y-360680D01*
X6350Y-448310D02*
Y-368960D01*
Y-448310D02*
X25654Y-467614D01*
X29120Y-191190D02*
X29810Y-190500D01*
X48260D01*
X9120Y-111530D02*
X26670Y-93980D01*
X9120Y-294870D02*
Y-111530D01*
Y-294870D02*
X31750Y-317500D01*
X269120Y-96190D02*
X289230D01*
X289560Y-96520D01*
X194089Y-126159D02*
X286974Y-33274D01*
X194089Y-126159D02*
X194120Y-126190D01*
Y-176190D02*
Y-126190D01*
X172190Y-198120D02*
X194120Y-176190D01*
X137160Y-198120D02*
X172190D01*
X137160Y-528320D02*
X161250D01*
X153670Y-375920D02*
X179120Y-401370D01*
Y-568948D02*
Y-401370D01*
X143961Y-604107D02*
X179120Y-568948D01*
X166370Y-350520D02*
X199120Y-383270D01*
Y-569484D02*
Y-383270D01*
X324120Y-121920D02*
X359410D01*
X289560D02*
X324120D01*
Y-96190D01*
X48690Y-66620D02*
X49120Y-66190D01*
X48690Y-93550D02*
Y-66620D01*
X48260Y-93980D02*
X48690Y-93550D01*
X334010Y-622300D02*
X375060Y-581250D01*
X394660D01*
X325030Y-609600D02*
X378780Y-555850D01*
X267970Y-609600D02*
X325030D01*
X378780Y-555850D02*
X394660D01*
X311930Y-596900D02*
X378380Y-530450D01*
X278892Y-596900D02*
X311930D01*
X378380Y-530450D02*
X394660D01*
X651820Y-603250D02*
X732238D01*
X651820Y-577850D02*
X732238D01*
X651820Y-552450D02*
X732238D01*
X640160Y-527050D02*
X727238D01*
X110490Y-299720D02*
X137160D01*
X77470Y-266700D02*
X110490Y-299720D01*
X48260Y-266700D02*
X77470D01*
X108131Y-274320D02*
X137160D01*
X87810Y-254000D02*
X108131Y-274320D01*
X87630Y-254000D02*
X87810D01*
X74930Y-241300D02*
X87630Y-254000D01*
X48260Y-241300D02*
X74930D01*
X30480Y-451750D02*
X33456Y-454726D01*
X56126D01*
X681990Y-169310D02*
Y-105010D01*
X586620Y-67310D02*
X624320Y-105010D01*
X681990D01*
X618490Y-266470D02*
Y-256540D01*
X610616Y-248666D02*
X618490Y-256540D01*
X565404Y-248666D02*
X610616D01*
X56126Y-454726D02*
X106680Y-505280D01*
Y-521970D02*
Y-505280D01*
Y-521970D02*
X113030Y-528320D01*
X137160D01*
X130397Y-604107D02*
X143961D01*
X48260Y-542290D02*
X68580D01*
X130397Y-604107D01*
X255270Y-622300D02*
X334010D01*
X226060Y-161290D02*
X265430Y-121920D01*
X226060Y-161290D02*
X226060Y-593090D01*
X255270Y-622300D01*
X275590Y-198120D02*
X289560D01*
X270510Y-172720D02*
X289560D01*
X577850Y-373610D02*
X618490D01*
X647700Y-262454D02*
X660836Y-275590D01*
X647700Y-262454D02*
Y-247650D01*
X604520Y-204470D02*
X647700Y-247650D01*
X604520Y-204470D02*
Y-153670D01*
X586740Y-135890D02*
X604520Y-153670D01*
X568960Y-135890D02*
X586740D01*
X619760Y-184848D02*
Y-143510D01*
X586740Y-110490D02*
X619760Y-143510D01*
X586440Y-85090D02*
X632460Y-131110D01*
Y-148590D02*
Y-131110D01*
Y-148590D02*
X681990Y-198120D01*
Y-219310D02*
Y-198120D01*
X680022Y-245110D02*
X703933D01*
X619760Y-184848D02*
X680022Y-245110D01*
X591820Y-300990D02*
X681990D01*
X577850Y-287020D02*
X591820Y-300990D01*
X577850Y-287020D02*
Y-269010D01*
X568960Y-110490D02*
X586740D01*
X33020Y-516890D02*
X48260D01*
X99060Y-552450D02*
X135890D01*
X137160Y-553720D01*
X86360Y-539750D02*
X99060Y-552450D01*
X86360Y-539750D02*
Y-502920D01*
X51054Y-467614D02*
X86360Y-502920D01*
X25654Y-467614D02*
X51054D01*
X115570Y-452120D02*
X137160D01*
X74930Y-411480D02*
X115570Y-452120D01*
X48260Y-411480D02*
X74930D01*
X115570Y-477520D02*
X137160D01*
X74930Y-436880D02*
X115570Y-477520D01*
X48260Y-436880D02*
X74930D01*
X137160Y-375920D02*
X153670D01*
X137160Y-350520D02*
X166370D01*
X31750Y-317500D02*
X48260D01*
X105410Y-248920D02*
X137160D01*
X72390Y-215900D02*
X105410Y-248920D01*
X48260Y-215900D02*
X72390D01*
X110490Y-325120D02*
X137160D01*
X77470Y-292100D02*
X110490Y-325120D01*
X48260Y-292100D02*
X77470D01*
X26670Y-93980D02*
X48260D01*
X137160Y-57150D02*
X173736Y-20574D01*
X137160Y-96520D02*
Y-57150D01*
X358140Y-77470D02*
X368300Y-67310D01*
X358140Y-97790D02*
Y-77470D01*
Y-97790D02*
X370840Y-110490D01*
X265430Y-121920D02*
X289560D01*
X370840Y-110490D02*
X406400D01*
X359410Y-121920D02*
X370840Y-110490D01*
X447040Y-210210D02*
Y-124460D01*
X433070Y-110490D02*
X447040Y-124460D01*
X406400Y-110490D02*
X433070D01*
X568960Y-85090D02*
X586440D01*
X406400D02*
X568960D01*
X557530Y-256540D02*
X565404Y-248666D01*
X557530Y-290068D02*
Y-256540D01*
Y-290068D02*
X600202Y-332740D01*
X711200D01*
X503229Y-277821D02*
X568960Y-212090D01*
X289560Y-147320D02*
X398780D01*
X48260Y-360680D02*
Y-317500D01*
X495960Y-161290D02*
X568960D01*
X447040Y-210210D02*
X495960Y-161290D01*
X368300Y-67310D02*
X586620D01*
X678180Y-169310D02*
X681990D01*
X48260Y-119380D02*
X85090D01*
X114300Y-148590D01*
Y-200660D02*
Y-148590D01*
Y-200660D02*
X137160Y-223520D01*
X447040Y-410210D02*
X697230D01*
D32*
X289560Y-96520D02*
D03*
Y-121920D02*
D03*
Y-147320D02*
D03*
Y-172720D02*
D03*
Y-198120D02*
D03*
Y-223520D02*
D03*
Y-248920D02*
D03*
Y-274320D02*
D03*
Y-299720D02*
D03*
Y-325120D02*
D03*
Y-350520D02*
D03*
Y-375920D02*
D03*
Y-401320D02*
D03*
Y-426720D02*
D03*
Y-452120D02*
D03*
Y-477520D02*
D03*
Y-502920D02*
D03*
Y-528320D02*
D03*
Y-553720D02*
D03*
Y-579120D02*
D03*
X137160D02*
D03*
Y-553720D02*
D03*
Y-528320D02*
D03*
Y-502920D02*
D03*
Y-477520D02*
D03*
Y-452120D02*
D03*
Y-426720D02*
D03*
Y-401320D02*
D03*
Y-375920D02*
D03*
Y-350520D02*
D03*
Y-325120D02*
D03*
Y-299720D02*
D03*
Y-274320D02*
D03*
Y-248920D02*
D03*
Y-223520D02*
D03*
Y-198120D02*
D03*
Y-172720D02*
D03*
Y-147320D02*
D03*
Y-121920D02*
D03*
D33*
Y-96520D02*
D03*
D34*
X447040Y-210210D02*
D03*
D35*
Y-410210D02*
D03*
D36*
X406400Y-135890D02*
D03*
Y-110490D02*
D03*
Y-85090D02*
D03*
D37*
X394660Y-581250D02*
D03*
Y-555850D02*
D03*
Y-530450D02*
D03*
Y-505050D02*
D03*
X645160Y-603250D02*
D03*
Y-577850D02*
D03*
Y-552450D02*
D03*
Y-527050D02*
D03*
Y-501650D02*
D03*
Y-476250D02*
D03*
D38*
X394660Y-471250D02*
D03*
Y-616250D02*
D03*
D39*
X618490Y-269010D02*
D03*
X577850Y-373610D02*
D03*
D40*
X618490D02*
D03*
X577850Y-269010D02*
D03*
D41*
X681990Y-55010D02*
D03*
Y-105010D02*
D03*
Y-219310D02*
D03*
Y-169310D02*
D03*
D42*
X744700Y-30000D02*
D03*
Y-641830D02*
D03*
X30000Y-30000D02*
D03*
X30000Y-641830D02*
D03*
D43*
X48260Y-93980D02*
D03*
Y-119380D02*
D03*
Y-411480D02*
D03*
Y-386080D02*
D03*
Y-360680D02*
D03*
X732238Y-603250D02*
D03*
Y-577850D02*
D03*
Y-552450D02*
D03*
X48260Y-292100D02*
D03*
Y-266700D02*
D03*
Y-241300D02*
D03*
Y-215900D02*
D03*
Y-190500D02*
D03*
Y-491490D02*
D03*
Y-516890D02*
D03*
Y-542290D02*
D03*
Y-567690D02*
D03*
X568960Y-110490D02*
D03*
Y-135890D02*
D03*
Y-161290D02*
D03*
Y-186690D02*
D03*
Y-212090D02*
D03*
D44*
X48260Y-144780D02*
D03*
Y-436880D02*
D03*
X732238Y-527050D02*
D03*
X48260Y-317500D02*
D03*
Y-593090D02*
D03*
X568960Y-85090D02*
D03*
D45*
X704120Y-275790D02*
D03*
Y-301190D02*
D03*
D46*
X271118Y-477192D02*
D03*
X620120Y-54190D02*
D03*
X507120Y-187190D02*
D03*
X406120Y-181190D02*
D03*
X426120Y-505190D02*
D03*
X313120Y-249190D02*
D03*
X89120Y-371190D02*
D03*
X29120Y-567690D02*
D03*
X84120Y-593090D02*
D03*
X29120Y-491190D02*
D03*
X22860Y-386190D02*
D03*
X29120Y-191190D02*
D03*
X269120Y-96190D02*
D03*
X161250Y-528320D02*
D03*
X324120Y-96190D02*
D03*
X49120Y-66190D02*
D03*
D47*
X137160Y-579120D02*
Y-553720D01*
X577850Y-373610D02*
Y-371070D01*
M02*
