G04*
G04 #@! TF.GenerationSoftware,Altium Limited,Altium Designer,19.1.5 (86)*
G04*
G04 Layer_Physical_Order=1*
G04 Layer_Color=255*
%FSLAX44Y44*%
%MOMM*%
G71*
G01*
G75*
%ADD31C,0.5080*%
%ADD32C,1.5080*%
%ADD33R,1.5080X1.5080*%
%ADD34C,2.5400*%
%ADD35R,2.5400X2.5400*%
%ADD36C,1.5240*%
%ADD37C,1.6000*%
%ADD38C,4.0000*%
%ADD39R,2.0000X2.0000*%
%ADD40C,2.0000*%
%ADD41O,2.1000X1.4000*%
%ADD42C,3.5000*%
%ADD43C,1.5000*%
%ADD44R,1.5000X1.5000*%
%ADD45O,2.5000X1.7500*%
%ADD46C,1.2700*%
G36*
X774700Y-671830D02*
X-0D01*
Y-0D01*
X0Y0D01*
X774700D01*
Y-671830D01*
D02*
G37*
%LPC*%
G36*
X413765Y-57062D02*
X413764Y-57062D01*
X374650D01*
X374650Y-57062D01*
X371998Y-57411D01*
X369526Y-58435D01*
X367404Y-60064D01*
X343274Y-84194D01*
X341645Y-86316D01*
X340621Y-88788D01*
X340272Y-91440D01*
X340272Y-91440D01*
Y-218005D01*
X320802Y-237476D01*
X320165Y-236987D01*
X316767Y-235580D01*
X313120Y-235100D01*
X309473Y-235580D01*
X306075Y-236987D01*
X303156Y-239226D01*
X302841Y-239638D01*
X301571Y-239659D01*
X300332Y-238148D01*
X298983Y-237041D01*
Y-235399D01*
X300332Y-234292D01*
X302226Y-231983D01*
X303634Y-229350D01*
X304501Y-226492D01*
X304793Y-223520D01*
X304501Y-220548D01*
X303634Y-217690D01*
X302226Y-215057D01*
X300332Y-212748D01*
X298983Y-211642D01*
Y-209998D01*
X300332Y-208892D01*
X302226Y-206583D01*
X303634Y-203950D01*
X304501Y-201092D01*
X304793Y-198120D01*
X304501Y-195148D01*
X303634Y-192290D01*
X302226Y-189657D01*
X300332Y-187348D01*
X298983Y-186241D01*
Y-184599D01*
X300332Y-183492D01*
X302226Y-181183D01*
X303634Y-178550D01*
X304501Y-175692D01*
X304793Y-172720D01*
X304501Y-169748D01*
X303634Y-166890D01*
X302226Y-164257D01*
X300332Y-161948D01*
X298983Y-160842D01*
Y-159199D01*
X300332Y-158092D01*
X302226Y-155783D01*
X303634Y-153150D01*
X304501Y-150292D01*
X304793Y-147320D01*
X304501Y-144348D01*
X303634Y-141490D01*
X302226Y-138857D01*
X300332Y-136548D01*
X298023Y-134654D01*
X295389Y-133246D01*
X293361Y-132631D01*
X293295Y-131284D01*
X294643Y-130725D01*
X296749Y-129109D01*
X298365Y-127003D01*
X299380Y-124551D01*
X299560Y-123190D01*
X289560D01*
X279560D01*
X279739Y-124551D01*
X280755Y-127003D01*
X282371Y-129109D01*
X284477Y-130725D01*
X285825Y-131284D01*
X285759Y-132631D01*
X283730Y-133246D01*
X281097Y-134654D01*
X278788Y-136548D01*
X276894Y-138857D01*
X275486Y-141490D01*
X274619Y-144348D01*
X274327Y-147320D01*
X274619Y-150292D01*
X275486Y-153150D01*
X276894Y-155783D01*
X278788Y-158092D01*
X280137Y-159199D01*
Y-160842D01*
X278788Y-161948D01*
X276894Y-164257D01*
X275486Y-166890D01*
X274619Y-169748D01*
X274327Y-172720D01*
X274619Y-175692D01*
X275486Y-178550D01*
X276894Y-181183D01*
X278788Y-183492D01*
X280137Y-184599D01*
Y-186241D01*
X278788Y-187348D01*
X276894Y-189657D01*
X275486Y-192290D01*
X274619Y-195148D01*
X274327Y-198120D01*
X274619Y-201092D01*
X275486Y-203950D01*
X276894Y-206583D01*
X278788Y-208892D01*
X280137Y-209998D01*
Y-211642D01*
X278788Y-212748D01*
X276894Y-215057D01*
X275486Y-217690D01*
X274619Y-220548D01*
X274327Y-223520D01*
X274619Y-226492D01*
X275486Y-229350D01*
X276894Y-231983D01*
X278788Y-234292D01*
X280137Y-235399D01*
Y-237041D01*
X278788Y-238148D01*
X276894Y-240457D01*
X275486Y-243090D01*
X274619Y-245948D01*
X274327Y-248920D01*
X274619Y-251892D01*
X275486Y-254750D01*
X276894Y-257383D01*
X278788Y-259692D01*
X280137Y-260798D01*
Y-262442D01*
X278788Y-263548D01*
X276894Y-265857D01*
X275486Y-268490D01*
X274619Y-271348D01*
X274327Y-274320D01*
X274619Y-277292D01*
X275486Y-280150D01*
X276894Y-282783D01*
X278788Y-285092D01*
X280137Y-286199D01*
Y-287841D01*
X278788Y-288948D01*
X276894Y-291257D01*
X275486Y-293890D01*
X274619Y-296748D01*
X274327Y-299720D01*
X274619Y-302692D01*
X275486Y-305550D01*
X276894Y-308183D01*
X278788Y-310492D01*
X280137Y-311598D01*
Y-313242D01*
X278788Y-314348D01*
X276894Y-316657D01*
X275486Y-319290D01*
X274619Y-322148D01*
X274327Y-325120D01*
X274619Y-328092D01*
X275486Y-330950D01*
X276894Y-333583D01*
X278788Y-335892D01*
X280137Y-336998D01*
Y-338642D01*
X278788Y-339748D01*
X276894Y-342057D01*
X275486Y-344690D01*
X274619Y-347548D01*
X274327Y-350520D01*
X274619Y-353492D01*
X275486Y-356350D01*
X276894Y-358983D01*
X278788Y-361292D01*
X280137Y-362398D01*
Y-364041D01*
X278788Y-365148D01*
X276894Y-367457D01*
X275486Y-370090D01*
X274619Y-372948D01*
X274327Y-375920D01*
X274619Y-378892D01*
X275486Y-381750D01*
X276894Y-384383D01*
X278788Y-386692D01*
X280137Y-387799D01*
Y-389441D01*
X278788Y-390548D01*
X276894Y-392857D01*
X275486Y-395490D01*
X274619Y-398348D01*
X274327Y-401320D01*
X274619Y-404292D01*
X275486Y-407150D01*
X276894Y-409783D01*
X278788Y-412092D01*
X280137Y-413199D01*
Y-414841D01*
X278788Y-415948D01*
X276894Y-418257D01*
X275486Y-420890D01*
X274619Y-423748D01*
X274327Y-426720D01*
X274619Y-429692D01*
X275486Y-432550D01*
X276894Y-435183D01*
X278788Y-437492D01*
X280137Y-438599D01*
Y-440242D01*
X278788Y-441348D01*
X276894Y-443657D01*
X275486Y-446290D01*
X274619Y-449148D01*
X274327Y-452120D01*
X274619Y-455092D01*
X275486Y-457950D01*
X276894Y-460583D01*
X278788Y-462892D01*
X279830Y-463747D01*
X279733Y-465102D01*
X278867Y-465529D01*
X278163Y-464989D01*
X274765Y-463581D01*
X271118Y-463101D01*
X267471Y-463581D01*
X264073Y-464989D01*
X261154Y-467228D01*
X258915Y-470146D01*
X257508Y-473545D01*
X257027Y-477192D01*
X257508Y-480839D01*
X258915Y-484237D01*
X260870Y-486785D01*
Y-491717D01*
X151645Y-600942D01*
X90576D01*
X90145Y-599672D01*
X90460Y-599430D01*
X91019Y-598703D01*
X91366Y-598436D01*
X92995Y-596314D01*
X94018Y-593842D01*
X94368Y-591190D01*
Y-590435D01*
X96366Y-588436D01*
X97995Y-586314D01*
X99018Y-583842D01*
X99368Y-581190D01*
X99368Y-581190D01*
Y-371190D01*
X99018Y-368538D01*
X97995Y-366066D01*
X96366Y-363944D01*
X94244Y-362315D01*
X91772Y-361292D01*
X89120Y-360942D01*
X86468Y-361292D01*
X83996Y-362315D01*
X81874Y-363944D01*
X80245Y-366066D01*
X79222Y-368538D01*
X78872Y-371190D01*
Y-576945D01*
X76874Y-578944D01*
X75245Y-581066D01*
X74222Y-583538D01*
X73872Y-586190D01*
X73872Y-586190D01*
Y-591190D01*
X74222Y-593842D01*
X75245Y-596314D01*
X76874Y-598436D01*
X77221Y-598703D01*
X77779Y-599430D01*
X78095Y-599672D01*
X77664Y-600942D01*
X58300D01*
Y-594360D01*
X48260D01*
X38220D01*
Y-600942D01*
X29368D01*
Y-581935D01*
X29583Y-581720D01*
X32767Y-581300D01*
X36165Y-579893D01*
X37783Y-578652D01*
X39819Y-580323D01*
X42446Y-581727D01*
X42622Y-581780D01*
X42433Y-583050D01*
X38220D01*
Y-591820D01*
X48260D01*
X58300D01*
Y-583050D01*
X54086D01*
X53898Y-581780D01*
X54074Y-581727D01*
X56701Y-580323D01*
X59003Y-578433D01*
X60893Y-576131D01*
X62297Y-573504D01*
X63161Y-570654D01*
X63453Y-567690D01*
X63161Y-564726D01*
X62297Y-561876D01*
X60893Y-559249D01*
X59003Y-556947D01*
X57620Y-555812D01*
Y-554169D01*
X59003Y-553033D01*
X60893Y-550731D01*
X62297Y-548104D01*
X63161Y-545254D01*
X63453Y-542290D01*
X63161Y-539326D01*
X62297Y-536476D01*
X60893Y-533849D01*
X59003Y-531547D01*
X57620Y-530411D01*
Y-528769D01*
X59003Y-527633D01*
X60893Y-525331D01*
X62297Y-522704D01*
X63161Y-519854D01*
X63453Y-516890D01*
X63161Y-513926D01*
X62297Y-511076D01*
X60893Y-508449D01*
X59003Y-506147D01*
X57620Y-505011D01*
Y-503368D01*
X59003Y-502233D01*
X60893Y-499931D01*
X62297Y-497304D01*
X63161Y-494454D01*
X63453Y-491490D01*
X63161Y-488526D01*
X62297Y-485676D01*
X60893Y-483049D01*
X59003Y-480747D01*
X56701Y-478857D01*
X54074Y-477453D01*
X51224Y-476589D01*
X48260Y-476297D01*
X45296Y-476589D01*
X42446Y-477453D01*
X39819Y-478857D01*
X37972Y-480373D01*
X36165Y-478987D01*
X33108Y-477721D01*
Y-453257D01*
X33140Y-452000D01*
X63380D01*
Y-421760D01*
X60868D01*
X60325Y-420612D01*
X60893Y-419921D01*
X62297Y-417294D01*
X63161Y-414444D01*
X63453Y-411480D01*
X63161Y-408516D01*
X62297Y-405666D01*
X60893Y-403039D01*
X59003Y-400737D01*
X57620Y-399602D01*
Y-397958D01*
X59003Y-396823D01*
X60893Y-394521D01*
X62297Y-391894D01*
X63161Y-389044D01*
X63453Y-386080D01*
X63161Y-383116D01*
X62297Y-380266D01*
X60893Y-377639D01*
X59003Y-375337D01*
X56701Y-373447D01*
X54074Y-372043D01*
X51942Y-371397D01*
X51876Y-370049D01*
X53323Y-369450D01*
X55421Y-367841D01*
X57030Y-365743D01*
X58042Y-363301D01*
X58219Y-361950D01*
X48260D01*
X38301D01*
X38478Y-363301D01*
X39490Y-365743D01*
X41099Y-367841D01*
X43197Y-369450D01*
X44644Y-370049D01*
X44578Y-371397D01*
X42446Y-372043D01*
X39819Y-373447D01*
X37517Y-375337D01*
X35627Y-377639D01*
X35474Y-377927D01*
X34208Y-378031D01*
X33108Y-376597D01*
Y-298521D01*
X34378Y-298203D01*
X35627Y-300541D01*
X37517Y-302843D01*
X39819Y-304733D01*
X42446Y-306137D01*
X42622Y-306190D01*
X42433Y-307460D01*
X38220D01*
Y-316230D01*
X48260D01*
X58300D01*
Y-307460D01*
X54086D01*
X53898Y-306190D01*
X54074Y-306137D01*
X56701Y-304733D01*
X59003Y-302843D01*
X60893Y-300541D01*
X62297Y-297914D01*
X63161Y-295064D01*
X63453Y-292100D01*
X63161Y-289136D01*
X62297Y-286286D01*
X60893Y-283659D01*
X59003Y-281357D01*
X57620Y-280222D01*
Y-278578D01*
X59003Y-277443D01*
X60893Y-275141D01*
X62297Y-272514D01*
X63161Y-269664D01*
X63453Y-266700D01*
X63161Y-263736D01*
X62297Y-260886D01*
X60893Y-258259D01*
X59003Y-255957D01*
X57620Y-254821D01*
Y-253179D01*
X59003Y-252043D01*
X60893Y-249741D01*
X62297Y-247114D01*
X63161Y-244264D01*
X63453Y-241300D01*
X63161Y-238336D01*
X62297Y-235486D01*
X60893Y-232859D01*
X59003Y-230557D01*
X57620Y-229422D01*
Y-227778D01*
X59003Y-226643D01*
X60893Y-224341D01*
X62297Y-221714D01*
X63161Y-218864D01*
X63453Y-215900D01*
X63161Y-212936D01*
X62297Y-210086D01*
X60893Y-207459D01*
X59003Y-205157D01*
X57620Y-204021D01*
Y-202379D01*
X59003Y-201243D01*
X60893Y-198941D01*
X62297Y-196314D01*
X63161Y-193464D01*
X63453Y-190500D01*
X63161Y-187536D01*
X62297Y-184686D01*
X60893Y-182059D01*
X59003Y-179757D01*
X56701Y-177867D01*
X54074Y-176463D01*
X51224Y-175599D01*
X48260Y-175307D01*
X45296Y-175599D01*
X42446Y-176463D01*
X39819Y-177867D01*
X37517Y-179757D01*
X37382Y-179921D01*
X36165Y-178987D01*
X32767Y-177580D01*
X29120Y-177099D01*
X25473Y-177580D01*
X22075Y-178987D01*
X19157Y-181227D01*
X16917Y-184145D01*
X15510Y-187543D01*
X15029Y-191190D01*
X15236Y-192758D01*
X13985Y-194388D01*
X12961Y-196860D01*
X12612Y-199512D01*
X12612Y-199512D01*
Y-376597D01*
X10657Y-379145D01*
X9250Y-382543D01*
X8769Y-386190D01*
X9250Y-389837D01*
X10657Y-393235D01*
X12612Y-395783D01*
Y-482868D01*
X12612Y-482868D01*
X12961Y-485520D01*
X13985Y-487992D01*
X15236Y-489622D01*
X15029Y-491190D01*
X15510Y-494837D01*
X16917Y-498235D01*
X19157Y-501153D01*
X22075Y-503393D01*
X25473Y-504800D01*
X29120Y-505280D01*
X32767Y-504800D01*
X36165Y-503393D01*
X37594Y-502296D01*
X38900Y-503368D01*
Y-505011D01*
X37517Y-506147D01*
X35627Y-508449D01*
X34223Y-511076D01*
X33359Y-513926D01*
X33067Y-516890D01*
X33359Y-519854D01*
X34223Y-522704D01*
X35627Y-525331D01*
X37517Y-527633D01*
X38900Y-528769D01*
Y-530411D01*
X37517Y-531547D01*
X35627Y-533849D01*
X34223Y-536476D01*
X33359Y-539326D01*
X33067Y-542290D01*
X33359Y-545254D01*
X34223Y-548104D01*
X35627Y-550731D01*
X37517Y-553033D01*
X38900Y-554169D01*
Y-555812D01*
X37783Y-556729D01*
X36165Y-555487D01*
X32767Y-554080D01*
X29120Y-553600D01*
X25473Y-554080D01*
X22075Y-555487D01*
X19157Y-557727D01*
X16917Y-560645D01*
X15510Y-564043D01*
X15090Y-567227D01*
X11874Y-570444D01*
X10245Y-572566D01*
X9222Y-575038D01*
X8872Y-577690D01*
X8872Y-577690D01*
Y-605230D01*
X8872Y-605230D01*
X9222Y-607882D01*
X10245Y-610354D01*
X11874Y-612476D01*
X16151Y-616753D01*
X16002Y-618015D01*
X13715Y-619416D01*
X10409Y-622239D01*
X7586Y-625545D01*
X5314Y-629252D01*
X3651Y-633269D01*
X2636Y-637496D01*
X2295Y-641830D01*
X2636Y-646164D01*
X3651Y-650391D01*
X5314Y-654408D01*
X7586Y-658115D01*
X10409Y-661421D01*
X13715Y-664244D01*
X17422Y-666516D01*
X21439Y-668179D01*
X25666Y-669194D01*
X30000Y-669535D01*
X34334Y-669194D01*
X38561Y-668179D01*
X42578Y-666516D01*
X46285Y-664244D01*
X49591Y-661421D01*
X52414Y-658115D01*
X54686Y-654408D01*
X56349Y-650391D01*
X57364Y-646164D01*
X57705Y-641830D01*
X57364Y-637496D01*
X56349Y-633269D01*
X54686Y-629252D01*
X52414Y-625545D01*
X49991Y-622708D01*
X50576Y-621438D01*
X155890D01*
X155890Y-621438D01*
X158542Y-621088D01*
X161014Y-620065D01*
X163136Y-618436D01*
X273993Y-507579D01*
X275225Y-507888D01*
X275486Y-508750D01*
X276894Y-511383D01*
X278788Y-513692D01*
X280137Y-514799D01*
Y-516441D01*
X278788Y-517548D01*
X276894Y-519857D01*
X275486Y-522490D01*
X274619Y-525348D01*
X274327Y-528320D01*
X274619Y-531292D01*
X275486Y-534150D01*
X276894Y-536783D01*
X278788Y-539092D01*
X280137Y-540199D01*
Y-541842D01*
X278788Y-542948D01*
X276894Y-545257D01*
X275486Y-547890D01*
X274619Y-550748D01*
X274327Y-553720D01*
X274619Y-556692D01*
X275486Y-559550D01*
X276894Y-562183D01*
X278788Y-564492D01*
X280137Y-565598D01*
Y-567242D01*
X278788Y-568348D01*
X276894Y-570657D01*
X275486Y-573290D01*
X274619Y-576148D01*
X274327Y-579120D01*
X274619Y-582092D01*
X275486Y-584950D01*
X276894Y-587583D01*
X278788Y-589892D01*
X281097Y-591786D01*
X283730Y-593194D01*
X286588Y-594061D01*
X289560Y-594353D01*
X292532Y-594061D01*
X295389Y-593194D01*
X298023Y-591786D01*
X300332Y-589892D01*
X302226Y-587583D01*
X303634Y-584950D01*
X304501Y-582092D01*
X304793Y-579120D01*
X304501Y-576148D01*
X303634Y-573290D01*
X302226Y-570657D01*
X300332Y-568348D01*
X298983Y-567242D01*
Y-565598D01*
X300332Y-564492D01*
X302226Y-562183D01*
X303634Y-559550D01*
X304501Y-556692D01*
X304793Y-553720D01*
X304501Y-550748D01*
X303634Y-547890D01*
X302226Y-545257D01*
X300332Y-542948D01*
X298983Y-541842D01*
Y-540199D01*
X300332Y-539092D01*
X302226Y-536783D01*
X303634Y-534150D01*
X304501Y-531292D01*
X304793Y-528320D01*
X304501Y-525348D01*
X303634Y-522490D01*
X302226Y-519857D01*
X300332Y-517548D01*
X298983Y-516441D01*
Y-514799D01*
X300332Y-513692D01*
X302226Y-511383D01*
X303634Y-508750D01*
X304501Y-505892D01*
X304793Y-502920D01*
X304501Y-499948D01*
X303634Y-497090D01*
X302226Y-494457D01*
X300332Y-492148D01*
X298983Y-491041D01*
Y-489398D01*
X300332Y-488292D01*
X302226Y-485983D01*
X303634Y-483350D01*
X304501Y-480492D01*
X304793Y-477520D01*
X304501Y-474548D01*
X303634Y-471690D01*
X302226Y-469057D01*
X300332Y-466748D01*
X298983Y-465642D01*
Y-463998D01*
X300332Y-462892D01*
X302226Y-460583D01*
X303634Y-457950D01*
X304501Y-455092D01*
X304793Y-452120D01*
X304501Y-449148D01*
X303634Y-446290D01*
X302226Y-443657D01*
X300332Y-441348D01*
X298983Y-440242D01*
Y-438599D01*
X300332Y-437492D01*
X302226Y-435183D01*
X303634Y-432550D01*
X304501Y-429692D01*
X304793Y-426720D01*
X304501Y-423748D01*
X303634Y-420890D01*
X302226Y-418257D01*
X300332Y-415948D01*
X298983Y-414841D01*
Y-413199D01*
X300332Y-412092D01*
X302226Y-409783D01*
X303634Y-407150D01*
X304501Y-404292D01*
X304793Y-401320D01*
X304501Y-398348D01*
X303634Y-395490D01*
X302226Y-392857D01*
X300332Y-390548D01*
X298983Y-389441D01*
Y-387799D01*
X300332Y-386692D01*
X302226Y-384383D01*
X303634Y-381750D01*
X304501Y-378892D01*
X304793Y-375920D01*
X304501Y-372948D01*
X303634Y-370090D01*
X302226Y-367457D01*
X300332Y-365148D01*
X298983Y-364041D01*
Y-362398D01*
X300332Y-361292D01*
X302226Y-358983D01*
X303634Y-356350D01*
X304501Y-353492D01*
X304793Y-350520D01*
X304501Y-347548D01*
X303634Y-344690D01*
X302226Y-342057D01*
X300332Y-339748D01*
X298983Y-338642D01*
Y-336998D01*
X300332Y-335892D01*
X302226Y-333583D01*
X303634Y-330950D01*
X304501Y-328092D01*
X304793Y-325120D01*
X304501Y-322148D01*
X303634Y-319290D01*
X302226Y-316657D01*
X300332Y-314348D01*
X298983Y-313242D01*
Y-311598D01*
X300332Y-310492D01*
X302226Y-308183D01*
X303634Y-305550D01*
X304501Y-302692D01*
X304793Y-299720D01*
X304501Y-296748D01*
X303634Y-293890D01*
X302226Y-291257D01*
X300332Y-288948D01*
X298983Y-287841D01*
Y-286199D01*
X300332Y-285092D01*
X302226Y-282783D01*
X303634Y-280150D01*
X304501Y-277292D01*
X304793Y-274320D01*
X304501Y-271348D01*
X303634Y-268490D01*
X302226Y-265857D01*
X300332Y-263548D01*
X298983Y-262442D01*
Y-260798D01*
X300332Y-259692D01*
X301357Y-258442D01*
X302627Y-258463D01*
X303156Y-259153D01*
X306075Y-261393D01*
X309473Y-262800D01*
X313120Y-263281D01*
X316767Y-262800D01*
X320165Y-261393D01*
X322713Y-259438D01*
X323580D01*
X323580Y-259438D01*
X326232Y-259088D01*
X328704Y-258065D01*
X330826Y-256436D01*
X357766Y-229496D01*
X357766Y-229496D01*
X359395Y-227374D01*
X360419Y-224902D01*
X360768Y-222250D01*
Y-95685D01*
X378895Y-77558D01*
X391910D01*
X392563Y-78647D01*
X392252Y-79230D01*
X391381Y-82102D01*
X391086Y-85090D01*
X391381Y-88078D01*
X392252Y-90950D01*
X393667Y-93598D01*
X395572Y-95919D01*
X397892Y-97823D01*
X400540Y-99238D01*
X402362Y-99791D01*
X402428Y-101138D01*
X401276Y-101615D01*
X399154Y-103244D01*
X397525Y-105366D01*
X396502Y-107838D01*
X396320Y-109220D01*
X416480D01*
X416298Y-107838D01*
X415275Y-105366D01*
X413646Y-103244D01*
X411524Y-101615D01*
X410372Y-101138D01*
X410438Y-99791D01*
X412260Y-99238D01*
X414908Y-97823D01*
X417228Y-95919D01*
X419133Y-93598D01*
X420548Y-90950D01*
X420740Y-90318D01*
X421972Y-90009D01*
X459070Y-127108D01*
Y-162992D01*
X459070Y-162992D01*
X459419Y-165645D01*
X460443Y-168116D01*
X462071Y-170238D01*
X485769Y-193936D01*
X485769Y-193936D01*
X487891Y-195565D01*
X490363Y-196588D01*
X493015Y-196938D01*
X493016Y-196938D01*
X496991D01*
X497156Y-197153D01*
X500075Y-199393D01*
X503473Y-200800D01*
X507120Y-201280D01*
X510767Y-200800D01*
X514165Y-199393D01*
X517084Y-197153D01*
X519323Y-194235D01*
X520730Y-190837D01*
X521211Y-187190D01*
X520730Y-183543D01*
X519323Y-180145D01*
X517084Y-177227D01*
X514165Y-174987D01*
X510767Y-173580D01*
X507120Y-173099D01*
X503473Y-173580D01*
X500075Y-174987D01*
X498178Y-176442D01*
X497260D01*
X479565Y-158748D01*
Y-122863D01*
X479216Y-120211D01*
X478192Y-117739D01*
X476564Y-115617D01*
X421011Y-60064D01*
X418889Y-58435D01*
X416417Y-57411D01*
X413765Y-57062D01*
D02*
G37*
G36*
X744700Y-2295D02*
X740366Y-2636D01*
X736139Y-3651D01*
X732122Y-5314D01*
X728415Y-7586D01*
X725109Y-10409D01*
X722286Y-13715D01*
X720014Y-17422D01*
X718351Y-21439D01*
X717336Y-25666D01*
X716995Y-30000D01*
X717336Y-34334D01*
X718351Y-38561D01*
X720014Y-42578D01*
X722286Y-46285D01*
X725109Y-49591D01*
X728415Y-52414D01*
X732122Y-54686D01*
X736139Y-56349D01*
X740366Y-57364D01*
X744700Y-57705D01*
X749034Y-57364D01*
X753261Y-56349D01*
X757278Y-54686D01*
X760985Y-52414D01*
X764291Y-49591D01*
X767114Y-46285D01*
X769386Y-42578D01*
X771049Y-38561D01*
X772064Y-34334D01*
X772405Y-30000D01*
X772064Y-25666D01*
X771049Y-21439D01*
X769386Y-17422D01*
X767114Y-13715D01*
X764291Y-10409D01*
X760985Y-7586D01*
X757278Y-5314D01*
X753261Y-3651D01*
X749034Y-2636D01*
X744700Y-2295D01*
D02*
G37*
G36*
X685490Y-40264D02*
X678490D01*
X674673Y-40766D01*
X671117Y-42239D01*
X668063Y-44583D01*
X665719Y-47637D01*
X664246Y-51193D01*
X663744Y-55010D01*
X664246Y-58826D01*
X665719Y-62383D01*
X668063Y-65437D01*
X671117Y-67780D01*
X674673Y-69254D01*
X678490Y-69756D01*
X685490D01*
X689306Y-69254D01*
X692863Y-67780D01*
X695917Y-65437D01*
X698260Y-62383D01*
X699734Y-58826D01*
X700236Y-55010D01*
X699734Y-51193D01*
X698260Y-47637D01*
X695917Y-44583D01*
X692863Y-42239D01*
X689306Y-40766D01*
X685490Y-40264D01*
D02*
G37*
G36*
X289560Y-81287D02*
X286588Y-81579D01*
X283730Y-82446D01*
X281097Y-83854D01*
X278788Y-85748D01*
X278662Y-85903D01*
X276165Y-83987D01*
X272767Y-82580D01*
X269120Y-82100D01*
X265473Y-82580D01*
X262075Y-83987D01*
X259156Y-86227D01*
X259121Y-86272D01*
X252730D01*
X250078Y-86622D01*
X247606Y-87645D01*
X245484Y-89274D01*
X206114Y-128644D01*
X204485Y-130766D01*
X203461Y-133238D01*
X203112Y-135890D01*
X203112Y-135890D01*
Y-499945D01*
X184985Y-518072D01*
X170843D01*
X168295Y-516117D01*
X164897Y-514710D01*
X161250Y-514230D01*
X157603Y-514710D01*
X154205Y-516117D01*
X151286Y-518357D01*
X150780Y-519017D01*
X149158Y-519043D01*
X147932Y-517548D01*
X146583Y-516441D01*
Y-514799D01*
X147932Y-513692D01*
X149826Y-511383D01*
X151234Y-508750D01*
X152101Y-505892D01*
X152393Y-502920D01*
X152101Y-499948D01*
X151234Y-497090D01*
X149826Y-494457D01*
X147932Y-492148D01*
X146583Y-491041D01*
Y-489398D01*
X147932Y-488292D01*
X149826Y-485983D01*
X151234Y-483350D01*
X152101Y-480492D01*
X152393Y-477520D01*
X152101Y-474548D01*
X151234Y-471690D01*
X149826Y-469057D01*
X147932Y-466748D01*
X146583Y-465642D01*
Y-463998D01*
X147932Y-462892D01*
X149826Y-460583D01*
X151234Y-457950D01*
X152101Y-455092D01*
X152393Y-452120D01*
X152101Y-449148D01*
X151234Y-446290D01*
X149826Y-443657D01*
X147932Y-441348D01*
X146583Y-440242D01*
Y-438599D01*
X147932Y-437492D01*
X149826Y-435183D01*
X151234Y-432550D01*
X152101Y-429692D01*
X152393Y-426720D01*
X152101Y-423748D01*
X151234Y-420890D01*
X149826Y-418257D01*
X147932Y-415948D01*
X146583Y-414841D01*
Y-413199D01*
X147932Y-412092D01*
X149826Y-409783D01*
X151234Y-407150D01*
X152101Y-404292D01*
X152393Y-401320D01*
X152101Y-398348D01*
X151234Y-395490D01*
X149826Y-392857D01*
X147932Y-390548D01*
X146583Y-389441D01*
Y-387799D01*
X147932Y-386692D01*
X149826Y-384383D01*
X151234Y-381750D01*
X152101Y-378892D01*
X152393Y-375920D01*
X152101Y-372948D01*
X151234Y-370090D01*
X149826Y-367457D01*
X147932Y-365148D01*
X146583Y-364041D01*
Y-362398D01*
X147932Y-361292D01*
X149826Y-358983D01*
X151234Y-356350D01*
X152101Y-353492D01*
X152393Y-350520D01*
X152101Y-347548D01*
X151234Y-344690D01*
X149826Y-342057D01*
X147932Y-339748D01*
X146583Y-338642D01*
Y-336998D01*
X147932Y-335892D01*
X149826Y-333583D01*
X151234Y-330950D01*
X152101Y-328092D01*
X152393Y-325120D01*
X152101Y-322148D01*
X151234Y-319290D01*
X149826Y-316657D01*
X147932Y-314348D01*
X146583Y-313242D01*
Y-311598D01*
X147932Y-310492D01*
X149826Y-308183D01*
X151234Y-305550D01*
X152101Y-302692D01*
X152393Y-299720D01*
X152101Y-296748D01*
X151234Y-293890D01*
X149826Y-291257D01*
X147932Y-288948D01*
X146583Y-287841D01*
Y-286199D01*
X147932Y-285092D01*
X149826Y-282783D01*
X151234Y-280150D01*
X152101Y-277292D01*
X152393Y-274320D01*
X152101Y-271348D01*
X151234Y-268490D01*
X149826Y-265857D01*
X147932Y-263548D01*
X146583Y-262442D01*
Y-260798D01*
X147932Y-259692D01*
X149826Y-257383D01*
X151234Y-254750D01*
X152101Y-251892D01*
X152393Y-248920D01*
X152101Y-245948D01*
X151234Y-243090D01*
X149826Y-240457D01*
X147932Y-238148D01*
X146583Y-237041D01*
Y-235399D01*
X147932Y-234292D01*
X149826Y-231983D01*
X151234Y-229350D01*
X152101Y-226492D01*
X152393Y-223520D01*
X152101Y-220548D01*
X151234Y-217690D01*
X149826Y-215057D01*
X147932Y-212748D01*
X146583Y-211642D01*
Y-209998D01*
X147932Y-208892D01*
X149826Y-206583D01*
X151234Y-203950D01*
X152101Y-201092D01*
X152393Y-198120D01*
X152101Y-195148D01*
X151234Y-192290D01*
X149826Y-189657D01*
X147932Y-187348D01*
X146583Y-186241D01*
Y-184599D01*
X147932Y-183492D01*
X149826Y-181183D01*
X151234Y-178550D01*
X152101Y-175692D01*
X152393Y-172720D01*
X152101Y-169748D01*
X151234Y-166890D01*
X149826Y-164257D01*
X147932Y-161948D01*
X146583Y-160842D01*
Y-159199D01*
X147932Y-158092D01*
X149826Y-155783D01*
X151234Y-153150D01*
X152101Y-150292D01*
X152393Y-147320D01*
X152101Y-144348D01*
X151234Y-141490D01*
X149826Y-138857D01*
X147932Y-136548D01*
X146583Y-135442D01*
Y-133799D01*
X147932Y-132692D01*
X149826Y-130383D01*
X151234Y-127750D01*
X152101Y-124892D01*
X152393Y-121920D01*
X152101Y-118948D01*
X151234Y-116090D01*
X149826Y-113457D01*
X149310Y-112828D01*
X149853Y-111680D01*
X152320D01*
Y-81360D01*
X122000D01*
Y-111680D01*
X124467D01*
X125010Y-112828D01*
X124494Y-113457D01*
X123086Y-116090D01*
X122219Y-118948D01*
X121927Y-121920D01*
X122219Y-124892D01*
X123086Y-127750D01*
X124494Y-130383D01*
X126388Y-132692D01*
X127737Y-133799D01*
Y-135442D01*
X126388Y-136548D01*
X124494Y-138857D01*
X123086Y-141490D01*
X122219Y-144348D01*
X121927Y-147320D01*
X122219Y-150292D01*
X123086Y-153150D01*
X124494Y-155783D01*
X126388Y-158092D01*
X127737Y-159199D01*
Y-160842D01*
X126388Y-161948D01*
X124494Y-164257D01*
X123086Y-166890D01*
X122219Y-169748D01*
X121927Y-172720D01*
X122219Y-175692D01*
X123086Y-178550D01*
X124494Y-181183D01*
X126388Y-183492D01*
X127737Y-184599D01*
Y-186241D01*
X126388Y-187348D01*
X124494Y-189657D01*
X123086Y-192290D01*
X122219Y-195148D01*
X121927Y-198120D01*
X122219Y-201092D01*
X123086Y-203950D01*
X124494Y-206583D01*
X126388Y-208892D01*
X127737Y-209998D01*
Y-211642D01*
X126388Y-212748D01*
X124494Y-215057D01*
X123086Y-217690D01*
X122219Y-220548D01*
X121927Y-223520D01*
X122219Y-226492D01*
X123086Y-229350D01*
X124494Y-231983D01*
X126388Y-234292D01*
X127737Y-235399D01*
Y-237041D01*
X126388Y-238148D01*
X124494Y-240457D01*
X123086Y-243090D01*
X122219Y-245948D01*
X121927Y-248920D01*
X122219Y-251892D01*
X123086Y-254750D01*
X124494Y-257383D01*
X126388Y-259692D01*
X127737Y-260798D01*
Y-262442D01*
X126388Y-263548D01*
X124494Y-265857D01*
X123086Y-268490D01*
X122219Y-271348D01*
X121927Y-274320D01*
X122219Y-277292D01*
X123086Y-280150D01*
X124494Y-282783D01*
X126388Y-285092D01*
X127737Y-286199D01*
Y-287841D01*
X126388Y-288948D01*
X124494Y-291257D01*
X123086Y-293890D01*
X122219Y-296748D01*
X121927Y-299720D01*
X122219Y-302692D01*
X123086Y-305550D01*
X124494Y-308183D01*
X126388Y-310492D01*
X127737Y-311598D01*
Y-313242D01*
X126388Y-314348D01*
X124494Y-316657D01*
X123086Y-319290D01*
X122219Y-322148D01*
X121927Y-325120D01*
X122219Y-328092D01*
X123086Y-330950D01*
X124494Y-333583D01*
X126388Y-335892D01*
X127737Y-336998D01*
Y-338642D01*
X126388Y-339748D01*
X124494Y-342057D01*
X123086Y-344690D01*
X122219Y-347548D01*
X121927Y-350520D01*
X122219Y-353492D01*
X123086Y-356350D01*
X124494Y-358983D01*
X126388Y-361292D01*
X127737Y-362398D01*
Y-364041D01*
X126388Y-365148D01*
X124494Y-367457D01*
X123086Y-370090D01*
X122219Y-372948D01*
X121927Y-375920D01*
X122219Y-378892D01*
X123086Y-381750D01*
X124494Y-384383D01*
X126388Y-386692D01*
X127737Y-387799D01*
Y-389441D01*
X126388Y-390548D01*
X124494Y-392857D01*
X123086Y-395490D01*
X122219Y-398348D01*
X121927Y-401320D01*
X122219Y-404292D01*
X123086Y-407150D01*
X124494Y-409783D01*
X126388Y-412092D01*
X127737Y-413199D01*
Y-414841D01*
X126388Y-415948D01*
X124494Y-418257D01*
X123086Y-420890D01*
X122219Y-423748D01*
X121927Y-426720D01*
X122219Y-429692D01*
X123086Y-432550D01*
X124494Y-435183D01*
X126388Y-437492D01*
X127737Y-438599D01*
Y-440242D01*
X126388Y-441348D01*
X124494Y-443657D01*
X123086Y-446290D01*
X122219Y-449148D01*
X121927Y-452120D01*
X122219Y-455092D01*
X123086Y-457950D01*
X124494Y-460583D01*
X126388Y-462892D01*
X127737Y-463998D01*
Y-465642D01*
X126388Y-466748D01*
X124494Y-469057D01*
X123086Y-471690D01*
X122219Y-474548D01*
X121927Y-477520D01*
X122219Y-480492D01*
X123086Y-483350D01*
X124494Y-485983D01*
X126388Y-488292D01*
X127737Y-489398D01*
Y-491041D01*
X126388Y-492148D01*
X124494Y-494457D01*
X123086Y-497090D01*
X122219Y-499948D01*
X121927Y-502920D01*
X122219Y-505892D01*
X123086Y-508750D01*
X124494Y-511383D01*
X126388Y-513692D01*
X127737Y-514799D01*
Y-516441D01*
X126388Y-517548D01*
X124494Y-519857D01*
X123086Y-522490D01*
X122219Y-525348D01*
X121927Y-528320D01*
X122219Y-531292D01*
X123086Y-534150D01*
X124494Y-536783D01*
X126388Y-539092D01*
X128697Y-540986D01*
X131330Y-542394D01*
X133359Y-543009D01*
X133425Y-544356D01*
X132077Y-544915D01*
X129971Y-546531D01*
X128355Y-548637D01*
X127339Y-551089D01*
X127160Y-552450D01*
X147160D01*
X146980Y-551089D01*
X145965Y-548637D01*
X144349Y-546531D01*
X142243Y-544915D01*
X140895Y-544356D01*
X140961Y-543009D01*
X142990Y-542394D01*
X145623Y-540986D01*
X147932Y-539092D01*
X149158Y-537597D01*
X150780Y-537623D01*
X151286Y-538284D01*
X154205Y-540523D01*
X157603Y-541930D01*
X161250Y-542411D01*
X164897Y-541930D01*
X168295Y-540523D01*
X170843Y-538568D01*
X189230D01*
X189230Y-538568D01*
X191882Y-538218D01*
X194354Y-537195D01*
X196476Y-535566D01*
X220606Y-511436D01*
X222235Y-509314D01*
X223258Y-506842D01*
X223608Y-504190D01*
X223608Y-504190D01*
Y-140135D01*
X256975Y-106768D01*
X259957D01*
X262075Y-108393D01*
X265473Y-109800D01*
X269120Y-110281D01*
X272767Y-109800D01*
X276165Y-108393D01*
X278329Y-106732D01*
X278788Y-107292D01*
X281097Y-109186D01*
X283730Y-110594D01*
X285759Y-111209D01*
X285825Y-112556D01*
X284477Y-113115D01*
X282371Y-114731D01*
X280755Y-116837D01*
X279739Y-119289D01*
X279560Y-120650D01*
X289560D01*
X299560D01*
X299380Y-119289D01*
X298365Y-116837D01*
X296749Y-114731D01*
X294643Y-113115D01*
X293295Y-112556D01*
X293361Y-111209D01*
X295389Y-110594D01*
X298023Y-109186D01*
X300332Y-107292D01*
X302226Y-104983D01*
X303634Y-102350D01*
X304501Y-99492D01*
X304793Y-96520D01*
X304501Y-93548D01*
X303634Y-90690D01*
X302226Y-88057D01*
X300332Y-85748D01*
X298023Y-83854D01*
X295389Y-82446D01*
X292532Y-81579D01*
X289560Y-81287D01*
D02*
G37*
G36*
X49530Y-84021D02*
Y-92710D01*
X58219D01*
X58042Y-91359D01*
X57030Y-88917D01*
X55421Y-86819D01*
X53323Y-85210D01*
X50881Y-84198D01*
X49530Y-84021D01*
D02*
G37*
G36*
X46990D02*
X45639Y-84198D01*
X43197Y-85210D01*
X41099Y-86819D01*
X39490Y-88917D01*
X38478Y-91359D01*
X38301Y-92710D01*
X46990D01*
Y-84021D01*
D02*
G37*
G36*
X685490Y-95387D02*
X683260D01*
Y-103740D01*
X694945D01*
X694784Y-102519D01*
X693823Y-100198D01*
X692294Y-98206D01*
X690301Y-96677D01*
X687980Y-95715D01*
X685490Y-95387D01*
D02*
G37*
G36*
X680720D02*
X678490D01*
X676000Y-95715D01*
X673679Y-96677D01*
X671686Y-98206D01*
X670157Y-100198D01*
X669195Y-102519D01*
X669035Y-103740D01*
X680720D01*
Y-95387D01*
D02*
G37*
G36*
X30000Y-2295D02*
X25666Y-2636D01*
X21439Y-3651D01*
X17422Y-5314D01*
X13715Y-7586D01*
X10409Y-10409D01*
X7586Y-13715D01*
X5314Y-17422D01*
X3651Y-21439D01*
X2636Y-25666D01*
X2295Y-30000D01*
X2636Y-34334D01*
X3651Y-38561D01*
X5314Y-42578D01*
X7586Y-46285D01*
X10409Y-49591D01*
X13715Y-52414D01*
X17422Y-54686D01*
X21439Y-56349D01*
X25666Y-57364D01*
X30000Y-57705D01*
X34334Y-57364D01*
X38561Y-56349D01*
X42578Y-54686D01*
X46285Y-52414D01*
X48496Y-50526D01*
X49359Y-51459D01*
X41874Y-58944D01*
X40245Y-61066D01*
X39221Y-63538D01*
X38872Y-66190D01*
X39221Y-68842D01*
X40245Y-71314D01*
X41874Y-73436D01*
X43996Y-75065D01*
X46468Y-76089D01*
X49120Y-76438D01*
X51772Y-76089D01*
X54244Y-75065D01*
X56366Y-73436D01*
X73365Y-56438D01*
X289875D01*
X313872Y-80435D01*
Y-96190D01*
X314221Y-98842D01*
X315245Y-101314D01*
X316874Y-103436D01*
X318996Y-105065D01*
X321468Y-106088D01*
X324120Y-106438D01*
X326772Y-106088D01*
X329244Y-105065D01*
X331366Y-103436D01*
X332995Y-101314D01*
X334019Y-98842D01*
X334368Y-96190D01*
Y-76190D01*
X334019Y-73538D01*
X332995Y-71066D01*
X331366Y-68944D01*
X331366Y-68944D01*
X301366Y-38944D01*
X299244Y-37315D01*
X296772Y-36291D01*
X294120Y-35942D01*
X294120Y-35942D01*
X69120D01*
X69120Y-35942D01*
X66468Y-36291D01*
X63996Y-37315D01*
X61874Y-38944D01*
X61874Y-38944D01*
X51459Y-49359D01*
X50526Y-48496D01*
X52414Y-46285D01*
X54686Y-42578D01*
X56349Y-38561D01*
X57364Y-34334D01*
X57705Y-30000D01*
X57364Y-25666D01*
X56349Y-21439D01*
X54686Y-17422D01*
X52414Y-13715D01*
X49591Y-10409D01*
X46285Y-7586D01*
X42578Y-5314D01*
X38561Y-3651D01*
X34334Y-2636D01*
X30000Y-2295D01*
D02*
G37*
G36*
X694945Y-106280D02*
X683260D01*
Y-114632D01*
X685490D01*
X687980Y-114304D01*
X690301Y-113343D01*
X692294Y-111814D01*
X693823Y-109821D01*
X694784Y-107500D01*
X694945Y-106280D01*
D02*
G37*
G36*
X680720D02*
X669035D01*
X669195Y-107500D01*
X670157Y-109821D01*
X671686Y-111814D01*
X673679Y-113343D01*
X676000Y-114304D01*
X678490Y-114632D01*
X680720D01*
Y-106280D01*
D02*
G37*
G36*
X416480Y-111760D02*
X396320D01*
X396502Y-113142D01*
X397525Y-115614D01*
X399154Y-117736D01*
X401276Y-119365D01*
X402428Y-119842D01*
X402362Y-121189D01*
X400540Y-121742D01*
X397892Y-123157D01*
X395572Y-125062D01*
X393667Y-127382D01*
X392252Y-130030D01*
X391381Y-132902D01*
X391086Y-135890D01*
X391381Y-138878D01*
X392252Y-141750D01*
X393667Y-144398D01*
X395572Y-146719D01*
X397892Y-148623D01*
X400540Y-150038D01*
X403412Y-150910D01*
X406400Y-151204D01*
X409388Y-150910D01*
X412260Y-150038D01*
X414908Y-148623D01*
X417228Y-146719D01*
X419133Y-144398D01*
X420548Y-141750D01*
X421419Y-138878D01*
X421714Y-135890D01*
X421419Y-132902D01*
X420548Y-130030D01*
X419133Y-127382D01*
X417228Y-125062D01*
X414908Y-123157D01*
X412260Y-121742D01*
X410438Y-121189D01*
X410372Y-119842D01*
X411524Y-119365D01*
X413646Y-117736D01*
X415275Y-115614D01*
X416298Y-113142D01*
X416480Y-111760D01*
D02*
G37*
G36*
X58219Y-95250D02*
X48260D01*
X38301D01*
X38478Y-96601D01*
X39490Y-99043D01*
X41099Y-101141D01*
X43197Y-102750D01*
X44644Y-103349D01*
X44578Y-104697D01*
X42446Y-105343D01*
X39819Y-106747D01*
X37517Y-108637D01*
X35627Y-110939D01*
X34223Y-113566D01*
X33359Y-116416D01*
X33067Y-119380D01*
X33359Y-122344D01*
X34223Y-125194D01*
X35627Y-127821D01*
X36195Y-128512D01*
X35652Y-129660D01*
X33140D01*
Y-159900D01*
X63380D01*
Y-129660D01*
X60868D01*
X60325Y-128512D01*
X60893Y-127821D01*
X62297Y-125194D01*
X63161Y-122344D01*
X63453Y-119380D01*
X63161Y-116416D01*
X62297Y-113566D01*
X60893Y-110939D01*
X59003Y-108637D01*
X56701Y-106747D01*
X54074Y-105343D01*
X51942Y-104697D01*
X51876Y-103349D01*
X53323Y-102750D01*
X55421Y-101141D01*
X57030Y-99043D01*
X58042Y-96601D01*
X58219Y-95250D01*
D02*
G37*
G36*
X584080Y-69970D02*
X553840D01*
Y-100210D01*
X556352D01*
X556894Y-101358D01*
X556327Y-102049D01*
X554923Y-104676D01*
X554059Y-107526D01*
X553767Y-110490D01*
X554059Y-113454D01*
X554923Y-116304D01*
X556327Y-118931D01*
X558217Y-121233D01*
X559600Y-122368D01*
Y-124011D01*
X558217Y-125147D01*
X556327Y-127449D01*
X554923Y-130076D01*
X554059Y-132926D01*
X553767Y-135890D01*
X554059Y-138854D01*
X554923Y-141704D01*
X556327Y-144331D01*
X558217Y-146633D01*
X560519Y-148523D01*
X563146Y-149927D01*
X565278Y-150573D01*
X565344Y-151921D01*
X563897Y-152520D01*
X561799Y-154129D01*
X560190Y-156227D01*
X559178Y-158669D01*
X559001Y-160020D01*
X568960D01*
X578919D01*
X578741Y-158669D01*
X577730Y-156227D01*
X576121Y-154129D01*
X574023Y-152520D01*
X572576Y-151921D01*
X572642Y-150573D01*
X574774Y-149927D01*
X577401Y-148523D01*
X579703Y-146633D01*
X581593Y-144331D01*
X582997Y-141704D01*
X583861Y-138854D01*
X584153Y-135890D01*
X583861Y-132926D01*
X582997Y-130076D01*
X581593Y-127449D01*
X579703Y-125147D01*
X578320Y-124011D01*
Y-122368D01*
X579703Y-121233D01*
X581593Y-118931D01*
X582997Y-116304D01*
X583861Y-113454D01*
X584153Y-110490D01*
X583861Y-107526D01*
X582997Y-104676D01*
X581593Y-102049D01*
X581026Y-101358D01*
X581568Y-100210D01*
X584080D01*
Y-69970D01*
D02*
G37*
G36*
X685490Y-159688D02*
X683260D01*
Y-168040D01*
X694945D01*
X694784Y-166819D01*
X693823Y-164499D01*
X692294Y-162506D01*
X690301Y-160977D01*
X687980Y-160015D01*
X685490Y-159688D01*
D02*
G37*
G36*
X680720D02*
X678490D01*
X676000Y-160015D01*
X673679Y-160977D01*
X671686Y-162506D01*
X670157Y-164499D01*
X669195Y-166819D01*
X669035Y-168040D01*
X680720D01*
Y-159688D01*
D02*
G37*
G36*
X694945Y-170580D02*
X683260D01*
Y-178932D01*
X685490D01*
X687980Y-178604D01*
X690301Y-177643D01*
X692294Y-176114D01*
X693823Y-174121D01*
X694784Y-171800D01*
X694945Y-170580D01*
D02*
G37*
G36*
X680720D02*
X669035D01*
X669195Y-171800D01*
X670157Y-174121D01*
X671686Y-176114D01*
X673679Y-177643D01*
X676000Y-178604D01*
X678490Y-178932D01*
X680720D01*
Y-170580D01*
D02*
G37*
G36*
X448310Y-195021D02*
Y-208940D01*
X462229D01*
X462060Y-207222D01*
X461188Y-204350D01*
X459773Y-201702D01*
X457868Y-199381D01*
X455548Y-197477D01*
X452900Y-196062D01*
X450028Y-195190D01*
X448310Y-195021D01*
D02*
G37*
G36*
X445770D02*
X444052Y-195190D01*
X441180Y-196062D01*
X438532Y-197477D01*
X436212Y-199381D01*
X434307Y-201702D01*
X432892Y-204350D01*
X432020Y-207222D01*
X431851Y-208940D01*
X445770D01*
Y-195021D01*
D02*
G37*
G36*
X462229Y-211480D02*
X448310D01*
Y-225399D01*
X450028Y-225229D01*
X452900Y-224358D01*
X455548Y-222943D01*
X457868Y-221038D01*
X459773Y-218718D01*
X461188Y-216070D01*
X462060Y-213197D01*
X462229Y-211480D01*
D02*
G37*
G36*
X445770D02*
X431851D01*
X432020Y-213197D01*
X432892Y-216070D01*
X434307Y-218718D01*
X436212Y-221038D01*
X438532Y-222943D01*
X441180Y-224358D01*
X444052Y-225229D01*
X445770Y-225399D01*
Y-211480D01*
D02*
G37*
G36*
X578919Y-162560D02*
X568960D01*
X559001D01*
X559178Y-163911D01*
X560190Y-166353D01*
X561799Y-168451D01*
X563897Y-170060D01*
X565344Y-170659D01*
X565278Y-172007D01*
X563146Y-172653D01*
X560519Y-174057D01*
X558217Y-175947D01*
X556327Y-178249D01*
X554923Y-180876D01*
X554059Y-183726D01*
X553767Y-186690D01*
X554059Y-189654D01*
X554923Y-192504D01*
X556327Y-195131D01*
X558217Y-197433D01*
X559600Y-198568D01*
Y-200212D01*
X558217Y-201347D01*
X556327Y-203649D01*
X554923Y-206276D01*
X554059Y-209126D01*
X553767Y-212090D01*
X554059Y-215054D01*
X554923Y-217904D01*
X556327Y-220531D01*
X558217Y-222833D01*
X560519Y-224723D01*
X563146Y-226127D01*
X565996Y-226991D01*
X568960Y-227283D01*
X571924Y-226991D01*
X574774Y-226127D01*
X577401Y-224723D01*
X579703Y-222833D01*
X581593Y-220531D01*
X582997Y-217904D01*
X583861Y-215054D01*
X584153Y-212090D01*
X583861Y-209126D01*
X582997Y-206276D01*
X581593Y-203649D01*
X579703Y-201347D01*
X578320Y-200212D01*
Y-198568D01*
X579703Y-197433D01*
X581593Y-195131D01*
X582997Y-192504D01*
X583861Y-189654D01*
X584153Y-186690D01*
X583861Y-183726D01*
X582997Y-180876D01*
X581593Y-178249D01*
X579703Y-175947D01*
X577401Y-174057D01*
X574774Y-172653D01*
X572642Y-172007D01*
X572576Y-170659D01*
X574023Y-170060D01*
X576121Y-168451D01*
X577730Y-166353D01*
X578741Y-163911D01*
X578919Y-162560D01*
D02*
G37*
G36*
X620120Y-40100D02*
X616473Y-40580D01*
X613075Y-41987D01*
X610156Y-44226D01*
X607917Y-47145D01*
X606510Y-50543D01*
X606029Y-54190D01*
X606510Y-57837D01*
X607917Y-61235D01*
X609512Y-63314D01*
Y-196161D01*
X576399Y-229274D01*
X553720D01*
X553720Y-229274D01*
X551068Y-229624D01*
X548596Y-230647D01*
X546474Y-232276D01*
X546474Y-232276D01*
X519296Y-259454D01*
X517667Y-261576D01*
X516643Y-264048D01*
X516294Y-266700D01*
X516294Y-266700D01*
Y-462523D01*
X483875Y-494942D01*
X480148D01*
Y-303276D01*
X480148Y-303276D01*
X479799Y-300624D01*
X478775Y-298152D01*
X477146Y-296030D01*
X416648Y-235531D01*
Y-190418D01*
X418323Y-188235D01*
X419730Y-184837D01*
X420210Y-181190D01*
X419730Y-177543D01*
X418323Y-174145D01*
X416083Y-171227D01*
X413165Y-168987D01*
X409767Y-167580D01*
X406120Y-167099D01*
X402473Y-167580D01*
X399075Y-168987D01*
X396156Y-171227D01*
X393917Y-174145D01*
X392510Y-177543D01*
X392029Y-181190D01*
X392510Y-184837D01*
X393917Y-188235D01*
X396152Y-191148D01*
Y-239776D01*
X396152Y-239776D01*
X396502Y-242428D01*
X397525Y-244900D01*
X399154Y-247022D01*
X459652Y-307521D01*
Y-389890D01*
X426720D01*
Y-430530D01*
X459652D01*
Y-494942D01*
X435713D01*
X433165Y-492987D01*
X429767Y-491580D01*
X426120Y-491099D01*
X422473Y-491580D01*
X419075Y-492987D01*
X416156Y-495227D01*
X413917Y-498145D01*
X412510Y-501543D01*
X412029Y-505190D01*
X412510Y-508837D01*
X413917Y-512235D01*
X416156Y-515154D01*
X419075Y-517393D01*
X422473Y-518800D01*
X426120Y-519281D01*
X429767Y-518800D01*
X433165Y-517393D01*
X435713Y-515438D01*
X469120D01*
X469120Y-515438D01*
X469120Y-515438D01*
X488120D01*
X488120Y-515438D01*
X490772Y-515089D01*
X493244Y-514065D01*
X495366Y-512436D01*
X533788Y-474014D01*
X533788Y-474014D01*
X535417Y-471892D01*
X536441Y-469420D01*
X536790Y-466768D01*
Y-270945D01*
X557965Y-249770D01*
X580644D01*
X580644Y-249770D01*
X583296Y-249421D01*
X585768Y-248397D01*
X587890Y-246768D01*
X627006Y-207652D01*
X628635Y-205530D01*
X629659Y-203058D01*
X630008Y-200406D01*
X630008Y-200406D01*
Y-64212D01*
X630084Y-64153D01*
X632323Y-61235D01*
X633730Y-57837D01*
X634211Y-54190D01*
X633730Y-50543D01*
X632323Y-47145D01*
X630084Y-44226D01*
X627165Y-41987D01*
X623767Y-40580D01*
X620120Y-40100D01*
D02*
G37*
G36*
X685490Y-204564D02*
X678490D01*
X674673Y-205066D01*
X671117Y-206539D01*
X668063Y-208883D01*
X665719Y-211937D01*
X664246Y-215493D01*
X663744Y-219310D01*
X664246Y-223126D01*
X665719Y-226683D01*
X668063Y-229737D01*
X671117Y-232080D01*
X674673Y-233553D01*
X678490Y-234056D01*
X685490D01*
X689306Y-233553D01*
X692863Y-232080D01*
X695917Y-229737D01*
X698260Y-226683D01*
X699734Y-223126D01*
X700236Y-219310D01*
X699734Y-215493D01*
X698260Y-211937D01*
X695917Y-208883D01*
X692863Y-206539D01*
X689306Y-205066D01*
X685490Y-204564D01*
D02*
G37*
G36*
X636110Y-251390D02*
X600870D01*
Y-286630D01*
X636110D01*
Y-251390D01*
D02*
G37*
G36*
X577850Y-251305D02*
X574396Y-251645D01*
X571074Y-252652D01*
X568013Y-254289D01*
X565331Y-256490D01*
X563129Y-259173D01*
X561492Y-262234D01*
X560485Y-265556D01*
X560145Y-269010D01*
X560485Y-272464D01*
X561492Y-275785D01*
X563129Y-278846D01*
X565331Y-281529D01*
X568013Y-283731D01*
X571074Y-285367D01*
X574396Y-286375D01*
X577850Y-286715D01*
X581304Y-286375D01*
X584626Y-285367D01*
X587687Y-283731D01*
X590369Y-281529D01*
X592571Y-278846D01*
X594207Y-275785D01*
X595215Y-272464D01*
X595555Y-269010D01*
X595215Y-265556D01*
X594207Y-262234D01*
X592571Y-259173D01*
X590369Y-256490D01*
X587687Y-254289D01*
X584626Y-252652D01*
X581304Y-251645D01*
X577850Y-251305D01*
D02*
G37*
G36*
X707870Y-259341D02*
X700370D01*
X697161Y-259657D01*
X694075Y-260593D01*
X691231Y-262113D01*
X688739Y-264159D01*
X686693Y-266651D01*
X685173Y-269495D01*
X684237Y-272581D01*
X683921Y-275790D01*
X684237Y-278999D01*
X685173Y-282085D01*
X686693Y-284929D01*
X688739Y-287421D01*
X689267Y-287855D01*
Y-289125D01*
X688739Y-289559D01*
X686693Y-292051D01*
X685173Y-294895D01*
X684237Y-297981D01*
X683921Y-301190D01*
X684237Y-304399D01*
X685173Y-307485D01*
X686693Y-310329D01*
X688739Y-312821D01*
X691231Y-314867D01*
X694075Y-316387D01*
X697161Y-317323D01*
X700370Y-317639D01*
X707870D01*
X711079Y-317323D01*
X714165Y-316387D01*
X717009Y-314867D01*
X719501Y-312821D01*
X721547Y-310329D01*
X723067Y-307485D01*
X724003Y-304399D01*
X724319Y-301190D01*
X724003Y-297981D01*
X723067Y-294895D01*
X721547Y-292051D01*
X719501Y-289559D01*
X718973Y-289125D01*
Y-287855D01*
X719501Y-287421D01*
X721547Y-284929D01*
X723067Y-282085D01*
X724003Y-278999D01*
X724319Y-275790D01*
X724003Y-272581D01*
X723067Y-269495D01*
X721547Y-266651D01*
X719501Y-264159D01*
X717009Y-262113D01*
X714165Y-260593D01*
X711079Y-259657D01*
X707870Y-259341D01*
D02*
G37*
G36*
X58300Y-318770D02*
X49530D01*
Y-327540D01*
X58300D01*
Y-318770D01*
D02*
G37*
G36*
X46990D02*
X38220D01*
Y-327540D01*
X46990D01*
Y-318770D01*
D02*
G37*
G36*
X49530Y-350721D02*
Y-359410D01*
X58219D01*
X58042Y-358059D01*
X57030Y-355617D01*
X55421Y-353519D01*
X53323Y-351910D01*
X50881Y-350898D01*
X49530Y-350721D01*
D02*
G37*
G36*
X46990D02*
X45639Y-350898D01*
X43197Y-351910D01*
X41099Y-353519D01*
X39490Y-355617D01*
X38478Y-358059D01*
X38301Y-359410D01*
X46990D01*
Y-350721D01*
D02*
G37*
G36*
X595470Y-355990D02*
X560230D01*
Y-391230D01*
X595470D01*
Y-355990D01*
D02*
G37*
G36*
X618490Y-355905D02*
X615036Y-356245D01*
X611714Y-357253D01*
X608653Y-358889D01*
X605970Y-361091D01*
X603769Y-363774D01*
X602132Y-366835D01*
X601125Y-370156D01*
X600785Y-373610D01*
X601125Y-377064D01*
X602132Y-380386D01*
X603769Y-383447D01*
X605970Y-386130D01*
X608653Y-388331D01*
X611714Y-389968D01*
X615036Y-390975D01*
X618490Y-391315D01*
X621944Y-390975D01*
X625266Y-389968D01*
X628326Y-388331D01*
X631009Y-386130D01*
X633211Y-383447D01*
X634847Y-380386D01*
X635855Y-377064D01*
X636195Y-373610D01*
X635855Y-370156D01*
X634847Y-366835D01*
X633211Y-363774D01*
X631009Y-361091D01*
X628326Y-358889D01*
X625266Y-357253D01*
X621944Y-356245D01*
X618490Y-355905D01*
D02*
G37*
G36*
X147160Y-554990D02*
X138430D01*
Y-563720D01*
X139791Y-563540D01*
X142243Y-562525D01*
X144349Y-560909D01*
X145965Y-558803D01*
X146980Y-556351D01*
X147160Y-554990D01*
D02*
G37*
G36*
X135890D02*
X127160D01*
X127339Y-556351D01*
X128355Y-558803D01*
X129971Y-560909D01*
X132077Y-562525D01*
X134529Y-563540D01*
X135890Y-563720D01*
Y-554990D01*
D02*
G37*
G36*
X138430Y-569120D02*
Y-577850D01*
X147160D01*
X146980Y-576489D01*
X145965Y-574036D01*
X144349Y-571931D01*
X142243Y-570315D01*
X139791Y-569300D01*
X138430Y-569120D01*
D02*
G37*
G36*
X135890D02*
X134529Y-569300D01*
X132077Y-570315D01*
X129971Y-571931D01*
X128355Y-574036D01*
X127339Y-576489D01*
X127160Y-577850D01*
X135890D01*
Y-569120D01*
D02*
G37*
G36*
X394660Y-443545D02*
X390326Y-443886D01*
X386099Y-444901D01*
X382082Y-446564D01*
X378375Y-448836D01*
X375069Y-451659D01*
X372246Y-454965D01*
X369974Y-458672D01*
X368311Y-462689D01*
X367296Y-466916D01*
X366955Y-471250D01*
X367296Y-475584D01*
X368311Y-479811D01*
X369974Y-483828D01*
X372246Y-487535D01*
X375069Y-490841D01*
X378375Y-493664D01*
X381481Y-495568D01*
X381610Y-496330D01*
X380159Y-499044D01*
X379266Y-501988D01*
X378964Y-505050D01*
X379266Y-508112D01*
X380159Y-511056D01*
X381610Y-513770D01*
X383562Y-516148D01*
X384739Y-517115D01*
Y-518385D01*
X383562Y-519352D01*
X381610Y-521730D01*
X380159Y-524444D01*
X379266Y-527388D01*
X378964Y-530450D01*
X379266Y-533512D01*
X380159Y-536456D01*
X381610Y-539170D01*
X383562Y-541548D01*
X384739Y-542515D01*
Y-543785D01*
X383562Y-544752D01*
X381610Y-547130D01*
X380159Y-549844D01*
X379266Y-552788D01*
X378964Y-555850D01*
X379266Y-558912D01*
X380159Y-561856D01*
X381610Y-564570D01*
X383562Y-566948D01*
X385940Y-568900D01*
X388653Y-570351D01*
X389607Y-570640D01*
X389670Y-571909D01*
X389344Y-572043D01*
X387143Y-573733D01*
X385453Y-575934D01*
X384391Y-578498D01*
X384196Y-579980D01*
X405124D01*
X404929Y-578498D01*
X403867Y-575934D01*
X402177Y-573733D01*
X399976Y-572043D01*
X399650Y-571909D01*
X399713Y-570640D01*
X400666Y-570351D01*
X403380Y-568900D01*
X405758Y-566948D01*
X407710Y-564570D01*
X409161Y-561856D01*
X410054Y-558912D01*
X410355Y-555850D01*
X410054Y-552788D01*
X409161Y-549844D01*
X407710Y-547130D01*
X405758Y-544752D01*
X404581Y-543785D01*
Y-542515D01*
X405758Y-541548D01*
X407710Y-539170D01*
X409161Y-536456D01*
X410054Y-533512D01*
X410355Y-530450D01*
X410054Y-527388D01*
X409161Y-524444D01*
X407710Y-521730D01*
X405758Y-519352D01*
X404581Y-518385D01*
Y-517115D01*
X405758Y-516148D01*
X407710Y-513770D01*
X409161Y-511056D01*
X410054Y-508112D01*
X410355Y-505050D01*
X410054Y-501988D01*
X409161Y-499044D01*
X407710Y-496330D01*
X407839Y-495568D01*
X410945Y-493664D01*
X414251Y-490841D01*
X417074Y-487535D01*
X419346Y-483828D01*
X421009Y-479811D01*
X422024Y-475584D01*
X422365Y-471250D01*
X422024Y-466916D01*
X421009Y-462689D01*
X419346Y-458672D01*
X417074Y-454965D01*
X414251Y-451659D01*
X410945Y-448836D01*
X407238Y-446564D01*
X403221Y-444901D01*
X398994Y-443886D01*
X394660Y-443545D01*
D02*
G37*
G36*
X147160Y-580390D02*
X138430D01*
Y-589120D01*
X139791Y-588941D01*
X142243Y-587925D01*
X144349Y-586309D01*
X145965Y-584203D01*
X146980Y-581751D01*
X147160Y-580390D01*
D02*
G37*
G36*
X135890D02*
X127160D01*
X127339Y-581751D01*
X128355Y-584203D01*
X129971Y-586309D01*
X132077Y-587925D01*
X134529Y-588941D01*
X135890Y-589120D01*
Y-580390D01*
D02*
G37*
G36*
X645160Y-460554D02*
X642098Y-460856D01*
X639154Y-461749D01*
X636440Y-463200D01*
X634062Y-465151D01*
X632110Y-467530D01*
X630659Y-470244D01*
X629766Y-473188D01*
X629464Y-476250D01*
X629766Y-479312D01*
X630659Y-482256D01*
X632110Y-484970D01*
X634062Y-487349D01*
X635239Y-488315D01*
Y-489585D01*
X634062Y-490551D01*
X632110Y-492930D01*
X630659Y-495644D01*
X629766Y-498588D01*
X629464Y-501650D01*
X629766Y-504712D01*
X630659Y-507656D01*
X632110Y-510370D01*
X634062Y-512748D01*
X635239Y-513715D01*
Y-514985D01*
X634062Y-515951D01*
X632110Y-518330D01*
X630659Y-521044D01*
X629766Y-523988D01*
X629464Y-527050D01*
X629766Y-530112D01*
X630659Y-533056D01*
X632110Y-535770D01*
X634062Y-538148D01*
X635239Y-539115D01*
Y-540385D01*
X634062Y-541352D01*
X632110Y-543730D01*
X630659Y-546444D01*
X629766Y-549388D01*
X629464Y-552450D01*
X629766Y-555512D01*
X630659Y-558456D01*
X632110Y-561170D01*
X634062Y-563549D01*
X635239Y-564515D01*
Y-565785D01*
X634062Y-566752D01*
X632110Y-569130D01*
X630659Y-571844D01*
X629766Y-574788D01*
X629464Y-577850D01*
X629766Y-580912D01*
X630659Y-583856D01*
X632110Y-586570D01*
X634062Y-588949D01*
X635239Y-589915D01*
Y-591185D01*
X634062Y-592151D01*
X632110Y-594530D01*
X630659Y-597244D01*
X629766Y-600188D01*
X629464Y-603250D01*
X629766Y-606312D01*
X630659Y-609256D01*
X632110Y-611970D01*
X634062Y-614348D01*
X636440Y-616300D01*
X639154Y-617751D01*
X642098Y-618644D01*
X645160Y-618946D01*
X648222Y-618644D01*
X651166Y-617751D01*
X653880Y-616300D01*
X656258Y-614348D01*
X658210Y-611970D01*
X659661Y-609256D01*
X660554Y-606312D01*
X660855Y-603250D01*
X660554Y-600188D01*
X659661Y-597244D01*
X658210Y-594530D01*
X656258Y-592151D01*
X655081Y-591185D01*
Y-589915D01*
X656258Y-588949D01*
X658210Y-586570D01*
X659661Y-583856D01*
X660554Y-580912D01*
X660855Y-577850D01*
X660554Y-574788D01*
X659661Y-571844D01*
X658210Y-569130D01*
X656258Y-566752D01*
X655081Y-565785D01*
Y-564515D01*
X656258Y-563549D01*
X658210Y-561170D01*
X659661Y-558456D01*
X660554Y-555512D01*
X660855Y-552450D01*
X660554Y-549388D01*
X659661Y-546444D01*
X658210Y-543730D01*
X656258Y-541352D01*
X655081Y-540385D01*
Y-539115D01*
X656258Y-538148D01*
X658210Y-535770D01*
X659661Y-533056D01*
X660554Y-530112D01*
X660855Y-527050D01*
X660554Y-523988D01*
X659661Y-521044D01*
X658210Y-518330D01*
X656258Y-515951D01*
X655081Y-514985D01*
Y-513715D01*
X656258Y-512748D01*
X658210Y-510370D01*
X659661Y-507656D01*
X660554Y-504712D01*
X660855Y-501650D01*
X660554Y-498588D01*
X659661Y-495644D01*
X658210Y-492930D01*
X656258Y-490551D01*
X655081Y-489585D01*
Y-488315D01*
X656258Y-487349D01*
X658210Y-484970D01*
X659661Y-482256D01*
X660554Y-479312D01*
X660855Y-476250D01*
X660554Y-473188D01*
X659661Y-470244D01*
X658210Y-467530D01*
X656258Y-465151D01*
X653880Y-463200D01*
X651166Y-461749D01*
X648222Y-460856D01*
X645160Y-460554D01*
D02*
G37*
G36*
X405124Y-582520D02*
X384196D01*
X384391Y-584002D01*
X385453Y-586566D01*
X386868Y-588410D01*
X386565Y-589789D01*
X386099Y-589901D01*
X382082Y-591564D01*
X378375Y-593836D01*
X375069Y-596659D01*
X372246Y-599965D01*
X369974Y-603672D01*
X368311Y-607689D01*
X367296Y-611916D01*
X366955Y-616250D01*
X367296Y-620584D01*
X368311Y-624811D01*
X369974Y-628828D01*
X372246Y-632535D01*
X375069Y-635841D01*
X378375Y-638664D01*
X382082Y-640936D01*
X386099Y-642599D01*
X390326Y-643614D01*
X394660Y-643955D01*
X398994Y-643614D01*
X403221Y-642599D01*
X407238Y-640936D01*
X410945Y-638664D01*
X414251Y-635841D01*
X417074Y-632535D01*
X419346Y-628828D01*
X421009Y-624811D01*
X422024Y-620584D01*
X422365Y-616250D01*
X422024Y-611916D01*
X421009Y-607689D01*
X419346Y-603672D01*
X417074Y-599965D01*
X414251Y-596659D01*
X410945Y-593836D01*
X407238Y-591564D01*
X403221Y-589901D01*
X402755Y-589789D01*
X402452Y-588410D01*
X403867Y-586566D01*
X404929Y-584002D01*
X405124Y-582520D01*
D02*
G37*
G36*
X747358Y-511930D02*
X717118D01*
Y-542170D01*
X719630D01*
X720173Y-543318D01*
X719605Y-544009D01*
X718201Y-546636D01*
X717337Y-549486D01*
X717045Y-552450D01*
X717337Y-555414D01*
X718201Y-558264D01*
X719605Y-560891D01*
X721495Y-563193D01*
X722878Y-564328D01*
Y-565971D01*
X721495Y-567107D01*
X719605Y-569409D01*
X718201Y-572036D01*
X717337Y-574886D01*
X717045Y-577850D01*
X717337Y-580814D01*
X718201Y-583664D01*
X719605Y-586291D01*
X721495Y-588593D01*
X722878Y-589729D01*
Y-591371D01*
X721495Y-592507D01*
X719605Y-594809D01*
X718201Y-597436D01*
X717337Y-600286D01*
X717045Y-603250D01*
X717337Y-606214D01*
X718201Y-609064D01*
X719605Y-611691D01*
X721495Y-613993D01*
X723797Y-615883D01*
X726424Y-617287D01*
X728454Y-617902D01*
X728631Y-619283D01*
X728415Y-619416D01*
X725109Y-622239D01*
X722286Y-625545D01*
X720014Y-629252D01*
X718351Y-633269D01*
X717336Y-637496D01*
X716995Y-641830D01*
X717336Y-646164D01*
X718351Y-650391D01*
X720014Y-654408D01*
X722286Y-658115D01*
X725109Y-661421D01*
X728415Y-664244D01*
X732122Y-666516D01*
X736139Y-668179D01*
X740366Y-669194D01*
X744700Y-669535D01*
X749034Y-669194D01*
X753261Y-668179D01*
X757278Y-666516D01*
X760985Y-664244D01*
X764291Y-661421D01*
X767114Y-658115D01*
X769386Y-654408D01*
X771049Y-650391D01*
X772064Y-646164D01*
X772405Y-641830D01*
X772064Y-637496D01*
X771049Y-633269D01*
X769386Y-629252D01*
X767114Y-625545D01*
X764291Y-622239D01*
X760985Y-619416D01*
X757278Y-617144D01*
X753261Y-615481D01*
X749034Y-614466D01*
X744700Y-614125D01*
X744503Y-614140D01*
X743865Y-612916D01*
X744871Y-611691D01*
X746275Y-609064D01*
X747139Y-606214D01*
X747431Y-603250D01*
X747139Y-600286D01*
X746275Y-597436D01*
X744871Y-594809D01*
X742981Y-592507D01*
X741598Y-591371D01*
Y-589729D01*
X742981Y-588593D01*
X744871Y-586291D01*
X746275Y-583664D01*
X747139Y-580814D01*
X747431Y-577850D01*
X747139Y-574886D01*
X746275Y-572036D01*
X744871Y-569409D01*
X742981Y-567107D01*
X741598Y-565971D01*
Y-564328D01*
X742981Y-563193D01*
X744871Y-560891D01*
X746275Y-558264D01*
X747139Y-555414D01*
X747431Y-552450D01*
X747139Y-549486D01*
X746275Y-546636D01*
X744871Y-544009D01*
X744304Y-543318D01*
X744846Y-542170D01*
X747358D01*
Y-511930D01*
D02*
G37*
%LPD*%
D31*
X271118Y-495962D02*
Y-477192D01*
X155890Y-611190D02*
X271118Y-495962D01*
Y-477192D02*
X273118D01*
X273120Y-477190D01*
X274120Y-476190D01*
X25080Y-611190D02*
X155890D01*
X19120Y-605230D02*
X25080Y-611190D01*
X19120Y-605230D02*
Y-577690D01*
X619760Y-54550D02*
X620120Y-54190D01*
X506620Y-186690D02*
X507120Y-187190D01*
X493015Y-186690D02*
X506620D01*
X469318Y-162992D02*
X493015Y-186690D01*
X469318Y-162992D02*
Y-122863D01*
X413765Y-67310D02*
X469318Y-122863D01*
X374650Y-67310D02*
X413765D01*
X350520Y-91440D02*
X374650Y-67310D01*
X406400Y-239776D02*
Y-181470D01*
X406120Y-181190D02*
X406400Y-181470D01*
X526542Y-466768D02*
Y-266700D01*
X488120Y-505190D02*
X526542Y-466768D01*
X469120Y-505190D02*
X488120D01*
X426120D02*
X469120D01*
X469900Y-504410D01*
Y-303276D01*
X313120Y-249190D02*
X323580D01*
X350520Y-222250D01*
X89120Y-581190D02*
Y-371190D01*
X19120Y-577690D02*
X29120Y-567690D01*
Y-566190D01*
X84120Y-591190D02*
Y-586190D01*
X89120Y-581190D01*
X22860Y-482868D02*
Y-386190D01*
Y-482868D02*
X29120Y-489128D01*
Y-491190D02*
Y-489128D01*
X22860Y-199512D02*
X29120Y-193252D01*
Y-191190D01*
X252730Y-96520D02*
X268790D01*
X269120Y-96190D01*
X161250Y-528320D02*
X189230D01*
X324120Y-96190D02*
Y-76190D01*
X294120Y-46190D02*
X324120Y-76190D01*
X69120Y-46190D02*
X294120D01*
X49120Y-66190D02*
X69120Y-46190D01*
X350520Y-222250D02*
Y-91440D01*
X213360Y-135890D02*
X252730Y-96520D01*
X213360Y-504190D02*
Y-135890D01*
X189230Y-528320D02*
X213360Y-504190D01*
X22860Y-384810D02*
Y-199512D01*
X580644Y-239522D02*
X619760Y-200406D01*
Y-54550D01*
X553720Y-239522D02*
X580644D01*
X526542Y-266700D02*
X553720Y-239522D01*
X406400Y-239776D02*
X469900Y-303276D01*
D32*
X289560Y-96520D02*
D03*
Y-121920D02*
D03*
Y-147320D02*
D03*
Y-172720D02*
D03*
Y-198120D02*
D03*
Y-223520D02*
D03*
Y-248920D02*
D03*
Y-274320D02*
D03*
Y-299720D02*
D03*
Y-325120D02*
D03*
Y-350520D02*
D03*
Y-375920D02*
D03*
Y-401320D02*
D03*
Y-426720D02*
D03*
Y-452120D02*
D03*
Y-477520D02*
D03*
Y-502920D02*
D03*
Y-528320D02*
D03*
Y-553720D02*
D03*
Y-579120D02*
D03*
X137160D02*
D03*
Y-553720D02*
D03*
Y-528320D02*
D03*
Y-502920D02*
D03*
Y-477520D02*
D03*
Y-452120D02*
D03*
Y-426720D02*
D03*
Y-401320D02*
D03*
Y-375920D02*
D03*
Y-350520D02*
D03*
Y-325120D02*
D03*
Y-299720D02*
D03*
Y-274320D02*
D03*
Y-248920D02*
D03*
Y-223520D02*
D03*
Y-198120D02*
D03*
Y-172720D02*
D03*
Y-147320D02*
D03*
Y-121920D02*
D03*
D33*
Y-96520D02*
D03*
D34*
X447040Y-210210D02*
D03*
D35*
Y-410210D02*
D03*
D36*
X406400Y-135890D02*
D03*
Y-110490D02*
D03*
Y-85090D02*
D03*
D37*
X394660Y-581250D02*
D03*
Y-555850D02*
D03*
Y-530450D02*
D03*
Y-505050D02*
D03*
X645160Y-603250D02*
D03*
Y-577850D02*
D03*
Y-552450D02*
D03*
Y-527050D02*
D03*
Y-501650D02*
D03*
Y-476250D02*
D03*
D38*
X394660Y-471250D02*
D03*
Y-616250D02*
D03*
D39*
X618490Y-269010D02*
D03*
X577850Y-373610D02*
D03*
D40*
X618490D02*
D03*
X577850Y-269010D02*
D03*
D41*
X681990Y-55010D02*
D03*
Y-105010D02*
D03*
Y-219310D02*
D03*
Y-169310D02*
D03*
D42*
X744700Y-30000D02*
D03*
Y-641830D02*
D03*
X30000Y-30000D02*
D03*
X30000Y-641830D02*
D03*
D43*
X48260Y-93980D02*
D03*
Y-119380D02*
D03*
Y-411480D02*
D03*
Y-386080D02*
D03*
Y-360680D02*
D03*
X732238Y-603250D02*
D03*
Y-577850D02*
D03*
Y-552450D02*
D03*
X48260Y-292100D02*
D03*
Y-266700D02*
D03*
Y-241300D02*
D03*
Y-215900D02*
D03*
Y-190500D02*
D03*
Y-491490D02*
D03*
Y-516890D02*
D03*
Y-542290D02*
D03*
Y-567690D02*
D03*
X568960Y-110490D02*
D03*
Y-135890D02*
D03*
Y-161290D02*
D03*
Y-186690D02*
D03*
Y-212090D02*
D03*
D44*
X48260Y-144780D02*
D03*
Y-436880D02*
D03*
X732238Y-527050D02*
D03*
X48260Y-317500D02*
D03*
Y-593090D02*
D03*
X568960Y-85090D02*
D03*
D45*
X704120Y-275790D02*
D03*
Y-301190D02*
D03*
D46*
X271118Y-477192D02*
D03*
X620120Y-54190D02*
D03*
X507120Y-187190D02*
D03*
X406120Y-181190D02*
D03*
X426120Y-505190D02*
D03*
X313120Y-249190D02*
D03*
X89120Y-371190D02*
D03*
X29120Y-567690D02*
D03*
X84120Y-593090D02*
D03*
X29120Y-491190D02*
D03*
X22860Y-386190D02*
D03*
X29120Y-191190D02*
D03*
X269120Y-96190D02*
D03*
X161250Y-528320D02*
D03*
X324120Y-96190D02*
D03*
X49120Y-66190D02*
D03*
M02*
