G04*
G04 #@! TF.GenerationSoftware,Altium Limited,Altium Designer,19.1.5 (86)*
G04*
G04 Layer_Physical_Order=2*
G04 Layer_Color=16711680*
%FSLAX25Y25*%
%MOIN*%
G70*
G01*
G75*
%ADD14C,0.02000*%
%ADD31O,0.08268X0.05512*%
%ADD32R,0.05937X0.05937*%
%ADD33C,0.05937*%
%ADD34C,0.13780*%
%ADD35C,0.06299*%
%ADD36C,0.15748*%
%ADD37R,0.10000X0.10000*%
%ADD38C,0.10000*%
%ADD39C,0.05906*%
%ADD40R,0.05906X0.05906*%
%ADD41O,0.09843X0.06890*%
%ADD42C,0.06000*%
%ADD43C,0.07874*%
%ADD44R,0.07874X0.07874*%
%ADD45C,0.05000*%
%ADD46C,0.03000*%
G36*
X154552Y-30963D02*
X154430Y-31193D01*
X154087Y-32324D01*
X153971Y-33500D01*
X154087Y-34676D01*
X154430Y-35807D01*
X154987Y-36849D01*
X155737Y-37763D01*
X156650Y-38513D01*
X157497Y-38965D01*
X157372Y-39465D01*
X147671D01*
X145035Y-36829D01*
Y-32171D01*
X146671Y-30534D01*
X154296D01*
X154552Y-30963D01*
D02*
G37*
G36*
X157497Y-48035D02*
X156650Y-48487D01*
X155737Y-49237D01*
X154987Y-50151D01*
X154430Y-51193D01*
X154087Y-52324D01*
X153971Y-53500D01*
X153980Y-53595D01*
X153645Y-53966D01*
X118410D01*
X118241Y-53759D01*
X117332Y-53013D01*
X116436Y-52535D01*
X116561Y-52034D01*
X141500D01*
X141500Y-52034D01*
X142544Y-51897D01*
X143517Y-51494D01*
X144353Y-50853D01*
X147671Y-47534D01*
X157372D01*
X157497Y-48035D01*
D02*
G37*
G36*
X111564Y-52535D02*
X110668Y-53013D01*
X109759Y-53759D01*
X109013Y-54668D01*
X108459Y-55705D01*
X108118Y-56830D01*
X108003Y-58000D01*
X108118Y-59170D01*
X108459Y-60295D01*
X109013Y-61332D01*
X109759Y-62241D01*
X110290Y-62677D01*
Y-63323D01*
X109759Y-63759D01*
X109590Y-63965D01*
X106500D01*
X106500Y-63965D01*
X105456Y-64103D01*
X104483Y-64506D01*
X103647Y-65147D01*
X103647Y-65147D01*
X93497Y-75298D01*
X93034Y-75107D01*
Y-65171D01*
X106171Y-52034D01*
X111439D01*
X111564Y-52535D01*
D02*
G37*
G36*
X264465Y-63560D02*
X264147Y-63805D01*
X263506Y-64640D01*
X263103Y-65613D01*
X263036Y-66123D01*
X262508Y-66302D01*
X253034Y-56829D01*
Y-51618D01*
X253034Y-51618D01*
X252897Y-50574D01*
X252494Y-49601D01*
X251853Y-48765D01*
X248926Y-45839D01*
X249118Y-45377D01*
X264465D01*
Y-63560D01*
D02*
G37*
G36*
X16597Y-41535D02*
X15677Y-42026D01*
X14770Y-42770D01*
X14027Y-43677D01*
X13474Y-44711D01*
X13133Y-45833D01*
X13018Y-47000D01*
X13133Y-48167D01*
X13474Y-49289D01*
X14027Y-50323D01*
X14250Y-50595D01*
X14036Y-51047D01*
X13047D01*
Y-62953D01*
X14461D01*
Y-70037D01*
X13961Y-70353D01*
X12900Y-69913D01*
X11465Y-69724D01*
X10029Y-69913D01*
X8691Y-70467D01*
X8073Y-70941D01*
X7625Y-70720D01*
Y-45581D01*
X12171Y-41034D01*
X16472D01*
X16597Y-41535D01*
D02*
G37*
G36*
X218047Y-39453D02*
X219036D01*
X219250Y-39905D01*
X219026Y-40177D01*
X218474Y-41211D01*
X218133Y-42333D01*
X218018Y-43500D01*
X218133Y-44667D01*
X218474Y-45789D01*
X219026Y-46823D01*
X219770Y-47730D01*
X220315Y-48177D01*
Y-48823D01*
X219770Y-49270D01*
X219026Y-50177D01*
X218474Y-51211D01*
X218133Y-52333D01*
X218018Y-53500D01*
X218133Y-54667D01*
X218474Y-55789D01*
X219026Y-56823D01*
X219770Y-57730D01*
X220677Y-58473D01*
X221597Y-58965D01*
X221472Y-59465D01*
X195260D01*
X194216Y-59603D01*
X193243Y-60006D01*
X192407Y-60647D01*
X180497Y-72558D01*
X180034Y-72366D01*
Y-49000D01*
X179897Y-47956D01*
X179494Y-46983D01*
X178853Y-46147D01*
X178853Y-46147D01*
X173353Y-40647D01*
X172517Y-40006D01*
X171544Y-39603D01*
X170500Y-39465D01*
X170500Y-39465D01*
X162628D01*
X162503Y-38965D01*
X163349Y-38513D01*
X164263Y-37763D01*
X164451Y-37534D01*
X218047D01*
Y-39453D01*
D02*
G37*
G36*
X107780Y-12596D02*
X73560Y-46816D01*
X72919Y-47652D01*
X72516Y-48625D01*
X72378Y-49669D01*
X72391Y-49761D01*
Y-67695D01*
X66120Y-73966D01*
X58410D01*
X58241Y-73759D01*
X57710Y-73323D01*
Y-72677D01*
X58241Y-72241D01*
X58987Y-71332D01*
X59541Y-70295D01*
X59882Y-69170D01*
X59997Y-68000D01*
X59882Y-66830D01*
X59541Y-65705D01*
X58987Y-64668D01*
X58241Y-63759D01*
X57710Y-63323D01*
Y-62677D01*
X58241Y-62241D01*
X58987Y-61332D01*
X59541Y-60295D01*
X59882Y-59170D01*
X59997Y-58000D01*
X59882Y-56830D01*
X59541Y-55705D01*
X58987Y-54668D01*
X58241Y-53759D01*
X57710Y-53323D01*
Y-52677D01*
X58241Y-52241D01*
X58987Y-51332D01*
X59541Y-50295D01*
X59882Y-49170D01*
X59997Y-48000D01*
X59882Y-46830D01*
X59541Y-45705D01*
X58987Y-44668D01*
X58784Y-44420D01*
X58997Y-43968D01*
X59969D01*
Y-32032D01*
X58034D01*
Y-24171D01*
X70071Y-12134D01*
X107589D01*
X107780Y-12596D01*
D02*
G37*
G36*
X171966Y-50671D02*
Y-78309D01*
X171737Y-78497D01*
X170987Y-79410D01*
X170430Y-80453D01*
X170087Y-81584D01*
X170020Y-82260D01*
X176000D01*
X182206D01*
X196931Y-67535D01*
X221472D01*
X221597Y-68034D01*
X220677Y-68527D01*
X219770Y-69270D01*
X219530Y-69564D01*
X203302D01*
X202427Y-68893D01*
X201089Y-68338D01*
X199653Y-68149D01*
X198218Y-68338D01*
X196880Y-68893D01*
X195731Y-69774D01*
X194849Y-70923D01*
X194295Y-72261D01*
X194106Y-73697D01*
X194295Y-75133D01*
X194849Y-76471D01*
X195731Y-77619D01*
X196880Y-78501D01*
X198218Y-79055D01*
X199653Y-79244D01*
X201089Y-79055D01*
X202427Y-78501D01*
X203559Y-77633D01*
X219691D01*
X219770Y-77730D01*
X220315Y-78177D01*
Y-78823D01*
X219770Y-79270D01*
X219026Y-80177D01*
X218474Y-81211D01*
X218133Y-82333D01*
X218018Y-83500D01*
X218043Y-83751D01*
X196450Y-105344D01*
X159447D01*
X139251Y-85147D01*
X138415Y-84506D01*
X137442Y-84103D01*
X136398Y-83965D01*
X136398Y-83965D01*
X118410D01*
X118241Y-83759D01*
X117710Y-83323D01*
Y-82677D01*
X118241Y-82241D01*
X118987Y-81332D01*
X119541Y-80295D01*
X119882Y-79170D01*
X119997Y-78000D01*
X119882Y-76830D01*
X119541Y-75705D01*
X118987Y-74668D01*
X118241Y-73759D01*
X117710Y-73323D01*
Y-72677D01*
X118241Y-72241D01*
X118987Y-71332D01*
X119541Y-70295D01*
X119882Y-69170D01*
X119997Y-68000D01*
X119882Y-66830D01*
X119541Y-65705D01*
X118987Y-64668D01*
X118241Y-63759D01*
X117710Y-63323D01*
Y-62677D01*
X118241Y-62241D01*
X118410Y-62034D01*
X155910D01*
Y-67486D01*
X155086Y-68561D01*
X154531Y-69899D01*
X154342Y-71335D01*
X154531Y-72770D01*
X155086Y-74108D01*
X155967Y-75257D01*
X157116Y-76139D01*
X158454Y-76693D01*
X159890Y-76882D01*
X161326Y-76693D01*
X162663Y-76139D01*
X163812Y-75257D01*
X164694Y-74108D01*
X165248Y-72770D01*
X165437Y-71335D01*
X165248Y-69899D01*
X164694Y-68561D01*
X163979Y-67630D01*
Y-57996D01*
X164263Y-57763D01*
X165013Y-56849D01*
X165570Y-55807D01*
X165913Y-54676D01*
X166029Y-53500D01*
X165913Y-52324D01*
X165570Y-51193D01*
X165013Y-50151D01*
X164263Y-49237D01*
X163349Y-48487D01*
X162503Y-48035D01*
X162628Y-47534D01*
X168829D01*
X171966Y-50671D01*
D02*
G37*
G36*
X264465Y-79671D02*
Y-81213D01*
X264219Y-81315D01*
X263017Y-82237D01*
X262094Y-83440D01*
X261762Y-84243D01*
X261271Y-84340D01*
X248035Y-71104D01*
Y-63894D01*
X248497Y-63702D01*
X264465Y-79671D01*
D02*
G37*
G36*
X40966Y-60171D02*
Y-79000D01*
X40966Y-79000D01*
X41103Y-80044D01*
X41506Y-81017D01*
X42147Y-81853D01*
X48029Y-87735D01*
X48003Y-88000D01*
X48118Y-89170D01*
X48459Y-90295D01*
X49013Y-91332D01*
X49759Y-92241D01*
X50290Y-92677D01*
Y-93323D01*
X49759Y-93759D01*
X49590Y-93966D01*
X43171D01*
X31353Y-82147D01*
X30517Y-81506D01*
X29544Y-81103D01*
X28500Y-80966D01*
X28500Y-80966D01*
X23390D01*
X23230Y-80770D01*
X22685Y-80323D01*
Y-79677D01*
X23230Y-79230D01*
X23974Y-78323D01*
X24526Y-77289D01*
X24867Y-76167D01*
X24982Y-75000D01*
X24867Y-73833D01*
X24526Y-72711D01*
X23974Y-71677D01*
X23539Y-71147D01*
Y-62953D01*
X24953D01*
Y-51047D01*
X25447Y-51034D01*
X31829D01*
X40966Y-60171D01*
D02*
G37*
G36*
X305000Y-264500D02*
X-0D01*
Y-180359D01*
X462Y-180168D01*
X7247Y-186953D01*
X7247Y-186953D01*
X8083Y-187594D01*
X8921Y-187941D01*
X8977Y-188459D01*
X8691Y-188578D01*
X7542Y-189459D01*
X6660Y-190608D01*
X6106Y-191946D01*
X5917Y-193382D01*
X6106Y-194818D01*
X6660Y-196156D01*
X7542Y-197304D01*
X8691Y-198186D01*
X10029Y-198740D01*
X11465Y-198929D01*
X12900Y-198740D01*
X14238Y-198186D01*
X14801Y-197755D01*
X15315Y-198177D01*
Y-198823D01*
X14770Y-199270D01*
X14610Y-199466D01*
X13000D01*
X11956Y-199603D01*
X10983Y-200006D01*
X10147Y-200647D01*
X10147Y-200647D01*
X2112Y-208683D01*
X1471Y-209518D01*
X1068Y-210491D01*
X930Y-211535D01*
X930Y-211536D01*
Y-231027D01*
X930Y-231027D01*
X1068Y-232071D01*
X1471Y-233044D01*
X2112Y-233880D01*
X10644Y-242412D01*
X10476Y-242883D01*
X9872Y-242942D01*
X8008Y-243508D01*
X6290Y-244426D01*
X4784Y-245662D01*
X3548Y-247168D01*
X2630Y-248886D01*
X2064Y-250750D01*
X1873Y-252689D01*
X2064Y-254628D01*
X2630Y-256492D01*
X3548Y-258210D01*
X4784Y-259716D01*
X6290Y-260952D01*
X8008Y-261870D01*
X9872Y-262436D01*
X11811Y-262627D01*
X13750Y-262436D01*
X15614Y-261870D01*
X17332Y-260952D01*
X18838Y-259716D01*
X20074Y-258210D01*
X20992Y-256492D01*
X21558Y-254628D01*
X21749Y-252689D01*
X21558Y-250750D01*
X20992Y-248886D01*
X20183Y-247372D01*
X20441Y-246872D01*
X59763D01*
X59763Y-246872D01*
X60807Y-246734D01*
X61780Y-246331D01*
X62615Y-245690D01*
X81247Y-227059D01*
X81247Y-227059D01*
X81888Y-226224D01*
X82291Y-225251D01*
X82428Y-224206D01*
Y-150894D01*
X82428Y-150894D01*
X82291Y-149849D01*
X81888Y-148876D01*
X81247Y-148041D01*
X81247Y-148041D01*
X68353Y-135147D01*
X67517Y-134506D01*
X66544Y-134103D01*
X65500Y-133966D01*
X65500Y-133966D01*
X58410D01*
X58241Y-133759D01*
X57710Y-133323D01*
Y-132677D01*
X58241Y-132241D01*
X58987Y-131332D01*
X59541Y-130295D01*
X59882Y-129170D01*
X59997Y-128000D01*
X59882Y-126830D01*
X59541Y-125705D01*
X58987Y-124668D01*
X58241Y-123759D01*
X57710Y-123323D01*
Y-122677D01*
X58241Y-122241D01*
X58987Y-121332D01*
X59541Y-120295D01*
X59882Y-119170D01*
X59997Y-118000D01*
X59882Y-116830D01*
X59541Y-115705D01*
X58987Y-114668D01*
X58241Y-113759D01*
X57710Y-113323D01*
Y-112677D01*
X58241Y-112241D01*
X58987Y-111332D01*
X59541Y-110295D01*
X59882Y-109170D01*
X59997Y-108000D01*
X59882Y-106830D01*
X59541Y-105705D01*
X58987Y-104668D01*
X58241Y-103759D01*
X57710Y-103323D01*
Y-102677D01*
X58241Y-102241D01*
X58987Y-101332D01*
X59541Y-100295D01*
X59882Y-99170D01*
X59997Y-98000D01*
X59882Y-96830D01*
X59541Y-95705D01*
X58987Y-94668D01*
X58241Y-93759D01*
X57710Y-93323D01*
Y-92677D01*
X58241Y-92241D01*
X58987Y-91332D01*
X59541Y-90295D01*
X59882Y-89170D01*
X59997Y-88000D01*
X59882Y-86830D01*
X59541Y-85705D01*
X58987Y-84668D01*
X58241Y-83759D01*
X57710Y-83323D01*
Y-82677D01*
X58241Y-82241D01*
X58410Y-82034D01*
X67791D01*
X67791Y-82034D01*
X68836Y-81897D01*
X69809Y-81494D01*
X70644Y-80853D01*
X79278Y-72219D01*
X79919Y-71383D01*
X80322Y-70410D01*
X80460Y-69366D01*
Y-51328D01*
X114653Y-17134D01*
X239802D01*
X240048Y-17635D01*
X239337Y-18561D01*
X238783Y-19899D01*
X238594Y-21335D01*
X238783Y-22770D01*
X239337Y-24108D01*
X240219Y-25257D01*
X241368Y-26139D01*
X242706Y-26693D01*
X244142Y-26882D01*
X245578Y-26693D01*
X246916Y-26139D01*
X247708Y-25530D01*
X262839D01*
X263017Y-25763D01*
X264219Y-26685D01*
X265619Y-27265D01*
X267122Y-27463D01*
X269878D01*
X271380Y-27265D01*
X272781Y-26685D01*
X273983Y-25763D01*
X274906Y-24560D01*
X275238Y-23757D01*
X275729Y-23660D01*
X287351Y-35282D01*
Y-100353D01*
X286889Y-100545D01*
X279992Y-93647D01*
X279156Y-93006D01*
X278183Y-92603D01*
X277139Y-92466D01*
X277139Y-92466D01*
X271297D01*
X271264Y-91966D01*
X271380Y-91950D01*
X272781Y-91370D01*
X273983Y-90448D01*
X274906Y-89245D01*
X275486Y-87845D01*
X275683Y-86342D01*
X275486Y-84840D01*
X274906Y-83440D01*
X273983Y-82237D01*
X272781Y-81315D01*
X272534Y-81213D01*
Y-78000D01*
X272397Y-76956D01*
X271994Y-75983D01*
X271353Y-75147D01*
X271353Y-75147D01*
X267398Y-71192D01*
X267605Y-70692D01*
X268500D01*
X269544Y-70554D01*
X269807Y-70446D01*
X269878D01*
X270858Y-70317D01*
X271772Y-69938D01*
X272557Y-69336D01*
X273159Y-68552D01*
X273537Y-67638D01*
X273600Y-67157D01*
X268500D01*
Y-66157D01*
X273600D01*
X273537Y-65677D01*
X273159Y-64763D01*
X272557Y-63979D01*
X272534Y-63962D01*
Y-44038D01*
X272557Y-44021D01*
X273159Y-43237D01*
X273537Y-42323D01*
X273600Y-41842D01*
X268500D01*
Y-40842D01*
X273600D01*
X273537Y-40362D01*
X273159Y-39448D01*
X272557Y-38664D01*
X271772Y-38062D01*
X270858Y-37683D01*
X269878Y-37554D01*
X269807D01*
X269544Y-37445D01*
X268500Y-37308D01*
X247466D01*
X233806Y-23647D01*
X232970Y-23006D01*
X231997Y-22603D01*
X230953Y-22466D01*
X230953Y-22466D01*
X145000D01*
X143956Y-22603D01*
X142983Y-23006D01*
X142147Y-23647D01*
X142147Y-23647D01*
X138147Y-27647D01*
X137506Y-28483D01*
X137103Y-29456D01*
X136966Y-30500D01*
X136966Y-30500D01*
Y-38500D01*
X136966Y-38500D01*
X137103Y-39544D01*
X137506Y-40517D01*
X138147Y-41353D01*
X140294Y-43500D01*
X139829Y-43966D01*
X131641D01*
Y-37870D01*
X131503Y-36826D01*
X131100Y-35853D01*
X130459Y-35017D01*
X129624Y-34376D01*
X128650Y-33973D01*
X127606Y-33836D01*
X126562Y-33973D01*
X125589Y-34376D01*
X124753Y-35017D01*
X124112Y-35853D01*
X123709Y-36826D01*
X123572Y-37870D01*
Y-43966D01*
X116561D01*
X116436Y-43466D01*
X117332Y-42987D01*
X118241Y-42241D01*
X118987Y-41332D01*
X119541Y-40295D01*
X119882Y-39170D01*
X119997Y-38000D01*
X119882Y-36830D01*
X119541Y-35705D01*
X118987Y-34668D01*
X118241Y-33759D01*
X117332Y-33013D01*
X116295Y-32459D01*
X115170Y-32118D01*
X114000Y-32003D01*
X112830Y-32118D01*
X111705Y-32459D01*
X110668Y-33013D01*
X109759Y-33759D01*
X109709Y-33820D01*
X108727Y-33066D01*
X107388Y-32512D01*
X105953Y-32323D01*
X104517Y-32512D01*
X103179Y-33066D01*
X102030Y-33947D01*
X101148Y-35096D01*
X100594Y-36434D01*
X100405Y-37870D01*
X100594Y-39306D01*
X101148Y-40644D01*
X102030Y-41793D01*
X103179Y-42674D01*
X104517Y-43229D01*
X105953Y-43418D01*
X107388Y-43229D01*
X108727Y-42674D01*
X109579Y-42021D01*
X109759Y-42241D01*
X110668Y-42987D01*
X111564Y-43466D01*
X111439Y-43966D01*
X104500D01*
X103456Y-44103D01*
X102483Y-44506D01*
X101647Y-45147D01*
X86147Y-60647D01*
X85506Y-61483D01*
X85103Y-62456D01*
X84965Y-63500D01*
X84965Y-63500D01*
X84965Y-233500D01*
X84965Y-233500D01*
X85103Y-234544D01*
X85506Y-235517D01*
X86147Y-236353D01*
X97647Y-247853D01*
X98483Y-248494D01*
X99456Y-248897D01*
X100500Y-249035D01*
X131500D01*
X131500Y-249035D01*
X132544Y-248897D01*
X133517Y-248494D01*
X134353Y-247853D01*
X145917Y-236289D01*
X146312Y-236601D01*
X145659Y-237666D01*
X145004Y-239247D01*
X144605Y-240912D01*
X144470Y-242618D01*
X144605Y-244324D01*
X145004Y-245989D01*
X145659Y-247570D01*
X146554Y-249029D01*
X147665Y-250331D01*
X148967Y-251443D01*
X150426Y-252337D01*
X152007Y-252992D01*
X153672Y-253391D01*
X155378Y-253526D01*
X157084Y-253391D01*
X158749Y-252992D01*
X160330Y-252337D01*
X161789Y-251443D01*
X163091Y-250331D01*
X164202Y-249029D01*
X165097Y-247570D01*
X165752Y-245989D01*
X166151Y-244324D01*
X166286Y-242618D01*
X166151Y-240912D01*
X165752Y-239247D01*
X165097Y-237666D01*
X164202Y-236207D01*
X163091Y-234905D01*
X161789Y-233794D01*
X160330Y-232899D01*
X158749Y-232244D01*
X158565Y-232200D01*
X158446Y-231657D01*
X159003Y-230931D01*
X159421Y-229922D01*
X159497Y-229339D01*
X155378D01*
Y-228339D01*
X159497D01*
X159421Y-227755D01*
X159003Y-226746D01*
X158337Y-225879D01*
X157471Y-225214D01*
X157343Y-225161D01*
X157367Y-224661D01*
X157743Y-224548D01*
X158811Y-223976D01*
X159747Y-223208D01*
X160516Y-222272D01*
X161087Y-221203D01*
X161439Y-220044D01*
X161557Y-218839D01*
X161439Y-217633D01*
X161087Y-216474D01*
X160516Y-215406D01*
X159747Y-214469D01*
X159284Y-214089D01*
Y-213589D01*
X159747Y-213208D01*
X160516Y-212272D01*
X161087Y-211203D01*
X161439Y-210044D01*
X161557Y-208839D01*
X161439Y-207633D01*
X161087Y-206474D01*
X160516Y-205405D01*
X159747Y-204469D01*
X159284Y-204089D01*
Y-203589D01*
X159747Y-203208D01*
X160000Y-202901D01*
X163951D01*
X164990Y-203698D01*
X166328Y-204252D01*
X167764Y-204441D01*
X169200Y-204252D01*
X170537Y-203698D01*
X171686Y-202816D01*
X172568Y-201667D01*
X173122Y-200329D01*
X173311Y-198894D01*
X173122Y-197458D01*
X172568Y-196120D01*
X171686Y-194971D01*
X170537Y-194089D01*
X169200Y-193535D01*
X167764Y-193346D01*
X166328Y-193535D01*
X164990Y-194089D01*
X164023Y-194832D01*
X161923D01*
X161818Y-194459D01*
X161818Y-194332D01*
X163091Y-193244D01*
X164202Y-191943D01*
X165097Y-190483D01*
X165752Y-188902D01*
X166151Y-187238D01*
X166286Y-185531D01*
X166151Y-183825D01*
X165752Y-182161D01*
X165097Y-180579D01*
X164202Y-179120D01*
X163091Y-177819D01*
X161789Y-176707D01*
X160330Y-175813D01*
X158749Y-175158D01*
X157084Y-174758D01*
X155378Y-174624D01*
X153672Y-174758D01*
X152007Y-175158D01*
X150426Y-175813D01*
X148967Y-176707D01*
X147665Y-177819D01*
X146554Y-179120D01*
X145659Y-180579D01*
X145004Y-182161D01*
X144605Y-183825D01*
X144470Y-185531D01*
X144605Y-187238D01*
X145004Y-188902D01*
X145659Y-190483D01*
X146554Y-191943D01*
X147665Y-193244D01*
X148967Y-194356D01*
X150189Y-195105D01*
X150240Y-195405D01*
X149669Y-196474D01*
X149317Y-197633D01*
X149199Y-198839D01*
X149317Y-200044D01*
X149669Y-201203D01*
X150240Y-202272D01*
X151008Y-203208D01*
X151472Y-203589D01*
Y-204089D01*
X151008Y-204469D01*
X150734Y-204804D01*
X148969D01*
X147924Y-204942D01*
X146951Y-205345D01*
X146116Y-205986D01*
X146116Y-205986D01*
X121136Y-230965D01*
X119669D01*
X119412Y-230537D01*
X119541Y-230295D01*
X119882Y-229170D01*
X119997Y-228000D01*
X119882Y-226830D01*
X119541Y-225705D01*
X118987Y-224668D01*
X118241Y-223759D01*
X117710Y-223323D01*
Y-222677D01*
X118241Y-222241D01*
X118987Y-221332D01*
X119541Y-220295D01*
X119882Y-219170D01*
X119997Y-218000D01*
X119882Y-216830D01*
X119541Y-215705D01*
X118987Y-214668D01*
X118241Y-213759D01*
X117710Y-213323D01*
Y-212677D01*
X118241Y-212241D01*
X118987Y-211332D01*
X119541Y-210295D01*
X119882Y-209170D01*
X119997Y-208000D01*
X119882Y-206830D01*
X119541Y-205705D01*
X118987Y-204668D01*
X118241Y-203759D01*
X117710Y-203323D01*
Y-202677D01*
X118241Y-202241D01*
X118987Y-201332D01*
X119541Y-200295D01*
X119882Y-199170D01*
X119997Y-198000D01*
X119882Y-196830D01*
X119541Y-195705D01*
X118987Y-194668D01*
X118241Y-193759D01*
X117710Y-193323D01*
Y-192677D01*
X118241Y-192241D01*
X118987Y-191332D01*
X119541Y-190295D01*
X119882Y-189170D01*
X119997Y-188000D01*
X119882Y-186830D01*
X119541Y-185705D01*
X118987Y-184668D01*
X118241Y-183759D01*
X117710Y-183323D01*
Y-182677D01*
X118241Y-182241D01*
X118987Y-181332D01*
X119541Y-180295D01*
X119882Y-179170D01*
X119997Y-178000D01*
X119882Y-176830D01*
X119541Y-175705D01*
X118987Y-174668D01*
X118241Y-173759D01*
X117710Y-173323D01*
Y-172677D01*
X118241Y-172241D01*
X118987Y-171332D01*
X119541Y-170295D01*
X119882Y-169170D01*
X119997Y-168000D01*
X119882Y-166830D01*
X119541Y-165705D01*
X118987Y-164668D01*
X118241Y-163759D01*
X117710Y-163323D01*
Y-162677D01*
X118241Y-162241D01*
X118987Y-161332D01*
X119541Y-160295D01*
X119882Y-159170D01*
X119997Y-158000D01*
X119882Y-156830D01*
X119541Y-155705D01*
X118987Y-154668D01*
X118241Y-153759D01*
X117710Y-153323D01*
Y-152677D01*
X118241Y-152241D01*
X118987Y-151332D01*
X119541Y-150295D01*
X119882Y-149170D01*
X119997Y-148000D01*
X119882Y-146830D01*
X119541Y-145705D01*
X118987Y-144668D01*
X118241Y-143759D01*
X117710Y-143323D01*
Y-142677D01*
X118241Y-142241D01*
X118987Y-141332D01*
X119541Y-140295D01*
X119882Y-139170D01*
X119997Y-138000D01*
X119882Y-136830D01*
X119541Y-135705D01*
X118987Y-134668D01*
X118241Y-133759D01*
X117710Y-133323D01*
Y-132677D01*
X118241Y-132241D01*
X118987Y-131332D01*
X119541Y-130295D01*
X119882Y-129170D01*
X119997Y-128000D01*
X119882Y-126830D01*
X119541Y-125705D01*
X118987Y-124668D01*
X118241Y-123759D01*
X117710Y-123323D01*
Y-122677D01*
X118241Y-122241D01*
X118987Y-121332D01*
X119541Y-120295D01*
X119882Y-119170D01*
X119997Y-118000D01*
X119882Y-116830D01*
X119541Y-115705D01*
X118987Y-114668D01*
X118241Y-113759D01*
X117710Y-113323D01*
Y-112677D01*
X118241Y-112241D01*
X118987Y-111332D01*
X119541Y-110295D01*
X119882Y-109170D01*
X119997Y-108000D01*
X119882Y-106830D01*
X119541Y-105705D01*
X118987Y-104668D01*
X118241Y-103759D01*
X117710Y-103323D01*
Y-102677D01*
X118241Y-102241D01*
X118366Y-102088D01*
X119430D01*
X120502Y-102910D01*
X121840Y-103465D01*
X123276Y-103654D01*
X124711Y-103465D01*
X126049Y-102910D01*
X127198Y-102029D01*
X128080Y-100880D01*
X128634Y-99542D01*
X128823Y-98106D01*
X128634Y-96671D01*
X128080Y-95333D01*
X127198Y-94184D01*
X126049Y-93302D01*
X124711Y-92748D01*
X123276Y-92559D01*
X121840Y-92748D01*
X120502Y-93302D01*
X119568Y-94019D01*
X118454D01*
X118241Y-93759D01*
X117710Y-93323D01*
Y-92677D01*
X118241Y-92241D01*
X118410Y-92035D01*
X134727D01*
X154923Y-112231D01*
X154923Y-112231D01*
X155759Y-112872D01*
X156732Y-113276D01*
X157776Y-113413D01*
X198122D01*
X198122Y-113413D01*
X199166Y-113276D01*
X200139Y-112872D01*
X200974Y-112231D01*
X223749Y-89457D01*
X224000Y-89482D01*
X225167Y-89367D01*
X226289Y-89026D01*
X227323Y-88473D01*
X228230Y-87730D01*
X228974Y-86823D01*
X229526Y-85789D01*
X229867Y-84667D01*
X229981Y-83500D01*
X229867Y-82333D01*
X229526Y-81211D01*
X228974Y-80177D01*
X228230Y-79270D01*
X227685Y-78823D01*
Y-78177D01*
X228230Y-77730D01*
X228974Y-76823D01*
X229526Y-75789D01*
X229867Y-74667D01*
X229981Y-73500D01*
X229867Y-72333D01*
X229526Y-71211D01*
X228974Y-70177D01*
X228230Y-69270D01*
X227323Y-68527D01*
X226289Y-67974D01*
X225521Y-67741D01*
X225495Y-67210D01*
X226017Y-66994D01*
X226853Y-66353D01*
X227494Y-65517D01*
X227897Y-64544D01*
X228034Y-63500D01*
X227897Y-62456D01*
X227494Y-61483D01*
X226853Y-60647D01*
X226017Y-60006D01*
X225495Y-59790D01*
X225521Y-59259D01*
X226289Y-59026D01*
X227323Y-58473D01*
X228230Y-57730D01*
X228390Y-57534D01*
X229329D01*
X233965Y-62171D01*
Y-80500D01*
X233965Y-80500D01*
X234103Y-81544D01*
X234506Y-82517D01*
X235147Y-83353D01*
X250267Y-98472D01*
X250060Y-98972D01*
X246986D01*
X246353Y-98147D01*
X243253Y-95047D01*
X242417Y-94406D01*
X241444Y-94003D01*
X240400Y-93866D01*
X240400Y-93866D01*
X222600D01*
X221556Y-94003D01*
X220583Y-94406D01*
X219747Y-95047D01*
X216647Y-98147D01*
X216006Y-98983D01*
X215603Y-99956D01*
X215465Y-101000D01*
X215465Y-101000D01*
Y-114200D01*
X215465Y-114200D01*
X215603Y-115244D01*
X216006Y-116217D01*
X216647Y-117053D01*
X233447Y-133853D01*
X233447Y-133853D01*
X234283Y-134494D01*
X235256Y-134897D01*
X236300Y-135035D01*
X236300Y-135035D01*
X280000D01*
X280000Y-135035D01*
X281044Y-134897D01*
X282017Y-134494D01*
X282853Y-133853D01*
X292007Y-124698D01*
X292469Y-124890D01*
Y-137825D01*
X272829Y-157466D01*
X184000D01*
Y-153500D01*
X168000D01*
Y-169500D01*
X184000D01*
Y-165534D01*
X274500D01*
X274500Y-165534D01*
X275544Y-165397D01*
X276517Y-164994D01*
X277353Y-164353D01*
X299357Y-142349D01*
X299998Y-141513D01*
X300401Y-140540D01*
X300538Y-139496D01*
X300538Y-33611D01*
Y-32695D01*
X300538Y-32695D01*
X300420Y-31798D01*
Y-30950D01*
X300420Y-30950D01*
X300283Y-29906D01*
X299880Y-28933D01*
X299239Y-28097D01*
X293374Y-22233D01*
X293561Y-21712D01*
X295128Y-21558D01*
X296992Y-20992D01*
X298710Y-20074D01*
X300216Y-18838D01*
X301452Y-17332D01*
X302370Y-15614D01*
X302936Y-13750D01*
X303127Y-11811D01*
X302936Y-9872D01*
X302370Y-8008D01*
X301452Y-6290D01*
X300216Y-4784D01*
X298710Y-3548D01*
X296992Y-2630D01*
X295128Y-2064D01*
X293189Y-1873D01*
X291250Y-2064D01*
X289386Y-2630D01*
X287668Y-3548D01*
X286162Y-4784D01*
X284926Y-6290D01*
X284008Y-8008D01*
X283442Y-9872D01*
X283288Y-11439D01*
X282767Y-11626D01*
X276389Y-5247D01*
X275553Y-4606D01*
X274580Y-4203D01*
X273536Y-4065D01*
X273536Y-4065D01*
X68400D01*
X68400Y-4065D01*
X67356Y-4203D01*
X66383Y-4606D01*
X65547Y-5247D01*
X65547Y-5247D01*
X51147Y-19647D01*
X50506Y-20483D01*
X50103Y-21456D01*
X49966Y-22500D01*
X49966Y-22500D01*
Y-32032D01*
X48031D01*
Y-43968D01*
X49003D01*
X49216Y-44420D01*
X49013Y-44668D01*
X48459Y-45705D01*
X48118Y-46830D01*
X48003Y-48000D01*
X48118Y-49170D01*
X48459Y-50295D01*
X49013Y-51332D01*
X49759Y-52241D01*
X50290Y-52677D01*
Y-53323D01*
X49759Y-53759D01*
X49013Y-54668D01*
X48487Y-55652D01*
X48156Y-55761D01*
X47967Y-55796D01*
X47853Y-55647D01*
X47853Y-55647D01*
X36353Y-44147D01*
X35517Y-43506D01*
X34544Y-43103D01*
X33500Y-42965D01*
X33500Y-42965D01*
X23390D01*
X23230Y-42770D01*
X22323Y-42026D01*
X21289Y-41474D01*
X20521Y-41241D01*
X20495Y-40710D01*
X21017Y-40494D01*
X21853Y-39853D01*
X22022Y-39684D01*
X22022Y-39684D01*
X22663Y-38848D01*
X23066Y-37875D01*
X23204Y-36831D01*
Y-27180D01*
X23236Y-27103D01*
X23373Y-26059D01*
X23236Y-25015D01*
X22833Y-24042D01*
X22191Y-23206D01*
X21356Y-22565D01*
X20383Y-22162D01*
X19339Y-22025D01*
X18294Y-22162D01*
X17321Y-22565D01*
X16486Y-23206D01*
X16316Y-23376D01*
X15675Y-24211D01*
X15272Y-25184D01*
X15135Y-26228D01*
X15135Y-26228D01*
Y-32965D01*
X10500D01*
X10500Y-32965D01*
X9456Y-33103D01*
X8483Y-33506D01*
X7647Y-34147D01*
X7647Y-34147D01*
X738Y-41057D01*
X500Y-41366D01*
X-0Y-41197D01*
Y-0D01*
X0Y0D01*
X305000D01*
Y-264500D01*
D02*
G37*
G36*
X264873Y-99353D02*
X265708Y-99994D01*
X266681Y-100397D01*
X267725Y-100534D01*
X267725Y-100534D01*
X275468D01*
X276574Y-101641D01*
X276383Y-102103D01*
X275736D01*
X274473Y-102227D01*
X273258Y-102596D01*
X272138Y-103194D01*
X271157Y-103999D01*
X270775Y-104465D01*
X261843D01*
X259034Y-101657D01*
Y-97500D01*
X258897Y-96456D01*
X258494Y-95483D01*
X257853Y-94647D01*
X242035Y-78829D01*
Y-77168D01*
X242496Y-76977D01*
X264873Y-99353D01*
D02*
G37*
G36*
X250965Y-99672D02*
Y-103328D01*
X250965Y-103328D01*
X251103Y-104373D01*
X251506Y-105346D01*
X252147Y-106181D01*
X257319Y-111353D01*
X258154Y-111994D01*
X259127Y-112397D01*
X260172Y-112534D01*
X260172Y-112534D01*
X270645D01*
X271157Y-113158D01*
X271365Y-113329D01*
Y-113829D01*
X271157Y-113999D01*
X270710Y-114544D01*
X269098D01*
X268500Y-114465D01*
X268500Y-114465D01*
X234671D01*
X231931Y-111726D01*
X231956Y-111226D01*
X232429Y-110838D01*
X233296Y-109782D01*
X233940Y-108577D01*
X234337Y-107269D01*
X234471Y-105909D01*
X234337Y-104550D01*
X233940Y-103242D01*
X233508Y-102435D01*
X233808Y-101935D01*
X236563D01*
Y-112846D01*
X250437D01*
Y-99920D01*
X250937Y-99653D01*
X250965Y-99672D01*
D02*
G37*
G36*
X8691Y-80076D02*
X10029Y-80630D01*
X11465Y-80819D01*
X12900Y-80630D01*
X14238Y-80076D01*
X14841Y-79613D01*
X15270Y-79854D01*
X15292Y-80342D01*
X14770Y-80770D01*
X14027Y-81677D01*
X13474Y-82711D01*
X13133Y-83833D01*
X13018Y-85000D01*
X13133Y-86167D01*
X13474Y-87289D01*
X14027Y-88323D01*
X14770Y-89230D01*
X15315Y-89677D01*
Y-90323D01*
X14770Y-90770D01*
X14027Y-91677D01*
X13474Y-92711D01*
X13133Y-93833D01*
X13018Y-95000D01*
X13133Y-96167D01*
X13474Y-97289D01*
X14027Y-98323D01*
X14770Y-99230D01*
X15315Y-99677D01*
Y-100323D01*
X14770Y-100770D01*
X14027Y-101677D01*
X13474Y-102711D01*
X13133Y-103833D01*
X13018Y-105000D01*
X13133Y-106167D01*
X13474Y-107289D01*
X14027Y-108323D01*
X14770Y-109230D01*
X15315Y-109677D01*
Y-110323D01*
X14770Y-110770D01*
X14027Y-111677D01*
X13474Y-112711D01*
X13133Y-113833D01*
X13018Y-115000D01*
X13133Y-116167D01*
X13474Y-117289D01*
X14027Y-118323D01*
X14770Y-119230D01*
X15677Y-119974D01*
X16597Y-120466D01*
X16472Y-120966D01*
X14171D01*
X7625Y-114419D01*
Y-79823D01*
X8073Y-79602D01*
X8691Y-80076D01*
D02*
G37*
G36*
X268579Y-122613D02*
X268579Y-122613D01*
X270710D01*
X271157Y-123158D01*
X272138Y-123963D01*
X273258Y-124562D01*
X274473Y-124930D01*
X275736Y-125055D01*
X278689D01*
X279625Y-124963D01*
X279852Y-125443D01*
X278329Y-126965D01*
X237971D01*
X234002Y-122996D01*
X234193Y-122535D01*
X267981D01*
X268579Y-122613D01*
D02*
G37*
G36*
X738Y-118943D02*
X9647Y-127853D01*
X9647Y-127853D01*
X10483Y-128494D01*
X11456Y-128897D01*
X12500Y-129034D01*
X12500Y-129034D01*
X14965D01*
Y-137966D01*
X5760D01*
X4716Y-138103D01*
X3743Y-138506D01*
X2907Y-139147D01*
X2907Y-139147D01*
X462Y-141592D01*
X-0Y-141401D01*
Y-118803D01*
X500Y-118634D01*
X738Y-118943D01*
D02*
G37*
G36*
X40647Y-130853D02*
X40647Y-130853D01*
X41483Y-131494D01*
X42456Y-131897D01*
X43500Y-132035D01*
X43500Y-132035D01*
X49590D01*
X49759Y-132241D01*
X50290Y-132677D01*
Y-133323D01*
X49759Y-133759D01*
X49013Y-134668D01*
X48459Y-135705D01*
X48118Y-136830D01*
X48003Y-138000D01*
X48118Y-139170D01*
X48459Y-140295D01*
X49013Y-141332D01*
X49759Y-142241D01*
X50290Y-142677D01*
Y-143323D01*
X49759Y-143759D01*
X49013Y-144668D01*
X48459Y-145705D01*
X48118Y-146830D01*
X48003Y-148000D01*
X48118Y-149170D01*
X48459Y-150295D01*
X49013Y-151332D01*
X49759Y-152241D01*
X50290Y-152677D01*
Y-153323D01*
X49759Y-153759D01*
X49013Y-154668D01*
X48459Y-155705D01*
X48118Y-156830D01*
X48003Y-158000D01*
X48118Y-159170D01*
X48459Y-160295D01*
X49013Y-161332D01*
X49759Y-162241D01*
X50290Y-162677D01*
Y-163323D01*
X49759Y-163759D01*
X49013Y-164668D01*
X48459Y-165705D01*
X48118Y-166830D01*
X48003Y-168000D01*
X48118Y-169170D01*
X48459Y-170295D01*
X49013Y-171332D01*
X49759Y-172241D01*
X50290Y-172677D01*
Y-173323D01*
X49759Y-173759D01*
X49590Y-173966D01*
X47171D01*
X32353Y-159147D01*
X31517Y-158506D01*
X30544Y-158103D01*
X29500Y-157966D01*
X29500Y-157966D01*
X23390D01*
X23230Y-157770D01*
X22685Y-157323D01*
Y-156677D01*
X23230Y-156230D01*
X23974Y-155323D01*
X24526Y-154289D01*
X24867Y-153167D01*
X24982Y-152000D01*
X24867Y-150833D01*
X24526Y-149711D01*
X23974Y-148677D01*
X23230Y-147770D01*
X22323Y-147027D01*
X21403Y-146535D01*
X21528Y-146035D01*
X29278D01*
X32234Y-148991D01*
X33069Y-149632D01*
X34042Y-150035D01*
X35087Y-150172D01*
X36131Y-150035D01*
X37104Y-149632D01*
X37939Y-148991D01*
X38581Y-148155D01*
X38984Y-147182D01*
X39121Y-146138D01*
X38984Y-145094D01*
X38581Y-144121D01*
X37939Y-143285D01*
X33802Y-139147D01*
X32966Y-138506D01*
X31993Y-138103D01*
X30949Y-137966D01*
X30949Y-137966D01*
X23034D01*
Y-125000D01*
X22953Y-124379D01*
Y-121047D01*
X21294D01*
X21220Y-120547D01*
X21289Y-120526D01*
X22323Y-119974D01*
X23230Y-119230D01*
X23390Y-119035D01*
X28829D01*
X40647Y-130853D01*
D02*
G37*
G36*
X74359Y-152565D02*
Y-155631D01*
X73859Y-155801D01*
X73373Y-155167D01*
X63353Y-145147D01*
X62517Y-144506D01*
X61544Y-144103D01*
X60500Y-143965D01*
X60500Y-143965D01*
X58410D01*
X58241Y-143759D01*
X57710Y-143323D01*
Y-142677D01*
X58241Y-142241D01*
X58410Y-142034D01*
X63829D01*
X74359Y-152565D01*
D02*
G37*
G36*
X7564Y-157402D02*
X7965Y-157455D01*
Y-175607D01*
X7503Y-175798D01*
X6534Y-174829D01*
Y-157425D01*
X6950Y-157147D01*
X7564Y-157402D01*
D02*
G37*
G36*
X110290Y-82677D02*
Y-83323D01*
X109759Y-83759D01*
X109013Y-84668D01*
X108459Y-85705D01*
X108118Y-86830D01*
X108003Y-88000D01*
X108118Y-89170D01*
X108459Y-90295D01*
X109013Y-91332D01*
X109759Y-92241D01*
X110290Y-92677D01*
Y-93323D01*
X109759Y-93759D01*
X109013Y-94668D01*
X108459Y-95705D01*
X108118Y-96830D01*
X108003Y-98000D01*
X108118Y-99170D01*
X108459Y-100295D01*
X109013Y-101332D01*
X109759Y-102241D01*
X110290Y-102677D01*
Y-103323D01*
X109759Y-103759D01*
X109013Y-104668D01*
X108459Y-105705D01*
X108118Y-106830D01*
X108003Y-108000D01*
X108118Y-109170D01*
X108459Y-110295D01*
X109013Y-111332D01*
X109759Y-112241D01*
X110290Y-112677D01*
Y-113323D01*
X109759Y-113759D01*
X109013Y-114668D01*
X108459Y-115705D01*
X108118Y-116830D01*
X108003Y-118000D01*
X108118Y-119170D01*
X108459Y-120295D01*
X109013Y-121332D01*
X109759Y-122241D01*
X110290Y-122677D01*
Y-123323D01*
X109759Y-123759D01*
X109013Y-124668D01*
X108459Y-125705D01*
X108118Y-126830D01*
X108003Y-128000D01*
X108118Y-129170D01*
X108459Y-130295D01*
X109013Y-131332D01*
X109759Y-132241D01*
X110290Y-132677D01*
Y-133323D01*
X109759Y-133759D01*
X109013Y-134668D01*
X108459Y-135705D01*
X108118Y-136830D01*
X108003Y-138000D01*
X108118Y-139170D01*
X108459Y-140295D01*
X109013Y-141332D01*
X109759Y-142241D01*
X110290Y-142677D01*
Y-143323D01*
X109759Y-143759D01*
X109013Y-144668D01*
X108459Y-145705D01*
X108118Y-146830D01*
X108003Y-148000D01*
X108118Y-149170D01*
X108459Y-150295D01*
X109013Y-151332D01*
X109759Y-152241D01*
X110290Y-152677D01*
Y-153323D01*
X109759Y-153759D01*
X109013Y-154668D01*
X108459Y-155705D01*
X108118Y-156830D01*
X108003Y-158000D01*
X108118Y-159170D01*
X108459Y-160295D01*
X109013Y-161332D01*
X109759Y-162241D01*
X110290Y-162677D01*
Y-163323D01*
X109759Y-163759D01*
X109013Y-164668D01*
X108459Y-165705D01*
X108118Y-166830D01*
X108003Y-168000D01*
X108118Y-169170D01*
X108459Y-170295D01*
X109013Y-171332D01*
X109759Y-172241D01*
X110290Y-172677D01*
Y-173323D01*
X109759Y-173759D01*
X109013Y-174668D01*
X108459Y-175705D01*
X108118Y-176830D01*
X108003Y-178000D01*
X108118Y-179170D01*
X108459Y-180295D01*
X109013Y-181332D01*
X109759Y-182241D01*
X110169Y-182578D01*
X110131Y-183111D01*
X109790Y-183279D01*
X109513Y-183066D01*
X108175Y-182512D01*
X106739Y-182323D01*
X105304Y-182512D01*
X104498Y-182846D01*
X104082Y-182568D01*
X104082Y-88124D01*
X109872Y-82333D01*
X110290Y-82677D01*
D02*
G37*
G36*
Y-192677D02*
Y-193323D01*
X109759Y-193759D01*
X109013Y-194668D01*
X108459Y-195705D01*
X108118Y-196830D01*
X108003Y-198000D01*
X108118Y-199170D01*
X108459Y-200295D01*
X109013Y-201332D01*
X109759Y-202241D01*
X110290Y-202677D01*
Y-203323D01*
X109759Y-203759D01*
X109013Y-204668D01*
X108459Y-205705D01*
X108118Y-206830D01*
X108003Y-208000D01*
X108118Y-209170D01*
X108459Y-210295D01*
X109013Y-211332D01*
X109759Y-212241D01*
X110290Y-212677D01*
Y-213323D01*
X109759Y-213759D01*
X109013Y-214668D01*
X108459Y-215705D01*
X108118Y-216830D01*
X108003Y-218000D01*
X108118Y-219170D01*
X108459Y-220295D01*
X109013Y-221332D01*
X109759Y-222241D01*
X110290Y-222677D01*
Y-223323D01*
X109759Y-223759D01*
X109013Y-224668D01*
X108459Y-225705D01*
X108118Y-226830D01*
X108105Y-226960D01*
X107634Y-227129D01*
X104082Y-223576D01*
Y-193173D01*
X104498Y-192895D01*
X105304Y-193229D01*
X106739Y-193418D01*
X108175Y-193229D01*
X109513Y-192675D01*
X109914Y-192368D01*
X110290Y-192677D01*
D02*
G37*
G36*
X66485Y-159691D02*
Y-202770D01*
X65985Y-203083D01*
X64920Y-202642D01*
X63484Y-202452D01*
X62049Y-202642D01*
X60711Y-203196D01*
X59707Y-203965D01*
X58410D01*
X58241Y-203759D01*
X57710Y-203323D01*
Y-202677D01*
X58241Y-202241D01*
X58987Y-201332D01*
X59541Y-200295D01*
X59882Y-199170D01*
X59997Y-198000D01*
X59882Y-196830D01*
X59541Y-195705D01*
X58987Y-194668D01*
X58241Y-193759D01*
X57710Y-193323D01*
Y-192677D01*
X58241Y-192241D01*
X58987Y-191332D01*
X59541Y-190295D01*
X59882Y-189170D01*
X59997Y-188000D01*
X59882Y-186830D01*
X59541Y-185705D01*
X58987Y-184668D01*
X58241Y-183759D01*
X57710Y-183323D01*
Y-182677D01*
X58241Y-182241D01*
X58987Y-181332D01*
X59541Y-180295D01*
X59882Y-179170D01*
X59997Y-178000D01*
X59882Y-176830D01*
X59541Y-175705D01*
X58987Y-174668D01*
X58241Y-173759D01*
X57710Y-173323D01*
Y-172677D01*
X58241Y-172241D01*
X58987Y-171332D01*
X59541Y-170295D01*
X59882Y-169170D01*
X59997Y-168000D01*
X59882Y-166830D01*
X59541Y-165705D01*
X58987Y-164668D01*
X58241Y-163759D01*
X57710Y-163323D01*
Y-162677D01*
X58241Y-162241D01*
X58987Y-161332D01*
X59541Y-160295D01*
X59882Y-159170D01*
X59997Y-158000D01*
X59882Y-156830D01*
X59541Y-155705D01*
X58987Y-154668D01*
X58241Y-153759D01*
X57710Y-153323D01*
Y-152677D01*
X58241Y-152241D01*
X58356Y-152100D01*
X58878Y-152084D01*
X66485Y-159691D01*
D02*
G37*
G36*
X42647Y-190853D02*
X42647Y-190853D01*
X43483Y-191494D01*
X44456Y-191897D01*
X45500Y-192034D01*
X45500Y-192034D01*
X49590D01*
X49759Y-192241D01*
X50290Y-192677D01*
Y-193323D01*
X49759Y-193759D01*
X49013Y-194668D01*
X48459Y-195705D01*
X48118Y-196830D01*
X48003Y-198000D01*
X48118Y-199170D01*
X48459Y-200295D01*
X49013Y-201332D01*
X49759Y-202241D01*
X50290Y-202677D01*
Y-203323D01*
X49759Y-203759D01*
X49590Y-203965D01*
X46171D01*
X46035Y-203829D01*
Y-198929D01*
X46035Y-198929D01*
X45897Y-197885D01*
X45494Y-196912D01*
X44853Y-196076D01*
X44853Y-196076D01*
X25311Y-176534D01*
X25518Y-176034D01*
X27829D01*
X42647Y-190853D01*
D02*
G37*
G36*
X29965Y-199671D02*
Y-210103D01*
X29465Y-210350D01*
X29017Y-210006D01*
X28044Y-209603D01*
X27000Y-209466D01*
X27000Y-209466D01*
X23390D01*
X23230Y-209270D01*
X22685Y-208823D01*
Y-208177D01*
X23230Y-207730D01*
X23974Y-206823D01*
X24526Y-205789D01*
X24867Y-204667D01*
X24982Y-203500D01*
X24867Y-202333D01*
X24526Y-201211D01*
X23974Y-200177D01*
X23230Y-199270D01*
X22685Y-198823D01*
Y-198177D01*
X23230Y-197730D01*
X23974Y-196823D01*
X24526Y-195789D01*
X24724Y-195137D01*
X25289Y-194995D01*
X29965Y-199671D01*
D02*
G37*
G36*
X38535Y-207554D02*
X39147Y-208353D01*
X41647Y-210853D01*
X41647Y-210853D01*
X42483Y-211494D01*
X43456Y-211897D01*
X44500Y-212035D01*
X49590D01*
X49759Y-212241D01*
X50642Y-212965D01*
X50643Y-213005D01*
X50366Y-213465D01*
X40671D01*
X38034Y-210829D01*
Y-207861D01*
X38480Y-207553D01*
X38535Y-207554D01*
D02*
G37*
G36*
X14770Y-207730D02*
X15315Y-208177D01*
Y-208823D01*
X14770Y-209270D01*
X14027Y-210177D01*
X13474Y-211211D01*
X13133Y-212333D01*
X13018Y-213500D01*
X13133Y-214667D01*
X13474Y-215789D01*
X14027Y-216823D01*
X14770Y-217730D01*
X15315Y-218177D01*
Y-218823D01*
X14875Y-219184D01*
X14238Y-218696D01*
X12900Y-218142D01*
X11465Y-217952D01*
X10029Y-218142D01*
X9415Y-218396D01*
X8999Y-218118D01*
Y-213207D01*
X14490Y-207716D01*
X14770Y-207730D01*
D02*
G37*
G36*
X49461Y-228000D02*
X49616Y-229175D01*
X49989Y-230077D01*
X49566Y-230360D01*
X41202Y-221996D01*
X41394Y-221534D01*
X49461D01*
Y-228000D01*
D02*
G37*
G36*
X60711Y-212804D02*
X62049Y-213358D01*
X63484Y-213547D01*
X64920Y-213358D01*
X65985Y-212917D01*
X66485Y-213230D01*
Y-222324D01*
X58424Y-230385D01*
X58000Y-230102D01*
X58384Y-229175D01*
X58539Y-228000D01*
Y-218000D01*
X58384Y-216825D01*
X57931Y-215731D01*
X57209Y-214791D01*
X56269Y-214069D01*
X56230Y-214053D01*
X56254Y-213553D01*
X56295Y-213541D01*
X57332Y-212987D01*
X58241Y-212241D01*
X58410Y-212035D01*
X59707D01*
X60711Y-212804D01*
D02*
G37*
G36*
X46135Y-238341D02*
X45944Y-238803D01*
X20423D01*
X19655Y-238035D01*
X19757Y-237534D01*
X32370D01*
X32370Y-237534D01*
X32370Y-237534D01*
X33118D01*
X34162Y-237397D01*
X35135Y-236994D01*
X35971Y-236353D01*
X36612Y-235517D01*
X37015Y-234544D01*
X37153Y-233500D01*
X37103Y-233126D01*
X37153Y-232752D01*
X37015Y-231708D01*
X36612Y-230735D01*
X35971Y-229899D01*
X35135Y-229258D01*
X34162Y-228855D01*
X33118Y-228717D01*
X32074Y-228855D01*
X31101Y-229258D01*
X30830Y-229466D01*
X21528D01*
X21403Y-228965D01*
X22323Y-228473D01*
X23230Y-227730D01*
X23974Y-226823D01*
X24526Y-225789D01*
X24867Y-224667D01*
X24982Y-223500D01*
X24867Y-222333D01*
X24526Y-221211D01*
X23974Y-220177D01*
X23230Y-219270D01*
X22685Y-218823D01*
Y-218177D01*
X23230Y-217730D01*
X23390Y-217534D01*
X25329D01*
X46135Y-238341D01*
D02*
G37*
%LPC*%
G36*
X181980Y-83260D02*
X176500D01*
Y-88740D01*
X177176Y-88673D01*
X178307Y-88330D01*
X179350Y-87773D01*
X180263Y-87023D01*
X181013Y-86109D01*
X181570Y-85067D01*
X181913Y-83936D01*
X181980Y-83260D01*
D02*
G37*
G36*
X175500D02*
X170020D01*
X170087Y-83936D01*
X170430Y-85067D01*
X170987Y-86109D01*
X171737Y-87023D01*
X172650Y-87773D01*
X173693Y-88330D01*
X174824Y-88673D01*
X175500Y-88740D01*
Y-83260D01*
D02*
G37*
G36*
X11811Y-1873D02*
X9872Y-2064D01*
X8008Y-2630D01*
X6290Y-3548D01*
X4784Y-4784D01*
X3548Y-6290D01*
X2630Y-8008D01*
X2064Y-9872D01*
X1873Y-11811D01*
X2064Y-13750D01*
X2630Y-15614D01*
X3548Y-17332D01*
X4784Y-18838D01*
X6290Y-20074D01*
X8008Y-20992D01*
X9872Y-21558D01*
X11811Y-21749D01*
X13750Y-21558D01*
X15614Y-20992D01*
X17332Y-20074D01*
X18838Y-18838D01*
X20074Y-17332D01*
X20992Y-15614D01*
X21558Y-13750D01*
X21749Y-11811D01*
X21558Y-9872D01*
X20992Y-8008D01*
X20074Y-6290D01*
X18838Y-4784D01*
X17332Y-3548D01*
X15614Y-2630D01*
X13750Y-2064D01*
X11811Y-1873D01*
D02*
G37*
G36*
X243500Y-140120D02*
X242140Y-140254D01*
X240832Y-140651D01*
X239627Y-141295D01*
X238571Y-142162D01*
X237837Y-143056D01*
X234437D01*
Y-140154D01*
X220563D01*
Y-154028D01*
X234437D01*
Y-151125D01*
X237837D01*
X238571Y-152020D01*
X239627Y-152886D01*
X240832Y-153531D01*
X242140Y-153927D01*
X243500Y-154061D01*
X244860Y-153927D01*
X246167Y-153531D01*
X247373Y-152886D01*
X248429Y-152020D01*
X249296Y-150963D01*
X249940Y-149758D01*
X250337Y-148451D01*
X250471Y-147091D01*
X250337Y-145731D01*
X249940Y-144423D01*
X249296Y-143218D01*
X248429Y-142162D01*
X247373Y-141295D01*
X246167Y-140651D01*
X244860Y-140254D01*
X243500Y-140120D01*
D02*
G37*
G36*
X254000Y-181321D02*
X252795Y-181439D01*
X251635Y-181791D01*
X250567Y-182362D01*
X249630Y-183131D01*
X248862Y-184067D01*
X248291Y-185135D01*
X247939Y-186294D01*
X247821Y-187500D01*
X247939Y-188706D01*
X248291Y-189865D01*
X248862Y-190933D01*
X249630Y-191869D01*
X250094Y-192250D01*
Y-192750D01*
X249630Y-193131D01*
X248862Y-194067D01*
X248291Y-195135D01*
X247939Y-196294D01*
X247821Y-197500D01*
X247939Y-198705D01*
X248291Y-199865D01*
X248862Y-200933D01*
X249630Y-201870D01*
X250094Y-202250D01*
Y-202750D01*
X249630Y-203131D01*
X248862Y-204067D01*
X248291Y-205135D01*
X247939Y-206294D01*
X247821Y-207500D01*
X247939Y-208705D01*
X248291Y-209865D01*
X248862Y-210933D01*
X249630Y-211870D01*
X250094Y-212250D01*
Y-212750D01*
X249630Y-213130D01*
X248862Y-214067D01*
X248291Y-215135D01*
X247939Y-216295D01*
X247821Y-217500D01*
X247939Y-218706D01*
X248291Y-219865D01*
X248862Y-220933D01*
X249630Y-221869D01*
X250094Y-222250D01*
Y-222750D01*
X249630Y-223130D01*
X248862Y-224067D01*
X248291Y-225135D01*
X247939Y-226294D01*
X247821Y-227500D01*
X247939Y-228706D01*
X248291Y-229865D01*
X248862Y-230933D01*
X249630Y-231870D01*
X250094Y-232250D01*
Y-232750D01*
X249630Y-233131D01*
X248862Y-234067D01*
X248291Y-235135D01*
X247939Y-236295D01*
X247821Y-237500D01*
X247939Y-238705D01*
X248291Y-239865D01*
X248862Y-240933D01*
X249630Y-241869D01*
X250567Y-242638D01*
X251635Y-243209D01*
X252795Y-243561D01*
X254000Y-243679D01*
X255205Y-243561D01*
X256365Y-243209D01*
X257433Y-242638D01*
X258369Y-241869D01*
X258644Y-241534D01*
X283893D01*
X284053Y-241730D01*
X284960Y-242474D01*
X285994Y-243026D01*
X287116Y-243367D01*
X288283Y-243482D01*
X288395Y-243471D01*
X288543Y-243958D01*
X287668Y-244426D01*
X286162Y-245662D01*
X284926Y-247168D01*
X284008Y-248886D01*
X283442Y-250750D01*
X283251Y-252689D01*
X283442Y-254628D01*
X284008Y-256492D01*
X284926Y-258210D01*
X286162Y-259716D01*
X287668Y-260952D01*
X289386Y-261870D01*
X291250Y-262436D01*
X293189Y-262627D01*
X295128Y-262436D01*
X296992Y-261870D01*
X298710Y-260952D01*
X300216Y-259716D01*
X301452Y-258210D01*
X302370Y-256492D01*
X302936Y-254628D01*
X303127Y-252689D01*
X302936Y-250750D01*
X302370Y-248886D01*
X301452Y-247168D01*
X300216Y-245662D01*
X298710Y-244426D01*
X296992Y-243508D01*
X295128Y-242942D01*
X293189Y-242751D01*
X291869Y-242881D01*
X291823Y-242811D01*
X291701Y-242395D01*
X292512Y-241730D01*
X293256Y-240823D01*
X293809Y-239789D01*
X294149Y-238667D01*
X294264Y-237500D01*
X294149Y-236333D01*
X293809Y-235211D01*
X293256Y-234177D01*
X292512Y-233270D01*
X291968Y-232823D01*
Y-232177D01*
X292512Y-231730D01*
X293256Y-230823D01*
X293809Y-229789D01*
X294149Y-228667D01*
X294264Y-227500D01*
X294149Y-226333D01*
X293809Y-225211D01*
X293256Y-224177D01*
X292512Y-223270D01*
X291968Y-222823D01*
Y-222177D01*
X292512Y-221730D01*
X293256Y-220823D01*
X293809Y-219789D01*
X294149Y-218667D01*
X294264Y-217500D01*
X294149Y-216333D01*
X293809Y-215211D01*
X293256Y-214177D01*
X293033Y-213905D01*
X293247Y-213453D01*
X294235D01*
Y-201547D01*
X282330D01*
Y-203466D01*
X258644D01*
X258369Y-203131D01*
X257906Y-202750D01*
Y-202250D01*
X258369Y-201870D01*
X259138Y-200933D01*
X259709Y-199865D01*
X260061Y-198705D01*
X260179Y-197500D01*
X260061Y-196294D01*
X259709Y-195135D01*
X259138Y-194067D01*
X258369Y-193131D01*
X257906Y-192750D01*
Y-192250D01*
X258369Y-191869D01*
X259138Y-190933D01*
X259709Y-189865D01*
X260061Y-188706D01*
X260179Y-187500D01*
X260061Y-186294D01*
X259709Y-185135D01*
X259138Y-184067D01*
X258369Y-183131D01*
X257433Y-182362D01*
X256365Y-181791D01*
X255205Y-181439D01*
X254000Y-181321D01*
D02*
G37*
%LPD*%
G36*
X282330Y-213453D02*
X281835Y-213465D01*
X258644D01*
X258369Y-213130D01*
X257906Y-212750D01*
Y-212250D01*
X258369Y-211870D01*
X258644Y-211535D01*
X282330D01*
Y-213453D01*
D02*
G37*
G36*
X284053Y-221730D02*
X284598Y-222177D01*
Y-222823D01*
X284053Y-223270D01*
X283893Y-223465D01*
X258644D01*
X258369Y-223130D01*
X257906Y-222750D01*
Y-222250D01*
X258369Y-221869D01*
X258644Y-221534D01*
X283893D01*
X284053Y-221730D01*
D02*
G37*
G36*
Y-231730D02*
X284598Y-232177D01*
Y-232823D01*
X284053Y-233270D01*
X283893Y-233466D01*
X258644D01*
X258369Y-233131D01*
X257906Y-232750D01*
Y-232250D01*
X258369Y-231870D01*
X258644Y-231535D01*
X283893D01*
X284053Y-231730D01*
D02*
G37*
D14*
X68400Y-8100D02*
X273536D01*
X296504Y-33611D02*
Y-32695D01*
X273536Y-8100D02*
X296386Y-30950D01*
Y-32813D02*
Y-30950D01*
X270875Y-13100D02*
X291386Y-33611D01*
X112982Y-13100D02*
X270875D01*
X291386Y-119614D02*
Y-33611D01*
X296504D02*
X296504Y-139496D01*
X296386Y-32813D02*
X296504Y-32695D01*
X277139Y-96500D02*
X286134Y-105495D01*
Y-115563D02*
Y-105495D01*
X284054Y-117643D02*
X286134Y-115563D01*
X278148Y-117643D02*
X284054D01*
X280000Y-131000D02*
X291386Y-119614D01*
X14753Y-240815D02*
X16729D01*
X4965Y-231027D02*
X14753Y-240815D01*
X4965Y-231027D02*
Y-211535D01*
X18752Y-242837D02*
X59763D01*
X16729Y-240815D02*
X18752Y-242837D01*
X59763D02*
X78394Y-224206D01*
X277213Y-118579D02*
X278148Y-117643D01*
X274500Y-161500D02*
X296504Y-139496D01*
X260172Y-108500D02*
X277134D01*
X277213Y-108579D01*
X268500Y-118500D02*
X268579Y-118579D01*
X277213D01*
X106739Y-187871D02*
X113870D01*
X113870Y-187870D01*
X114000Y-188000D01*
X244142Y-21335D02*
X244303Y-21496D01*
X268339D01*
X268500Y-21657D01*
X199653Y-73697D02*
X199752Y-73598D01*
X223902D01*
X224000Y-73500D01*
X157000Y-58000D02*
X159945Y-55055D01*
Y-53555D01*
Y-71280D02*
Y-55055D01*
X159890Y-71335D02*
X159945Y-71280D01*
Y-53555D02*
X160000Y-53500D01*
X167736Y-198866D02*
X167764Y-198894D01*
X155405Y-198866D02*
X167736D01*
X155378Y-198839D02*
X155405Y-198866D01*
X123222Y-98053D02*
X123276Y-98106D01*
X114053Y-98053D02*
X123222D01*
X114000Y-98000D02*
X114053Y-98053D01*
X157776Y-109378D02*
X198122D01*
X136398Y-88000D02*
X157776Y-109378D01*
X114000Y-88000D02*
X136398D01*
X107921Y-187476D02*
X108183Y-187738D01*
X113738D01*
X114000Y-188000D01*
X11465Y-222909D02*
X11760Y-223205D01*
X100047Y-225247D02*
X109800Y-235000D01*
X100047Y-86453D02*
X100047Y-225247D01*
X100047Y-86453D02*
X108500Y-78000D01*
X94142Y-228642D02*
X105500Y-240000D01*
X94142Y-80358D02*
X94142Y-228642D01*
X94142Y-80358D02*
X106500Y-68000D01*
X19000Y-142000D02*
X30949D01*
X35087Y-146138D01*
X11465Y-223500D02*
X19000D01*
X18705Y-223205D02*
X19000Y-223500D01*
X4965Y-211535D02*
X13000Y-203500D01*
X32370Y-233500D02*
X33118Y-232752D01*
X32370Y-233500D02*
X33118D01*
X19000D02*
X32370D01*
X11465Y-193382D02*
X11583Y-193500D01*
X19000D01*
X14000Y-152022D02*
X18978D01*
X9022D02*
X14000D01*
X12000Y-154022D02*
X14000Y-152022D01*
X12000Y-177854D02*
Y-154022D01*
X9000Y-152043D02*
X9022Y-152022D01*
X18978D02*
X19000Y-152000D01*
X5760Y-142000D02*
X19000D01*
X2500Y-145260D02*
X5760Y-142000D01*
X2500Y-176500D02*
Y-145260D01*
Y-176500D02*
X10100Y-184100D01*
X11465Y-75272D02*
X11736Y-75000D01*
X19000D01*
X3590Y-43909D02*
X10500Y-37000D01*
X3590Y-116091D02*
Y-43909D01*
Y-116091D02*
X12500Y-125000D01*
X105953Y-37870D02*
X113870D01*
X114000Y-38000D01*
X76413Y-49669D02*
X112982Y-13100D01*
X76413Y-49669D02*
X76425Y-49681D01*
Y-69366D02*
Y-49681D01*
X67791Y-78000D02*
X76425Y-69366D01*
X54000Y-78000D02*
X67791D01*
X54000Y-208000D02*
X63484D01*
X60500Y-148000D02*
X70520Y-158020D01*
Y-223995D02*
Y-158020D01*
X56677Y-237837D02*
X70520Y-223995D01*
X65500Y-138000D02*
X78394Y-150894D01*
Y-224206D02*
Y-150894D01*
X127606Y-48000D02*
X141500D01*
X114000D02*
X127606D01*
Y-37870D01*
X19169Y-26228D02*
X19339Y-26059D01*
X19169Y-36831D02*
Y-26228D01*
X19000Y-37000D02*
X19169Y-36831D01*
X131500Y-245000D02*
X147661Y-228839D01*
X155378D01*
X127964Y-240000D02*
X149126Y-218839D01*
X105500Y-240000D02*
X127964D01*
X149126Y-218839D02*
X155378D01*
X122807Y-235000D02*
X148969Y-208839D01*
X109800Y-235000D02*
X122807D01*
X148969Y-208839D02*
X155378D01*
X256622Y-237500D02*
X288283D01*
X256622Y-227500D02*
X288283D01*
X256622Y-217500D02*
X288283D01*
X254000Y-207500D02*
X288283D01*
X43500Y-118000D02*
X54000D01*
X30500Y-105000D02*
X43500Y-118000D01*
X19000Y-105000D02*
X30500D01*
X42571Y-108000D02*
X54000D01*
X34571Y-100000D02*
X42571Y-108000D01*
X34500Y-100000D02*
X34571D01*
X29500Y-95000D02*
X34500Y-100000D01*
X19000Y-95000D02*
X29500D01*
X12000Y-177854D02*
X13172Y-179026D01*
X22097D01*
X268500Y-66657D02*
Y-41342D01*
X230953Y-26500D02*
X245795Y-41342D01*
X268500D01*
X243500Y-104909D02*
Y-101000D01*
X240400Y-97900D02*
X243500Y-101000D01*
X222600Y-97900D02*
X240400D01*
X22097Y-179026D02*
X42000Y-198929D01*
Y-205500D02*
Y-198929D01*
Y-205500D02*
X44500Y-208000D01*
X54000D01*
X51337Y-237837D02*
X56677D01*
X19000Y-213500D02*
X27000D01*
X51337Y-237837D01*
X100500Y-245000D02*
X131500D01*
X89000Y-63500D02*
X104500Y-48000D01*
X89000Y-63500D02*
X89000Y-233500D01*
X100500Y-245000D01*
X108500Y-78000D02*
X114000D01*
X106500Y-68000D02*
X114000D01*
X227500Y-147091D02*
X243500D01*
X255000Y-103328D02*
X260172Y-108500D01*
X255000Y-103328D02*
Y-97500D01*
X238000Y-80500D02*
X255000Y-97500D01*
X238000Y-80500D02*
Y-60500D01*
X231000Y-53500D02*
X238000Y-60500D01*
X224000Y-53500D02*
X231000D01*
X244000Y-72775D02*
Y-56500D01*
X231000Y-43500D02*
X244000Y-56500D01*
X230882Y-33500D02*
X249000Y-51618D01*
Y-58500D02*
Y-51618D01*
Y-58500D02*
X268500Y-78000D01*
Y-86342D02*
Y-78000D01*
X267725Y-96500D02*
X277139D01*
X244000Y-72775D02*
X267725Y-96500D01*
X233000Y-118500D02*
X268500D01*
X227500Y-113000D02*
X233000Y-118500D01*
X227500Y-113000D02*
Y-105909D01*
X224000Y-43500D02*
X231000D01*
X13000Y-203500D02*
X19000D01*
X39000Y-217500D02*
X53500D01*
X54000Y-218000D01*
X34000Y-212500D02*
X39000Y-217500D01*
X34000Y-212500D02*
Y-198000D01*
X20100Y-184100D02*
X34000Y-198000D01*
X10100Y-184100D02*
X20100D01*
X45500Y-178000D02*
X54000D01*
X29500Y-162000D02*
X45500Y-178000D01*
X19000Y-162000D02*
X29500D01*
X45500Y-188000D02*
X54000D01*
X29500Y-172000D02*
X45500Y-188000D01*
X19000Y-172000D02*
X29500D01*
X54000Y-148000D02*
X60500D01*
X54000Y-138000D02*
X65500D01*
X12500Y-125000D02*
X19000D01*
X41500Y-98000D02*
X54000D01*
X28500Y-85000D02*
X41500Y-98000D01*
X19000Y-85000D02*
X28500D01*
X43500Y-128000D02*
X54000D01*
X30500Y-115000D02*
X43500Y-128000D01*
X19000Y-115000D02*
X30500D01*
X10500Y-37000D02*
X19000D01*
X54000Y-22500D02*
X68400Y-8100D01*
X54000Y-38000D02*
Y-22500D01*
X141000Y-30500D02*
X145000Y-26500D01*
X141000Y-38500D02*
Y-30500D01*
Y-38500D02*
X146000Y-43500D01*
X104500Y-48000D02*
X114000D01*
X146000Y-43500D02*
X160000D01*
X141500Y-48000D02*
X146000Y-43500D01*
X176000Y-82760D02*
Y-49000D01*
X170500Y-43500D02*
X176000Y-49000D01*
X160000Y-43500D02*
X170500D01*
X224000Y-33500D02*
X230882D01*
X160000D02*
X224000D01*
X219500Y-101000D02*
X222600Y-97900D01*
X219500Y-114200D02*
Y-101000D01*
Y-114200D02*
X236300Y-131000D01*
X280000D01*
X198122Y-109378D02*
X224000Y-83500D01*
X114000Y-58000D02*
X157000D01*
X19000Y-142000D02*
Y-125000D01*
X195260Y-63500D02*
X224000D01*
X176000Y-82760D02*
X195260Y-63500D01*
X145000Y-26500D02*
X230953D01*
X267000Y-66657D02*
X268500D01*
X19000Y-47000D02*
X33500D01*
X45000Y-58500D01*
Y-79000D02*
Y-58500D01*
Y-79000D02*
X54000Y-88000D01*
X176000Y-161500D02*
X274500D01*
D31*
X268500Y-21657D02*
D03*
Y-41342D02*
D03*
Y-86342D02*
D03*
Y-66657D02*
D03*
D32*
X54000Y-38000D02*
D03*
D33*
Y-48000D02*
D03*
Y-58000D02*
D03*
Y-68000D02*
D03*
Y-78000D02*
D03*
Y-88000D02*
D03*
Y-98000D02*
D03*
Y-108000D02*
D03*
Y-118000D02*
D03*
Y-128000D02*
D03*
Y-138000D02*
D03*
Y-148000D02*
D03*
Y-158000D02*
D03*
Y-168000D02*
D03*
Y-178000D02*
D03*
Y-188000D02*
D03*
Y-198000D02*
D03*
Y-208000D02*
D03*
Y-218000D02*
D03*
Y-228000D02*
D03*
X114000D02*
D03*
Y-218000D02*
D03*
Y-208000D02*
D03*
Y-198000D02*
D03*
Y-188000D02*
D03*
Y-178000D02*
D03*
Y-168000D02*
D03*
Y-158000D02*
D03*
Y-148000D02*
D03*
Y-138000D02*
D03*
Y-128000D02*
D03*
Y-118000D02*
D03*
Y-108000D02*
D03*
Y-98000D02*
D03*
Y-88000D02*
D03*
Y-78000D02*
D03*
Y-68000D02*
D03*
Y-58000D02*
D03*
Y-48000D02*
D03*
Y-38000D02*
D03*
D34*
X293189Y-11811D02*
D03*
Y-252689D02*
D03*
X11811Y-11811D02*
D03*
X11811Y-252689D02*
D03*
D35*
X155378Y-228839D02*
D03*
Y-218839D02*
D03*
Y-208839D02*
D03*
Y-198839D02*
D03*
X254000Y-237500D02*
D03*
Y-227500D02*
D03*
Y-217500D02*
D03*
Y-207500D02*
D03*
Y-197500D02*
D03*
Y-187500D02*
D03*
D36*
X155378Y-185531D02*
D03*
Y-242618D02*
D03*
D37*
X176000Y-161500D02*
D03*
D38*
Y-82760D02*
D03*
D39*
X19000Y-37000D02*
D03*
Y-47000D02*
D03*
Y-162000D02*
D03*
Y-152000D02*
D03*
Y-142000D02*
D03*
X288283Y-237500D02*
D03*
Y-227500D02*
D03*
Y-217500D02*
D03*
X19000Y-115000D02*
D03*
Y-105000D02*
D03*
Y-95000D02*
D03*
Y-85000D02*
D03*
Y-75000D02*
D03*
Y-193500D02*
D03*
Y-203500D02*
D03*
Y-213500D02*
D03*
Y-223500D02*
D03*
X224000Y-43500D02*
D03*
Y-53500D02*
D03*
Y-63500D02*
D03*
Y-73500D02*
D03*
Y-83500D02*
D03*
D40*
X19000Y-57000D02*
D03*
Y-172000D02*
D03*
X288283Y-207500D02*
D03*
X19000Y-125000D02*
D03*
Y-233500D02*
D03*
X224000Y-33500D02*
D03*
D41*
X277213Y-108579D02*
D03*
Y-118579D02*
D03*
D42*
X160000Y-53500D02*
D03*
Y-43500D02*
D03*
Y-33500D02*
D03*
D43*
X227500Y-105909D02*
D03*
X243500Y-147091D02*
D03*
D44*
X227500D02*
D03*
X243500Y-105909D02*
D03*
D45*
X106739Y-187871D02*
D03*
X244142Y-21335D02*
D03*
X199653Y-73697D02*
D03*
X159890Y-71335D02*
D03*
X167764Y-198894D02*
D03*
X123276Y-98106D02*
D03*
X35087Y-146138D02*
D03*
X11465Y-223500D02*
D03*
X33118Y-233500D02*
D03*
X11465Y-193382D02*
D03*
X9000Y-152043D02*
D03*
X11465Y-75272D02*
D03*
X105953Y-37870D02*
D03*
X63484Y-208000D02*
D03*
X127606Y-37870D02*
D03*
X19339Y-26059D02*
D03*
D46*
X19000Y-75000D02*
Y-57000D01*
X54000Y-228000D02*
Y-218000D01*
X227500Y-147091D02*
Y-146091D01*
M02*
